<?xml version="1.0" encoding="UTF-8"?><svg xmlns="http://www.w3.org/2000/svg" xmlns:xlink="http://www.w3.org/1999/xlink" viewBox="0 0 452.42 495.21"><defs><filter id="uuid-e276697b-b06e-4e08-9f7c-c5ce9eb28fb3" filterUnits="userSpaceOnUse"><feOffset dx="1" dy="1"/><feGaussianBlur result="uuid-bfbcf8ac-34c8-4326-bccc-3a76149d0631" stdDeviation="2"/><feFlood flood-color="#000" flood-opacity=".5"/><feComposite in2="uuid-bfbcf8ac-34c8-4326-bccc-3a76149d0631" operator="in"/><feComposite in="SourceGraphic"/></filter></defs><g id="uuid-a3c4c256-d5bb-4522-8116-1b509e3549e2" style="filter:url(#uuid-e276697b-b06e-4e08-9f7c-c5ce9eb28fb3);"><path d="m449.08,187.47c-2.85-16.36-7.4-32.22-13.74-47.56-1.69-4.08-3.55-8.09-5.32-12.14-.87-.39-1.17.43-1.61.82-6.53,5.73-13.8,10.16-22.13,12.75-1.44.45-2.87.91-4.3,1.36-1.79.26-3.57.53-5.56.82.82,2.51,1.58,4.92,2.41,7.31,1.35,3.89,3.14,7.62,4.24,11.6,2.16,7.83,4.2,15.68,5.99,23.61,1.61,7.17,3.01,14.35,3.67,21.68.19,2.11.12,4.25.55,6.33-.02.66-.07,1.33-.05,1.99.13,6.13.27,12.25-.23,18.38-.5,6.18-1.27,12.31-2.85,18.32-4.02,15.37-10.52,29.56-20.07,42.31-3.94,5.26-8.21,10.22-13.13,14.59-9.58,8.52-20.49,14.88-32.27,19.82-4.63,1.94-9.35,3.68-14.03,5.51.62-.04,1.07.22,1.45.58-.38-.36-.82-.62-1.45-.58-.69.08-1.32.29-1.9.67-2.53.62-5.05,1.28-7.49,2.21,3.3,2.49,6.09,5.51,8.87,8.54,8.86,9.66,16.66,20.15,24.07,30.93.54.79,1.21,1.51,1.55,2.43,5.02,6.86,9.54,14.04,13.86,21.35,1.53-.89,2.97-1.88,3.9-3.44.56-.15.89-.62,1.29-.97,8.81-7.66,17.01-15.93,24.48-24.9,32.79-39.41,50.46-84.74,52.9-135.94.78-16.22-.31-32.37-3.1-48.4Z" style="fill:#9797ff; stroke-width:0px;"/><path d="m132,337.36c-2.3-.64-4.59-1.28-6.89-1.92-.42-.33-.92-.46-1.45-.51-.21-.26-.53-.26-.81-.36-8.03-2.95-15.97-6.07-23.57-10.04-8.93-4.67-17.13-10.35-24.38-17.33-5.18-4.98-9.59-10.61-13.6-16.57-14.23-21.15-21.01-44.43-20.13-69.93.02-.54.13-1.09-.07-1.62.05-.66.13-1.33.14-1.99.08-6.81.85-13.55,1.9-20.27.62-4.02,1.73-7.93,2.57-11.9,1.79-8.48,3.95-16.88,6.58-25.13,1.54-4.84,3.73-9.47,5.16-14.36.18-.62.49-1.21.43-2.02-1.83-.03-3.52-.51-5.26-.68-.45-.16-.9-.34-1.36-.47-3.32-.92-6.59-2-9.71-3.46-6.24-2.91-11.83-6.78-16.86-11.48-.44-.42-.73-1.19-1.58-1.01-.26.61-.51,1.23-.8,1.82C8.89,156.05,1.57,185.51.22,216.43c-.52,11.9-.12,23.78,1.26,35.63,1.22,10.44,3.04,20.76,5.71,30.91,11.12,42.25,32.66,78.32,64.4,108.32,2.6,2.46,5.22,4.9,8.04,7.11.56.02.84.45,1.18.79,0,0-.11.11-.11.11.12.18.23.37.35.55.21,0,.33.11.33.33,0,0,.04.03.04.03.22-.03.33.06.34.29,0,0,.08.06.08.06.22-.02.29.11.28.3,0,0,.08.06.08.06.16-.05.28-.02.29.18.05.12.14.18.27.2,0,0,0,0,0,0,.33.32.62.71,1.13.78.22-.18.41-.41.73-.42,1.02-1.52,2.09-3.02,3.06-4.57,3.8-6.11,7.74-12.13,11.85-18.04-.01-.21.07-.36.26-.47,0,0,.03-.04.03-.04.07-.1.15-.2.22-.3,0-.08.04-.14.1-.18,2.23-3.68,4.85-7.08,7.41-10.52,6.42-8.65,13.18-17.04,20.69-24.78,1.39-1.43,2.88-2.77,4.32-4.15.29-.28.74-.5.5-1.03-.35-.07-.71-.11-1.05-.21Z" style="fill:#9797ff; stroke-width:0px;"/><path d="m320.4,20.38c-.51-.28-1.14-.38-1.48-.93-.23-.02-.46-.04-.69-.05-.2.03-.33-.07-.43-.24-.86-.19-1.57-.86-2.51-.8-.81-.46-1.6-.96-2.58-.97-.13-.13-.26-.26-.4-.4-2.37-.93-4.72-1.9-7.1-2.79C283.3,6.01,260.64,1.39,237.28.27c-14.52-.69-28.99-.05-43.4,2.04-13.05,1.89-25.82,4.88-38.35,8.95-4.72,1.53-9.34,3.35-14,5.05,0,.12,0,.23-.04.35-1.07.09-1.99.57-2.92,1.05-1.21,0-2.13.89-3.28,1.08-.42.46-1.01.57-1.55.78-.49.19-1.03.37-1.02,1.06,1.02,1.12,2.04,2.24,3.06,3.36,6.52,7.19,12.13,14.99,15.83,24.04.05.11.09.22.13.34.2.51.54.59,1.01.36.27-.13.56-.23.84-.35,20.16-8.47,41.32-12.2,63.05-13.11,14.04-.58,28.01.25,41.91,2.37,11.59,1.77,22.96,4.44,34.08,8.17,2.81.94,5.57,2.05,8.37,3.05,1.29.46,1.4.4,1.84-.82,1-2.75,2.35-5.32,3.81-7.85,4.02-6.91,8.97-13.11,14.44-18.9.02-.5-.32-.71-.7-.92Z" style="fill:#9797ff; stroke-width:0px;"/><path d="m61.31,290.62c-14.23-21.15-21.01-44.43-20.13-69.93.02-.54.13-1.09-.07-1.62.05-.66.13-1.33.14-1.99.08-6.81.85-13.55,1.9-20.27.62-4.02,1.73-7.93,2.57-11.9,1.79-8.48,3.95-16.88,6.58-25.13,1.54-4.84,3.73-9.47,5.16-14.36.18-.62.49-1.21.43-2.02-1.83-.03-3.52-.51-5.26-.68-.45-.16-.9-.34-1.36-.47-3.32-.92-6.59-2-9.71-3.46-1.13-.52-2.22-1.09-3.31-1.68-2.64,8.46-4.84,17.04-6.67,25.71-.91,4.3-2.1,8.53-2.77,12.87-1.13,7.26-1.96,14.56-2.05,21.92,0,.72-.1,1.43-.15,2.15.21.58.1,1.17.08,1.76-.95,27.58,6.38,52.76,21.77,75.63,4.34,6.45,9.11,12.54,14.71,17.92,1.38,1.33,2.8,2.59,4.24,3.83-2.15-2.67-4.16-5.45-6.08-8.3Z" style="fill:#8989e0; stroke-width:0px;"/><path d="m369.61,401.13c-1.07,1.49-2.62,2.46-4.03,3.56-5.85,4.59-11.94,8.85-18.22,12.84-3.98,2.53-8.06,4.9-12.18,7.2-4.13,2.3-8.37,4.38-12.63,6.44-5.66,2.74-11.48,5.13-17.37,7.33-9.29,3.47-18.79,6.26-28.45,8.49-4.87,1.12-9.76,2.13-14.72,2.81-1.43.19-2.85.47-4.27.71-.25,0-.49.02-.74.03-.5-2.85-1.11-5.68-1.61-8.54-1.23-7.01-2.62-13.99-3.94-20.99-1.47-7.83-2.93-15.66-4.41-23.48-1.06-5.63-2.09-11.27-3.21-16.89-.59-2.96-1.02-5.95-1.85-8.86.17-.65-.26-1.19-.33-1.8,2.24-1.09,4.11-2.63,5.17-4.91,2.38-5.14,3.43-10.57,3.26-16.24-.03-1.11-.52-1.8-1.53-2.23-.58-.25-1.16-.29-1.77-.31-3.94-.11-7.88-.14-11.81-.24-9.46-.24-18.92-.07-28.38-.44-3.25-.13-4.59,1.14-4.59,4.56,0,4.96.85,9.76,2.59,14.39.65,1.73,1.72,3.23,3.16,4.38.97.77,1.86,1.8,3.28,1.79.03.47.07.95.1,1.42-.9,2.83-1.24,5.79-1.81,8.69-1.47,7.47-2.78,14.97-4.19,22.45-1.15,6.12-2.36,12.22-3.52,18.34-.87,4.57-1.71,9.15-2.56,13.72-.84,4.51-1.7,9.03-2.54,13.54-.15.8-.28,1.56-1.08,1.98-.74-.62-1.72-.57-2.56-.68-4.37-.57-8.68-1.41-12.99-2.28-6.87-1.38-13.63-3.2-20.33-5.21-4.34-1.31-8.62-2.84-12.88-4.41-9.22-3.39-18.13-7.5-26.79-12.12-8.28-4.41-16.28-9.3-23.92-14.76-3.44-2.46-6.84-4.97-10.2-7.54-.54-.42-1.06-.81-1.29-1.47-.21-.3.17-.48.14-.74,1.02-1.52,2.09-3.02,3.06-4.57,3.8-6.11,7.74-12.13,11.85-18.04.24-.07.34-.22.26-.47l.03-.04c.27.04.36-.04.22-.3,0-.08.04-.14.1-.18.23.15.45.15.66-.02,1.97-1.6,4.03-3.09,5.89-4.81,3.2-2.97,6.69-5.57,10.25-8.05,6.25-4.38,12.92-8.05,19.86-11.27,6.22-2.89,12.66-5.13,19.24-7.01,7.16-2.05,14.47-3.27,21.95-3.15.22,0,.44-.05.66-.08-1.77-.38-3.55-.57-5.33-.78-2.63-.31-5.26-.63-7.89-.95-1.55-.19-3.11-.38-4.66-.56-2.57-.3-5.14-.61-7.71-.89-1.56-.17-3.13-.24-4.68-.45-3.88-.52-7.69-1.44-11.59-1.81-1.23-.12-2.54-.12-3.72-.65-.35-.07-.71-.11-1.05-.21-2.3-.64-4.59-1.28-6.89-1.92-.42-.33-.92-.46-1.45-.51-.21-.26-.53-.26-.81-.36-8.03-2.95-15.97-6.07-23.57-10.04-8.93-4.67-17.13-10.35-24.38-17.33-5.18-4.98-9.59-10.61-13.6-16.57-14.23-21.15-21.01-44.43-20.13-69.93.02-.54.13-1.09-.07-1.62.05-.66.13-1.33.14-1.99.08-6.81.85-13.55,1.9-20.27.62-4.02,1.73-7.93,2.57-11.9,1.79-8.48,3.95-16.88,6.58-25.13,1.54-4.84,3.73-9.47,5.16-14.36.18-.62.49-1.21.43-2.02-1.83-.03-3.52-.51-5.26-.68-.45-.16-.9-.34-1.36-.47-3.32-.92-6.59-2-9.71-3.46-6.24-2.91-11.83-6.78-16.86-11.48-.44-.42-.73-1.19-1.58-1-.17-1.16-1.04-1.93-1.77-2.66-3.42-3.41-6.05-7.37-8.21-11.64-2.23-4.43-3.87-9.11-4.55-14.04-.4-2.91-.77-5.87-.31-8.83.21-1.19.41-2.38.62-3.57.8-4.56,1.95-9.01,4-13.18,3.4-6.91,8.54-11.65,16.31-13.24,3.95-.81,7.68-2.33,10.97-4.69,3.45-2.48,6.73-5.19,9.68-8.26,5.81-6.04,11.38-12.29,16.93-18.55,6.27-7.08,12.99-13.61,21.69-17.72,6.12-2.89,12.42-4.35,19.22-2.97,8.67,1.76,16.15,5.77,22.7,11.64.76.68,1.4,1.51,2.31,2.03,1.02,1.12,2.04,2.24,3.06,3.36,6.52,7.19,12.13,14.99,15.83,24.04.05.11.09.22.13.34.2.51.54.59,1.01.36.27-.13.56-.23.84-.35,20.16-8.47,41.32-12.2,63.05-13.11,14.04-.58,28.01.25,41.91,2.37,11.59,1.77,22.96,4.44,34.08,8.17,2.81.94,5.57,2.05,8.37,3.05,1.29.46,1.4.4,1.84-.82,1-2.75,2.35-5.32,3.81-7.85,4.02-6.91,8.97-13.11,14.44-18.9.7-.39,1.17-1.04,1.74-1.58,6.36-6.07,13.71-10.3,22.28-12.44,7.11-1.78,13.83-.67,20.34,2.37,6.05,2.83,11.31,6.78,16.06,11.47,5.01,4.95,9.48,10.4,14.25,15.57,5.1,5.53,10.06,11.17,15.99,15.89,4.17,3.32,8.78,5.55,13.97,6.68,5.58,1.21,9.98,4.2,13.3,8.84,3.1,4.33,4.74,9.24,5.95,14.34.5,2.12.6,4.32,1.33,6.39.18,1.81.22,3.59-.14,5.4-.3,1.53-.11,3.11-.4,4.68-1.12,6.08-3.41,11.67-6.58,16.94-2.2,3.66-4.96,6.83-7.99,9.8-.6.59-1.3,1.13-1.18,2.12-.87-.39-1.17.43-1.61.82-6.53,5.73-13.8,10.16-22.13,12.75-1.44.45-2.87.91-4.3,1.36-1.79.26-3.57.53-5.56.82.82,2.51,1.58,4.92,2.41,7.31,1.35,3.89,3.14,7.62,4.24,11.6,2.16,7.83,4.2,15.68,5.99,23.61,1.61,7.17,3.01,14.35,3.67,21.68.19,2.11.12,4.25.55,6.33-.02.66-.07,1.33-.05,1.99.13,6.13.27,12.25-.23,18.38-.5,6.18-1.27,12.31-2.85,18.32-4.02,15.37-10.52,29.56-20.07,42.31-3.94,5.26-8.21,10.22-13.13,14.59-9.58,8.52-20.49,14.88-32.27,19.82-4.63,1.94-9.35,3.68-14.03,5.51-.69.08-1.32.29-1.9.67-2.53.62-5.05,1.28-7.49,2.21-2.7.24-5.39.58-8.06,1.06-3.44.61-6.88,1.26-10.36,1.51-2.89.21-5.78.49-8.63.88-3.76.51-7.53.89-11.3,1.35-2.32.28-4.63.58-6.95.87.34.16.69.22,1.03.21,3.82-.19,7.61.29,11.37.81,4.72.65,9.34,1.89,13.89,3.31,7.41,2.31,14.6,5.16,21.47,8.83,5.72,3.05,11.32,6.26,16.48,10.22,4.89,3.76,9.6,7.72,14.06,11.98.43.41.76.98,1.49.89,5.02,6.86,9.54,14.04,13.86,21.35Zm-144.22-202.02c-2.9.17-5.79-.06-8.71.3-4.01.49-8.01,1.01-11.95,1.91-5.39,1.23-10.59,2.95-15.54,5.44-3.74,1.88-7.32,3.98-10.56,6.68-3.87,3.22-7.2,6.85-9.36,11.41-2.11,4.45-3.21,9.11-2.24,14.06.32,1.66.57,3.34,1.22,4.92,2.4,5.78,6.17,10.49,11.12,14.31,3.82,2.94,7.98,5.29,12.36,7.23,2.7,1.19,5.49,2.22,8.34,3.05,3.31.96,6.66,1.75,10.04,2.32,3.74.64,7.52,1.17,11.32,1.22,5.5.07,11,.15,16.49-.64,3.17-.46,6.34-.93,9.42-1.69,6.59-1.64,12.97-3.87,18.88-7.34,6.09-3.58,11.39-7.96,15.03-14.12,1.88-3.17,3.08-6.6,3.37-10.26.36-4.48-.42-8.79-2.47-12.84-2.37-4.67-5.66-8.54-9.74-11.8-5.26-4.2-11.11-7.3-17.49-9.41-4.24-1.41-8.53-2.64-12.96-3.37-4.41-.73-8.82-1.34-13.3-1.36-1.09,0-2.19,0-3.28,0Zm102.79-7.28c-.46-7.76-4.54-14.61-12.87-18.41-10.63-4.86-22.3,1.12-24.3,12.46-1.47,8.36,1.49,15.31,8.06,20.59,4.74,3.81,10.21,5.25,16.22,3.79,7.65-1.85,12.82-8.8,12.88-18.43Zm-164.43-2.34c0-.48.02-.97,0-1.45-.44-8.56-7.61-17.7-19.55-16.12-11.39,1.51-19.68,13.37-17.59,24.67,1.77,9.57,10.39,15.57,19.96,13.91,9.77-1.7,17.25-10.83,17.19-21.01Zm-103.93-46.29c1.43,1.53,3.36,2.16,5.29,2.3,4.79.36,9.54.04,14.14-1.59,7.68-2.72,14.11-7.39,20.04-12.83,3.4-3.11,6.41-6.59,9.21-10.25,3.1-4.05,5.74-8.39,8.07-12.92,1.71-3.33,3.2-6.79,4.42-10.33,1.04-3.03,2.07-6.05,2.75-9.2.72-3.36,1.39-6.72,1.84-10.14.44-3.35.82-6.71.93-10.08.1-2.95,0-5.91-.22-8.88-.3-4.11-.77-8.16-1.57-12.19-.26-1.31-.69-2.57-1.26-3.77-.34-.71-1.24-1.08-1.65-.75-.52.43-.05.92.08,1.32.98,3.02,1.51,6.09,1.41,9.27-.06,1.7-.07,3.4,0,5.1.17,4.14-.48,8.21-1.23,12.24-1.15,6.18-2.82,12.24-5.03,18.14-1.17,3.11-2.4,6.22-3.82,9.22-2.92,6.13-6.05,12.13-9.88,17.77-2.83,4.16-5.84,8.16-9.22,11.87-4.34,4.76-9.11,9.06-14.76,12.25-4.26,2.41-8.72,4.15-13.75,4.05-1.94-.04-3.84-.16-5.79-.58Zm334.43.63c-.42-.62-.84-.39-1.23-.32-3.29.58-6.5.31-9.63-.87-4.94-1.87-9.27-4.75-13.13-8.28-5.78-5.28-11-11.09-15.4-17.59-2.54-3.76-4.96-7.59-7.16-11.58-3.67-6.65-6.72-13.56-9.23-20.72-1.96-5.6-3.47-11.33-4.48-17.16-.65-3.74-1.13-7.52-1.2-11.33-.03-1.7-.14-3.41.03-5.1.23-2.27.11-4.59.93-6.79.33-.9.47-1.87.72-2.81.08-.3.17-.63-.11-.83-.35-.25-.71-.09-.97.18-.25.26-.46.56-.65.86-.49.78-.79,1.65-.99,2.53-1.11,4.84-1.81,9.74-1.84,14.7-.02,4.42-.24,8.83.26,13.26.3,2.63.46,5.31.92,7.9.79,4.45,1.83,8.86,3.3,13.16,2.14,6.27,4.79,12.3,8.11,18.03,3.04,5.26,6.6,10.15,10.71,14.6,5.15,5.58,10.74,10.66,17.32,14.56,5.84,3.46,11.98,5.83,18.92,5.31,1.73-.13,3.37-.64,4.82-1.72Zm-249.48-5.18c-.55,0-1.1-.04-1.64.01-.54.06-1.06.25-1.59.32-4.97.64-9.01,3.02-12.3,6.69-1.07,1.2-2,2.55-2.16,4.28-.05.51.12.79.43,1.1.39.38.76.21,1.16.02.45-.21.8-.55,1.12-.91,1.55-1.79,3.63-2.87,5.74-3.72,4.5-1.81,9.17-2.96,14.11-2.72,1.83.09,3.58.44,5.24,1.19.49.22.92.38,1.29-.08.39-.48.37-1.03-.02-1.5-.34-.42-.73-.82-1.15-1.16-2.98-2.41-6.43-3.49-10.23-3.52Zm161.2,5.46c2.29-.04,4.44.32,6.56.74,4.87.97,9.35,2.79,13.11,6.15.44.39.83.99,1.54.58.65-.38.47-1.05.48-1.64,0-.45-.2-.83-.41-1.19-2.69-4.65-6.79-7.52-11.85-8.95-2.59-.74-5.26-.98-8.04-.49-3.42.6-6.32,1.94-8.68,4.46-.4.43-.72.87-.27,1.43.37.46.84.35,1.32.13,2.01-.94,4.14-1.29,6.23-1.22Z" style="fill:#ffd6e7; stroke-width:0px;"/><path d="m195.43,450.87c.8-.42.93-1.18,1.08-1.98.83-4.52,1.69-9.03,2.54-13.54.86-4.57,1.69-9.15,2.56-13.72,1.16-6.12,2.37-12.22,3.52-18.34,1.41-7.48,2.73-14.98,4.19-22.45.57-2.9.91-5.86,1.81-8.69,1.41.57,2.53,1.61,3.81,2.39,5.33,3.24,10.97,4.3,17.01,2.7,3.35-.89,6.61-2.05,8.96-4.83.28-.33.61-.59,1.07-.63.83,2.91,1.27,5.9,1.85,8.86,1.12,5.62,2.15,11.26,3.21,16.89,1.47,7.83,2.93,15.66,4.41,23.48,1.32,7,2.7,13.98,3.94,20.99.5,2.85,1.12,5.68,1.61,8.54-.01.67-.04,1.35.36,1.95.04.36.02.74.12,1.08.51,1.68.17,3.24-.57,4.76-1.09,2.25-2.56,4.25-4.09,6.22-4.08,5.27-8.16,10.54-12.24,15.82-3.04,3.93-6.1,7.84-9.48,11.48-.41.44-.83.88-1.26,1.31-2.87,2.87-3.93,2.63-6.58-.17-2.99-3.17-5.74-6.57-8.37-10.06-4.23-5.62-8.53-11.18-12.74-16.81-2.03-2.71-4.33-5.24-5.73-8.4-.68-1.53-1.25-3.03-.72-4.72.24-.76-.23-1.41-.29-2.13Z" style="fill:#928fff; stroke-width:0px;"/><path d="m446.3,88.83c-.74-2.07-.83-4.27-1.33-6.39-1.21-5.11-2.85-10.01-5.95-14.34-3.32-4.65-7.72-7.63-13.3-8.84-5.19-1.13-9.8-3.36-13.97-6.68-5.92-4.71-10.89-10.36-15.99-15.89-4.77-5.17-9.23-10.62-14.25-15.57-4.75-4.69-10-8.64-16.06-11.47-6.5-3.04-13.22-4.15-20.34-2.37-8.57,2.14-15.93,6.37-22.28,12.44-.56.54-1.03,1.19-1.74,1.58.02-.5-.32-.71-.7-.92-.51-.28-1.14-.38-1.48-.93,0-.62.48-.94.84-1.34.57-.62,1.15-1.23,1.72-1.85,2.79-2.52,5.55-5.07,8.72-7.12,6.16-3.99,12.8-6.6,20.14-7.35,1.27-.13,2.54-.12,3.81.01,5.84.64,11.12,2.78,16.14,5.77,3.04,1.81,5.82,3.95,8.45,6.3,3.08,2.75,5.96,5.7,8.7,8.8,5.38,6.1,10.81,12.15,16.41,18.05,3.02,3.18,6.34,6.01,9.84,8.64,3.4,2.55,7.24,4.24,11.38,5.08,8.21,1.66,13.57,6.69,16.92,14.07,2.92,6.43,4.28,13.25,4.32,20.31Z" style="fill:#756aea; stroke-width:0px;"/><path d="m132.73,20.62c-.91-.52-1.55-1.35-2.31-2.03-6.55-5.87-14.03-9.88-22.7-11.64-6.8-1.38-13.1.07-19.22,2.97-8.71,4.11-15.42,10.64-21.69,17.72-5.55,6.27-11.13,12.52-16.93,18.55-2.96,3.07-6.23,5.78-9.68,8.26-3.29,2.37-7.02,3.88-10.97,4.69-7.77,1.59-12.91,6.33-16.31,13.24-2.05,4.17-3.2,8.63-4,13.18-.21,1.19-.41,2.38-.62,3.57-.01-9.56,1.98-18.55,7.72-26.41,3-4.11,7.06-6.77,12.05-7.92,3.5-.8,6.91-1.88,10.03-3.69,3.59-2.08,6.74-4.77,9.72-7.62,3.95-3.77,7.58-7.86,11.27-11.88,5-5.46,9.69-11.19,15.06-16.31,4.53-4.31,9.58-7.82,15.22-10.48,7.6-3.58,15.38-3.99,23.35-1.28,7.36,2.5,13.83,6.42,19.32,11.94,1.17,1.02,2.37,2,3.27,3.28-.42.46-1.01.57-1.55.78-.49.19-1.03.37-1.02,1.06Z" style="fill:#756aea; stroke-width:0px;"/><path d="m257.36,452.49c-.4-.6-.38-1.27-.36-1.95.25,0,.49-.02.74-.03.02.69.12,1.39-.38,1.98Z" style="fill:#9f98f9; stroke-width:0px;"/><path d="m80.82,399.19s-.11.11-.11.11c-.46-.18-.81-.49-1.07-.9.56.02.84.46,1.18.79Z" style="fill:#474546; stroke-width:0px;"/><path d="m83.88,402.09c.22-.18.41-.41.73-.42.03.26-.36.44-.14.74-.26.02-.41-.16-.58-.31Z" style="fill:#474546; stroke-width:0px;"/><path d="m81.06,399.84c.21,0,.33.11.33.33-.23,0-.35-.09-.33-.33Z" style="fill:#474546; stroke-width:0px;"/><path d="m81.43,400.21c.22-.03.33.06.34.29-.22.03-.32-.08-.34-.29Z" style="fill:#474546; stroke-width:0px;"/><path d="m81.85,400.56c.22-.02.29.11.28.3-.19-.02-.28-.11-.28-.3Z" style="fill:#474546; stroke-width:0px;"/><path d="m82.21,400.92c.16-.05.28-.02.29.18-.16.04-.26-.02-.29-.18Z" style="fill:#474546; stroke-width:0px;"/><polygon points="82.76 401.3 82.75 401.31 82.74 401.38 82.76 401.3" style="fill:#474546; stroke-width:0px;"/><path d="m225.39,199.1c1.09,0,2.19,0,3.28,0,4.48.02,8.89.63,13.3,1.36,4.43.74,8.71,1.96,12.96,3.37,6.38,2.12,12.23,5.21,17.49,9.41,4.08,3.25,7.38,7.13,9.74,11.8,2.06,4.05,2.83,8.36,2.47,12.84-.29,3.66-1.5,7.09-3.37,10.26-3.65,6.16-8.94,10.54-15.03,14.12-5.91,3.47-12.29,5.7-18.88,7.34-3.09.77-6.26,1.24-9.42,1.69-5.49.79-10.99.71-16.49.64-3.8-.05-7.58-.58-11.32-1.22-3.39-.58-6.73-1.36-10.04-2.32-2.86-.83-5.64-1.85-8.34-3.05-4.38-1.94-8.55-4.28-12.36-7.23-4.95-3.82-8.72-8.53-11.12-14.31-.65-1.57-.9-3.26-1.22-4.92-.97-4.95.12-9.62,2.24-14.06,2.17-4.56,5.49-8.2,9.36-11.41,3.24-2.7,6.82-4.8,10.56-6.68,4.95-2.49,10.16-4.22,15.54-5.44,3.94-.9,7.94-1.43,11.95-1.91,2.92-.35,5.81-.13,8.71-.3Zm25.05,37.08c.11-1.46-.16-2.89-.35-4.32-.31-2.28-.72-4.51-1.84-6.57-.58-1.06-1.22-2.05-2.51-2.08-1.3-.03-1.97.94-2.56,2-1.64,2.94-1.95,6.19-2.18,9.43-.17,2.34-.11,4.71.34,7.04.42,2.19.84,4.38,2.01,6.34.57.95,1.26,1.7,2.39,1.68,1.04-.01,1.79-.66,2.24-1.6.36-.76.74-1.53,1.03-2.31,1.17-3.1,1.21-6.37,1.43-9.6Zm-37.9.97c0-1.41.07-2.51-.01-3.6-.22-2.65-.61-5.27-1.88-7.68-1.36-2.55-3.34-2.68-4.98-.28-.27.4-.55.81-.73,1.25-.83,2.15-1.39,4.4-1.46,6.69-.1,3.14-.26,6.29.31,9.41.37,2.03.83,4.01,1.89,5.82,1.07,1.83,3.56,1.87,4.59.02.32-.58.59-1.19.83-1.81,1.22-3.28,1.65-6.67,1.45-9.83Z" style="fill:#ffafca; stroke-width:0px;"/><path d="m328.18,191.82c-.06,9.63-5.23,16.57-12.88,18.43-6.01,1.46-11.48.02-16.22-3.79-6.57-5.28-9.54-12.23-8.06-20.59,1.99-11.34,13.66-17.32,24.3-12.46,8.33,3.81,12.41,10.65,12.87,18.41Z" style="fill:#1a1a3d; stroke-width:0px;"/><path d="m163.75,189.48c.06,10.18-7.42,19.31-17.19,21.01-9.57,1.66-18.19-4.34-19.96-13.91-2.09-11.3,6.2-23.16,17.59-24.67,11.95-1.58,19.11,7.55,19.55,16.12.02.48,0,.97,0,1.45Z" style="fill:#1a1a3d; stroke-width:0px;"/><path d="m211.03,370.73c-1.42.02-2.31-1.02-3.28-1.79-1.44-1.14-2.51-2.65-3.16-4.38-1.75-4.63-2.59-9.43-2.59-14.39,0-3.43,1.33-4.69,4.59-4.56,9.46.37,18.92.2,28.38.44,3.94.1,7.88.13,11.81.24.61.02,1.19.06,1.77.31,1.01.43,1.5,1.13,1.53,2.23.17,5.67-.89,11.1-3.26,16.24-1.06,2.28-2.92,3.82-5.17,4.91-.68-.03-1.27.12-1.87.52-.95.63-2.01,1.11-3.11,1.45-4.3,1.35-8.64,1.8-13.17,1.4-3.53-.32-6.9-.99-10.16-2.32-.76-.31-1.52-.35-2.31-.31Z" style="fill:#928fff; stroke-width:0px;"/><path d="m59.81,143.19c1.95.42,3.85.54,5.79.58,5.03.1,9.49-1.64,13.75-4.05,5.65-3.19,10.42-7.49,14.76-12.25,3.37-3.7,6.39-7.71,9.22-11.87,3.84-5.64,6.97-11.64,9.88-17.77,1.43-3,2.65-6.1,3.82-9.22,2.21-5.89,3.88-11.96,5.03-18.14.75-4.02,1.4-8.1,1.23-12.24-.07-1.7-.06-3.4,0-5.1.1-3.18-.43-6.25-1.41-9.27-.13-.4-.6-.89-.08-1.32.41-.34,1.31.03,1.65.75.57,1.2,1,2.46,1.26,3.77.79,4.03,1.27,8.08,1.57,12.19.21,2.97.32,5.93.22,8.88-.11,3.37-.5,6.72-.93,10.08-.45,3.42-1.12,6.77-1.84,10.14-.67,3.15-1.7,6.18-2.75,9.2-1.22,3.54-2.71,7-4.42,10.33-2.32,4.53-4.97,8.86-8.07,12.92-2.8,3.67-5.82,7.14-9.21,10.25-5.93,5.44-12.35,10.11-20.04,12.83-4.6,1.63-9.35,1.95-14.14,1.59-1.94-.15-3.86-.77-5.29-2.3Z" style="fill:#ffafca; stroke-width:0px;"/><path d="m394.25,143.82c-1.45,1.07-3.09,1.59-4.82,1.72-6.94.52-13.08-1.85-18.92-5.31-6.58-3.9-12.17-8.99-17.32-14.56-4.11-4.45-7.67-9.34-10.71-14.6-3.32-5.74-5.97-11.76-8.11-18.03-1.47-4.3-2.51-8.71-3.3-13.16-.46-2.59-.62-5.27-.92-7.9-.5-4.43-.28-8.84-.26-13.26.02-4.96.73-9.86,1.84-14.7.2-.88.51-1.75.99-2.53.19-.31.4-.61.65-.86.26-.27.62-.44.97-.18.28.21.19.53.11.83-.25.93-.38,1.91-.72,2.81-.82,2.2-.7,4.52-.93,6.79-.17,1.68-.06,3.4-.03,5.1.07,3.81.55,7.59,1.2,11.33,1.02,5.84,2.52,11.56,4.48,17.16,2.51,7.16,5.55,14.07,9.23,20.72,2.2,3.99,4.62,7.82,7.16,11.58,4.4,6.5,9.62,12.31,15.4,17.59,3.86,3.53,8.19,6.42,13.13,8.28,3.13,1.18,6.34,1.45,9.63.87.39-.07.82-.3,1.23.32Z" style="fill:#ffafca; stroke-width:0px;"/><path d="m321.26,337.87c3.3,2.49,6.09,5.51,8.87,8.54,8.86,9.66,16.66,20.15,24.07,30.93.54.79,1.21,1.51,1.55,2.43-.73.09-1.07-.49-1.49-.89-4.46-4.26-9.18-8.22-14.06-11.98-5.15-3.97-10.76-7.17-16.48-10.22-6.86-3.67-14.06-6.52-21.47-8.83-4.55-1.42-9.17-2.65-13.89-3.31-3.76-.52-7.55-1-11.37-.81-.34.02-.69-.04-1.03-.21,2.32-.29,4.63-.59,6.95-.87,3.76-.46,7.54-.84,11.3-1.35,2.86-.39,5.74-.67,8.63-.88,3.48-.25,6.93-.9,10.36-1.51,2.67-.48,5.36-.82,8.06-1.06Z" style="fill:#fdafca; stroke-width:0px;"/><path d="m100.13,378.06c2.23-3.68,4.85-7.08,7.41-10.52,6.42-8.65,13.18-17.04,20.69-24.78,1.39-1.43,2.88-2.77,4.32-4.15.29-.28.74-.5.5-1.03,1.18.53,2.49.53,3.72.64,3.91.37,7.72,1.29,11.59,1.81,1.55.21,3.12.28,4.68.45,2.57.28,5.14.59,7.71.89,1.55.18,3.11.38,4.66.56,2.63.32,5.26.64,7.89.95,1.78.21,3.56.4,5.33.78-.22.03-.44.08-.66.08-7.49-.12-14.79,1.1-21.95,3.15-6.57,1.88-13.01,4.13-19.24,7.01-6.93,3.22-13.6,6.89-19.86,11.27-3.56,2.49-7.05,5.09-10.25,8.05-1.85,1.72-3.92,3.22-5.89,4.81-.21.17-.44.17-.66.02Z" style="fill:#fdafca; stroke-width:0px;"/><path d="m144.76,138.64c3.8.03,7.25,1.11,10.23,3.52.42.34.81.74,1.15,1.16.39.47.41,1.02.02,1.5-.38.46-.8.31-1.29.08-1.66-.75-3.4-1.1-5.24-1.19-4.93-.24-9.6.91-14.11,2.72-2.11.84-4.18,1.92-5.74,3.72-.32.36-.67.7-1.12.91-.4.19-.77.36-1.16-.02-.31-.31-.48-.59-.43-1.1.16-1.73,1.08-3.08,2.16-4.28,3.3-3.67,7.33-6.05,12.3-6.69.54-.07,1.06-.26,1.59-.32.54-.06,1.09-.01,1.64-.01Z" style="fill:#ffb8d8; stroke-width:0px;"/><path d="m305.96,144.09c-2.1-.07-4.22.28-6.23,1.22-.48.22-.94.33-1.32-.13-.45-.56-.13-1,.27-1.43,2.36-2.52,5.26-3.86,8.68-4.46,2.78-.49,5.45-.24,8.04.49,5.06,1.44,9.16,4.3,11.85,8.95.21.36.42.74.41,1.19-.01.59.16,1.27-.48,1.64-.71.41-1.1-.18-1.54-.58-3.76-3.36-8.24-5.18-13.11-6.15-2.12-.42-4.27-.78-6.56-.74Z" style="fill:#ffb8d8; stroke-width:0px;"/><path d="m211.03,370.73c.79-.04,1.55,0,2.31.31,3.26,1.33,6.63,2,10.16,2.32,4.53.41,8.87-.05,13.17-1.4,1.11-.35,2.16-.82,3.11-1.45.6-.4,1.19-.55,1.87-.52.07.61.5,1.15.33,1.8-.46.03-.79.3-1.07.63-2.35,2.78-5.61,3.94-8.96,4.83-6.04,1.6-11.69.54-17.01-2.7-1.28-.78-2.4-1.82-3.81-2.39-.03-.47-.07-.95-.1-1.42Z" style="fill:#756aea; stroke-width:0px;"/><path d="m317.08,232.14c-.46,1.09-.88,2.16-1.35,3.2-.95,2.1-1.92,4.18-2.88,6.27-.1.22-.15.47-.3.65-.36.42-.85.47-1.32.24-.52-.25-.66-.69-.43-1.22.29-.67.6-1.32.91-1.98,1.05-2.31,2.1-4.63,3.17-6.94.15-.32.36-.63.59-.91.24-.28.55-.52.94-.28.36.22.69.5.68.96Z" style="fill:#ffc3d7; stroke:#ffc3d7; stroke-miterlimit:10; stroke-width:3px;"/><path d="m140.76,230.75c-.04.12-.11.42-.23.69-1.21,2.69-2.43,5.38-3.66,8.07-.12.27-.27.54-.42.8-.33.6-.89.61-1.42.41-.61-.23-.47-.77-.31-1.23.22-.62.47-1.24.74-1.84,1.06-2.37,2.12-4.73,3.2-7.08.12-.27.32-.51.53-.73.28-.3.57-.71,1.06-.5.53.23.55.75.51,1.42Z" style="fill:#ffc3d7; stroke:#ffc3d7; stroke-miterlimit:10; stroke-width:3px;"/><path d="m129.75,230.63c.7.04,1.15.57.87,1.24-.48,1.17-.81,2.41-1.54,3.46-.26.38-.6.87-1.17.54-.49-.28-.86-.66-.57-1.33.47-1.11.9-2.23,1.37-3.34.19-.43.59-.58,1.05-.56Z" style="fill:#ffc3d7; stroke:#ffc3d7; stroke-miterlimit:10; stroke-width:3px;"/><path d="m149.47,235.59c-.5,1.02-.8,2.45-1.76,3.57-.23.27-.53.57-.93.41-.44-.18-.57-.6-.54-1.05.02-.3.02-.63.16-.87.57-.99.74-2.17,1.51-3.05.27-.31.58-.72,1.05-.54.52.2.58.72.51,1.53Z" style="fill:#ffc3d7; stroke:#ffc3d7; stroke-miterlimit:10; stroke-width:3px;"/><path d="m302.53,236.17c.47-1.07.97-2.28,1.53-3.47.22-.47.65-.74,1.19-.49.51.24.64.72.51,1.22-.32,1.29-.89,2.48-1.57,3.62-.28.47-.76.59-1.26.38-.5-.21-.37-.69-.4-1.26Z" style="fill:#ffc3d7; stroke:#ffc3d7; stroke-miterlimit:10; stroke-width:3px;"/><path d="m324.56,237.23c-.43,1.05-.66,2.38-1.51,3.44-.32.4-.74.66-1.26.35-.5-.3-.51-.74-.34-1.26.37-1.16.89-2.24,1.5-3.28.21-.35.52-.75,1.01-.61.58.16.61.67.61,1.37Z" style="fill:#ffc3d7; stroke:#ffc3d7; stroke-miterlimit:10; stroke-width:3px;"/><path d="m99.8,378.54c.07-.1.15-.2.22-.3.14.26.05.34-.22.3Z" style="fill:#fdafca; stroke-width:0px;"/><path d="m99.52,379.05c-.01-.21.07-.36.26-.47.09.25-.01.4-.26.47Z" style="fill:#fdafca; stroke-width:0px;"/><path d="m318.23,19.4c-.2.03-.33-.07-.43-.24.19-.01.33.08.43.24Z" style="fill:#474546; stroke-width:0px;"/><path d="m250.44,236.18c-.22,3.24-.26,6.5-1.43,9.6-.3.79-.67,1.55-1.03,2.31-.45.95-1.2,1.59-2.24,1.6-1.12.01-1.82-.73-2.39-1.68-1.17-1.97-1.59-4.15-2.01-6.34-.45-2.33-.51-4.7-.34-7.04.23-3.24.54-6.49,2.18-9.43.59-1.06,1.25-2.03,2.56-2,1.3.03,1.94,1.01,2.51,2.08,1.12,2.06,1.52,4.29,1.84,6.57.2,1.44.47,2.86.35,4.32Z" style="fill:#ff7ab5; stroke-width:0px;"/><path d="m212.53,237.16c.19,3.16-.23,6.55-1.45,9.83-.23.62-.5,1.23-.83,1.81-1.03,1.85-3.52,1.81-4.59-.02-1.06-1.81-1.52-3.79-1.89-5.82-.57-3.13-.41-6.28-.31-9.41.07-2.29.63-4.54,1.46-6.69.17-.44.46-.85.73-1.25,1.64-2.4,3.62-2.28,4.98.28,1.28,2.4,1.67,5.02,1.88,7.68.09,1.08.01,2.18.01,3.6Z" style="fill:#ff7ab5; stroke-width:0px;"/><g id="uuid-ec3a35d1-6292-4311-951b-99e2e1175fb5"><path d="m145.23,207.86c-4.52.08-8.49-1.52-11.68-4.86-3.56-3.72-4.5-8.21-3.61-13.16.42-2.36,1.31-4.56,2.46-6.67.33-.6.74-1.11,1.39-1.37.68-.28,1.15-.04,1.27.67.07.41.06.85-.02,1.26-1.45,7.45,4.15,13.74,11.48,13.8.94,0,1.89.13,2.82.01,3.03-.39,5.66,3.04,3.68,6.45-1.57,2.71-4.19,4.03-7.78,3.87Z" style="fill:#131856; stroke-width:0px;"/><path d="m312.91,196.72c.39,0,.79,0,1.18,0,3.48,0,5.43,3.16,3.71,6.22-1.41,2.52-3.58,4.01-6.61,4.1-4.23.13-8.14-.77-11.45-3.52-4.66-3.87-6.16-8.84-5.07-14.68.44-2.33,1.31-4.5,2.46-6.57.32-.57.71-1.05,1.33-1.3.72-.29,1.18-.06,1.32.7.09.45,0,.9-.07,1.35-.68,3.86.29,7.26,2.99,10.09,2.25,2.36,5.12,3.47,8.38,3.57.61.02,1.21,0,1.82,0,0,.01,0,.03,0,.04Z" style="fill:#131856; stroke-width:0px;"/><path d="m155.69,183.26c.02,2.18-1.51,3.15-3.32,2.13-1.66-.93-2.99-2.24-3.78-4.01-.29-.65-.43-1.31-.18-2.01.3-.85,1-1.33,1.9-1.16,2.28.41,3.92,1.77,5.14,3.67.29.44.27.98.24,1.4Z" style="fill:#3ea2e5; stroke-width:0px;"/><path d="m320.42,182.41c.01,2.17-1.64,3.15-3.44,2.09-1.45-.86-2.65-2.01-3.47-3.5-.29-.53-.5-1.09-.5-1.72,0-1.36.91-2.2,2.24-1.89,2.21.51,3.83,1.86,4.97,3.79.24.41.21.87.2,1.23Z" style="fill:#3ea2e5; stroke-width:0px;"/></g><path d="m227.26,382.34c.66,30.7.65,64.84,0,95.56-.65-30.73-.66-64.85,0-95.56h0Z" style="fill:#7e7bef; stroke-width:0px;"/><path d="m221.99,294.62c-4.29-.9-7.97-2.75-10.86-5.8-.41-.43-.76-.91-1.07-1.4-.34-.55-.26-1.09.28-1.47.52-.37.97-.12,1.48.22,1.72,1.12,3.62,1.86,5.68,2.37,5.52,1.37,11.03,1.31,16.48.58,2.55-.34,5.11-.92,7.22-2.32.43-.28.89-.53,1.45-.64.49-.09.94-.18,1.31.28.29.37.42.69.27,1.18-.53,1.65-1.84,2.77-3.29,3.7-4.45,2.84-9.49,4.24-15.23,3.73-.62-.06-1.25.02-1.86-.05-.62-.07-1.23-.24-1.85-.36Z" style="fill:#ff9cc2; stroke:#ff9cc2; stroke-miterlimit:10; stroke-width:3px;"/><path d="m108.6,357.8c-3.85,2.69-7.62,5.5-11.08,8.71-2.01,1.86-4.24,3.48-6.37,5.2-.23.19-.47.18-.72.02-.07.05-.11.11-.11.2.15.28.05.37-.24.32l-.03.04c.09.27-.01.43-.28.5-4.44,6.39-8.7,12.91-12.82,19.51-.52.83-1.06,1.64-1.6,2.44,1.39,1.25,2.81,2.47,4.29,3.63.56.02.84.45,1.18.79,0,0-.11.11-.11.11.12.18.23.37.35.55.21,0,.33.11.33.33,0,0,.04.03.04.03.22-.03.33.06.34.29,0,0,.08.06.08.06.22-.02.29.11.28.3,0,0,.08.06.08.06.16-.05.28-.02.29.18.05.12.14.18.27.2,0,0,0,0,0,0,.33.32.62.71,1.13.78.22-.18.41-.41.73-.42,1.02-1.52,2.09-3.02,3.06-4.57,3.8-6.11,7.74-12.13,11.85-18.04-.01-.21.07-.36.26-.47,0,0,.03-.04.03-.04.07-.1.15-.2.22-.3,0-.08.04-.14.1-.18,2.23-3.68,4.85-7.08,7.41-10.52,4.54-6.11,9.25-12.08,14.26-17.8-4.55,2.43-8.96,5.1-13.19,8.06Z" style="fill:#8989e0; stroke-width:0px;"/><path d="m366.91,373.6c-.79.1-1.15-.53-1.61-.97-4.83-4.61-9.92-8.89-15.21-12.96-5.58-4.29-11.64-7.75-17.82-11.06-.1-.05-.2-.1-.3-.15,8.1,9.09,15.34,18.85,22.23,28.88.54.79,1.21,1.51,1.55,2.43,5.02,6.86,9.54,14.04,13.86,21.35,1.53-.89,2.97-1.88,3.9-3.44.56-.15.89-.62,1.29-.97,1.56-1.36,3.1-2.75,4.63-4.14-3.93-6.48-8.04-12.85-12.52-18.97Z" style="fill:#8989e0; stroke-width:0px;"/><path d="m425.75,236.21c1.7-6.5,2.54-13.12,3.08-19.81.54-6.63.39-13.25.25-19.88-.02-.72.04-1.44.06-2.15-.47-2.26-.38-4.57-.59-6.85-.72-7.92-2.23-15.69-3.97-23.45-1.93-8.58-4.14-17.07-6.48-25.54l-4.58-.03c-2.33,1.1-4.73,2.07-7.25,2.85-1.44.45-2.87.91-4.3,1.36-1.79.26-3.57.53-5.56.82.82,2.51,1.58,4.92,2.41,7.31,1.35,3.89,3.14,7.62,4.24,11.6,2.16,7.83,4.2,15.68,5.99,23.61,1.61,7.17,3.01,14.35,3.67,21.68.19,2.11.12,4.25.55,6.33-.02.66-.07,1.33-.05,1.99.13,6.13.27,12.25-.23,18.38-.5,6.18-1.27,12.31-2.85,18.32-4.02,15.37-10.52,29.56-20.07,42.31-1.94,2.59-3.96,5.1-6.1,7.51,2-1.54,3.96-3.13,5.86-4.82,5.32-4.73,9.93-10.09,14.2-15.78,10.33-13.79,17.36-29.14,21.71-45.76Z" style="fill:#8989e0; stroke-width:0px;"/></g></svg>