<svg xmlns="http://www.w3.org/2000/svg" width="144" height="144" fill="none"><circle cx="9" cy="9" r="1" fill="#fff" fill-opacity=".9"/><circle cx="27" cy="9" r="1" fill="#fff" fill-opacity=".9"/><circle cx="45" cy="9" r="1" fill="#fff" fill-opacity=".9"/><circle cx="63" cy="9" r="1" fill="#fff" fill-opacity=".9"/><circle cx="81" cy="9" r="1" fill="#fff" fill-opacity=".9"/><circle cx="99" cy="9" r="1" fill="#fff" fill-opacity=".9"/><circle cx="117" cy="9" r="1" fill="#fff" fill-opacity=".9"/><circle cx="135" cy="9" r="1" fill="#fff" fill-opacity=".9"/><circle cx="9" cy="27" r="1" fill="#fff" fill-opacity=".9"/><circle cx="27" cy="27" r="1" fill="#fff" fill-opacity=".9"/><circle cx="45" cy="27" r="1" fill="#fff" fill-opacity=".9"/><circle cx="63" cy="27" r="1" fill="#fff" fill-opacity=".9"/><circle cx="81" cy="27" r="1" fill="#fff" fill-opacity=".9"/><circle cx="99" cy="27" r="1" fill="#fff" fill-opacity=".9"/><circle cx="117" cy="27" r="1" fill="#fff" fill-opacity=".9"/><circle cx="135" cy="27" r="1" fill="#fff" fill-opacity=".9"/><circle cx="9" cy="45" r="1" fill="#fff" fill-opacity=".9"/><circle cx="27" cy="45" r="1" fill="#fff" fill-opacity=".9"/><circle cx="45" cy="45" r="1" fill="#fff" fill-opacity=".9"/><circle cx="63" cy="45" r="1" fill="#fff" fill-opacity=".9"/><circle cx="81" cy="45" r="1" fill="#fff" fill-opacity=".9"/><circle cx="99" cy="45" r="1" fill="#fff" fill-opacity=".9"/><circle cx="117" cy="45" r="1" fill="#fff" fill-opacity=".9"/><circle cx="135" cy="45" r="1" fill="#fff" fill-opacity=".9"/><circle cx="9" cy="63" r="1" fill="#fff" fill-opacity=".9"/><circle cx="27" cy="63" r="1" fill="#fff" fill-opacity=".9"/><circle cx="45" cy="63" r="1" fill="#fff" fill-opacity=".9"/><circle cx="63" cy="63" r="1" fill="#fff" fill-opacity=".9"/><circle cx="81" cy="63" r="1" fill="#fff" fill-opacity=".9"/><circle cx="99" cy="63" r="1" fill="#fff" fill-opacity=".9"/><circle cx="117" cy="63" r="1" fill="#fff" fill-opacity=".9"/><circle cx="135" cy="63" r="1" fill="#fff" fill-opacity=".9"/><circle cx="9" cy="81" r="1" fill="#fff" fill-opacity=".9"/><circle cx="27" cy="81" r="1" fill="#fff" fill-opacity=".9"/><circle cx="45" cy="81" r="1" fill="#fff" fill-opacity=".9"/><circle cx="63" cy="81" r="1" fill="#fff" fill-opacity=".9"/><circle cx="81" cy="81" r="1" fill="#fff" fill-opacity=".9"/><circle cx="99" cy="81" r="1" fill="#fff" fill-opacity=".9"/><circle cx="117" cy="81" r="1" fill="#fff" fill-opacity=".9"/><circle cx="135" cy="81" r="1" fill="#fff" fill-opacity=".9"/><circle cx="9" cy="99" r="1" fill="#fff" fill-opacity=".9"/><circle cx="27" cy="99" r="1" fill="#fff" fill-opacity=".9"/><circle cx="45" cy="99" r="1" fill="#fff" fill-opacity=".9"/><circle cx="63" cy="99" r="1" fill="#fff" fill-opacity=".9"/><circle cx="81" cy="99" r="1" fill="#fff" fill-opacity=".9"/><circle cx="99" cy="99" r="1" fill="#fff" fill-opacity=".9"/><circle cx="117" cy="99" r="1" fill="#fff" fill-opacity=".9"/><circle cx="135" cy="99" r="1" fill="#fff" fill-opacity=".9"/><circle cx="9" cy="117" r="1" fill="#fff" fill-opacity=".9"/><circle cx="27" cy="117" r="1" fill="#fff" fill-opacity=".9"/><circle cx="45" cy="117" r="1" fill="#fff" fill-opacity=".9"/><circle cx="63" cy="117" r="1" fill="#fff" fill-opacity=".9"/><circle cx="81" cy="117" r="1" fill="#fff" fill-opacity=".9"/><circle cx="99" cy="117" r="1" fill="#fff" fill-opacity=".9"/><circle cx="117" cy="117" r="1" fill="#fff" fill-opacity=".9"/><circle cx="135" cy="117" r="1" fill="#fff" fill-opacity=".9"/><circle cx="9" cy="135" r="1" fill="#fff" fill-opacity=".9"/><circle cx="27" cy="135" r="1" fill="#fff" fill-opacity=".9"/><circle cx="45" cy="135" r="1" fill="#fff" fill-opacity=".9"/><circle cx="63" cy="135" r="1" fill="#fff" fill-opacity=".9"/><circle cx="81" cy="135" r="1" fill="#fff" fill-opacity=".9"/><circle cx="99" cy="135" r="1" fill="#fff" fill-opacity=".9"/><circle cx="117" cy="135" r="1" fill="#fff" fill-opacity=".9"/><circle cx="135" cy="135" r="1" fill="#fff" fill-opacity=".9"/></svg>