<?xml version="1.0" encoding="utf-8"?>
<!-- Generator: Adobe Illustrator 27.9.0, SVG Export Plug-In . SVG Version: 6.00 Build 0)  -->
<svg version="1.1" id="Layer_1" xmlns="http://www.w3.org/2000/svg" xmlns:xlink="http://www.w3.org/1999/xlink" x="0px" y="0px"
	 viewBox="0 0 128 128" style="enable-background:new 0 0 128 128;" xml:space="preserve">
<style type="text/css">
	.st0{fill:#CCC5FF;}
	.st1{fill:#FFFFFF;}
</style>
<path class="st0" d="M59.1,18.9c0,3.8-0.8,7.6-2.4,11.1c-1.7,3.5-4.1,6.6-7,9.1c-0.5,0.4-0.1,1.2,0.5,1c5.7-2.1,13.3-8.5,10.1-21.3
	C60.1,18.1,59.1,18.3,59.1,18.9z M63,18.9c2.1,3.2,3.4,6.9,3.8,10.7c0.5,3.8,0.1,7.6-1.1,11.2c-0.2,0.6,0.5,1.1,0.9,0.6
	c3.7-4.5,6.9-13.6-2.7-23.3C63.4,17.7,62.6,18.3,63,18.9L63,18.9z M67.6,18.7c3.2,2.2,5.9,5,7.9,8.3c2,3.3,3.2,7,3.6,10.8
	c0,0.1,0,0.3,0.1,0.4c0.2,0.2,0.5,0.3,0.8,0.1c0.1-0.1,0.2-0.2,0.2-0.3c1.6-5.7,0.7-15.3-12.1-20.4C67.5,17.3,67.1,18.2,67.6,18.7
	L67.6,18.7z M36.5,35.6c3.8-1.1,7.4-3,10.4-5.5c3-2.5,5.5-5.6,7.2-9.1c0.3-0.6,1.3-0.4,1.1,0.3c-2.9,13-12.7,15.7-18.7,15.4
	C35.9,36.6,35.9,35.7,36.5,35.6z"/>
<path class="st0" d="M64,116.8C29.1,116.8,0.8,94.9,0.8,68c0-16.2,10.4-31.4,27.9-40.5c5.1-2.6,9.4-5.2,13.2-7.5
	c2.1-1.3,4.1-2.5,6.1-3.6c5.9-3.4,11-5.6,16-5.6s9.5,2,15,5.1c1.7,0.9,3.4,1.9,5.2,3c4.2,2.5,8.9,5.3,15.2,8.6
	c17.4,9.1,27.9,24.2,27.9,40.5C127.2,94.9,98.8,116.8,64,116.8z M64,14.8c-4.1,0-8.4,2-13.9,5.1c-1.9,1.1-3.9,2.3-6,3.5
	c-3.9,2.3-8.4,5-13.5,7.6C14.6,39.4,5,53.2,5,68c0,24.7,26.5,44.8,59,44.8s59-20.1,59-44.8c0-14.8-9.6-28.5-25.6-36.9
	C91,27.8,86,24.8,82,22.4c-1.8-1.1-3.5-2.1-5.1-3C71.8,16.5,68.1,14.8,64,14.8z"/>
<path class="st0" d="M57.3,87.6c1.9,1.8,4.4,2.8,6.9,3.1c2.6-0.2,5-1.3,6.9-3.1c0.6-0.5,1.2-1.1,1.7-1.7c-1-1.1-2.3-2.1-3.7-2.7
	c-1.4-0.6-3-1-4.5-1.1c-1.7,0-3.3,0.5-4.8,1.3c-1.5,0.8-2.7,1.9-3.6,3.3C56.5,87,56.8,87.3,57.3,87.6z"/>
<path class="st0" d="M57.5,86.3c0.9-1,2-1.9,3.2-2.5c1.3-0.6,2.6-0.9,4-0.9c2.6,0.1,5,1,6.9,2.7c0.4-0.4,0.8-0.8,1.1-1.3
	c-2.2-2-5.1-3.1-8.1-3.1c-1.6,0-3.2,0.4-4.7,1c-1.4,0.7-2.7,1.6-3.8,2.8C56.6,85.6,57,86,57.5,86.3z"/>
<path class="st0" d="M64.1,91.5c-2.8-0.2-5.4-1.4-7.5-3.3c-2.6-2.1-4.4-5-5.2-8.2c-0.1-0.3,0-0.6,0-0.9c0.1-0.3,0.2-0.5,0.4-0.8
	c0.2-0.3,0.5-0.5,0.9-0.6c0.3-0.1,0.7-0.2,1.1-0.2h20.8c0.4,0,0.7,0.1,1,0.2c0.3,0.1,0.6,0.4,0.9,0.6c0.2,0.2,0.3,0.5,0.4,0.8
	c0.1,0.3,0.1,0.6,0,0.9c-0.8,3.2-2.6,6.1-5.2,8.2C69.6,90.1,66.9,91.3,64.1,91.5z M53.7,79.5c-0.3,0-0.3,0.1-0.4,0.1
	c0.7,2.8,2.3,5.3,4.6,7.1c1.7,1.6,3.8,2.6,6.2,2.8c2.3-0.3,4.5-1.2,6.2-2.8c2.3-1.8,3.9-4.3,4.6-7.1c0-0.1-0.1-0.1-0.1-0.1
	c-0.1,0-0.1,0-0.2,0L53.7,79.5z"/>
<path class="st0" d="M43.3,73c1.8,0,3.6-0.5,5.2-1.5c1.5-1,2.7-2.4,3.4-4c0.7-1.6,0.9-3.4,0.5-5.2c-0.4-1.8-1.2-3.4-2.5-4.6
	c-1.3-1.3-3-2.1-4.8-2.5c-1.8-0.3-3.7-0.2-5.4,0.5c-1.7,0.7-3.1,1.8-4.2,3.3c-1,1.5-1.6,3.2-1.6,5c0,2.4,1,4.6,2.7,6.3
	C38.4,72.1,40.8,73,43.3,73z M85,73c1.8,0,3.6-0.5,5.2-1.5c1.5-1,2.7-2.4,3.4-4c0.7-1.6,0.9-3.4,0.6-5.2c-0.4-1.8-1.2-3.4-2.5-4.6
	c-1.3-1.3-3-2.1-4.8-2.5c-1.8-0.4-3.7-0.2-5.4,0.5c-1.7,0.7-3.1,1.8-4.2,3.3c-1,1.5-1.6,3.2-1.6,5c0,2.4,1,4.6,2.7,6.3
	C80.2,72,82.6,73,85,73z"/>
<path class="st1" d="M40.4,64.6c0.7,0,1.4-0.2,1.9-0.6c0.6-0.4,1-0.9,1.3-1.5c0.3-0.6,0.3-1.3,0.2-1.9c-0.1-0.7-0.5-1.3-0.9-1.7
	c-0.5-0.5-1.1-0.8-1.8-0.9c-0.7-0.1-1.4-0.1-2,0.2c-0.6,0.2-1.2,0.7-1.6,1.2c-0.4,0.5-0.6,1.2-0.6,1.9c0,0.9,0.4,1.7,1,2.4
	C38.6,64.3,39.5,64.6,40.4,64.6L40.4,64.6z M82.1,64.6c0.7,0,1.4-0.2,1.9-0.6c0.6-0.4,1-0.9,1.3-1.5c0.3-0.6,0.3-1.3,0.2-1.9
	c-0.1-0.7-0.5-1.3-0.9-1.7c-0.5-0.5-1.1-0.8-1.8-0.9c-0.7-0.1-1.4-0.1-2,0.2c-0.6,0.2-1.2,0.7-1.6,1.2c-0.4,0.5-0.6,1.2-0.6,1.9
	c0,0.9,0.4,1.7,1,2.4C80.3,64.2,81.2,64.6,82.1,64.6L82.1,64.6z"/>
</svg>
