<?xml version="1.0" encoding="UTF-8"?><svg id="uuid-62058a7e-9eae-4c89-b400-a8134a378fa6" xmlns="http://www.w3.org/2000/svg" viewBox="0 0 409.73 404.77"><rect x="0" y="0" width="409.73" height="404.77" rx="202.38" ry="202.38" style="fill:#272c4c; stroke-width:0px;"/><path d="m389.26,167.09c-2.35-13.52-6.11-26.62-11.36-39.3-1.4-3.37-2.93-6.69-4.4-10.03-.72-.32-.97.36-1.33.68-5.39,4.73-11.4,8.4-18.28,10.54-1.19.37-2.37.75-3.56,1.12-1.48.22-2.95.43-4.59.68.68,2.07,1.31,4.07,1.99,6.04,1.11,3.22,2.6,6.3,3.51,9.59,1.79,6.47,3.47,12.96,4.95,19.51,1.33,5.92,2.49,11.86,3.03,17.91.16,1.74.1,3.51.45,5.23-.02.55-.05,1.1-.04,1.65.11,5.06.22,10.12-.19,15.19-.41,5.11-1.05,10.17-2.35,15.13-3.33,12.7-8.69,24.42-16.59,34.96-3.26,4.35-6.78,8.45-10.85,12.06-7.91,7.04-16.93,12.3-26.66,16.38-3.83,1.61-7.73,3.04-11.59,4.55.51-.03.88.18,1.19.48-.31-.3-.68-.51-1.19-.48-.57.06-1.09.24-1.57.55-2.09.51-4.17,1.06-6.19,1.83,2.73,2.06,5.04,4.56,7.33,7.06,7.32,7.98,13.76,16.65,19.89,25.56.45.65,1,1.25,1.28,2.01,4.15,5.67,7.89,11.6,11.46,17.64,1.27-.73,2.46-1.55,3.22-2.85.46-.12.73-.51,1.07-.8,7.28-6.33,14.06-13.16,20.23-20.58,27.1-32.56,41.69-70.02,43.71-112.33.64-13.41-.26-26.75-2.56-39.99Z" style="fill:#9797ff; stroke-width:0px;"/><path d="m127.25,290.94c-1.9-.53-3.79-1.06-5.69-1.59-.35-.28-.76-.38-1.19-.42-.17-.22-.44-.22-.67-.3-6.63-2.43-13.19-5.02-19.47-8.3-7.38-3.86-14.15-8.55-20.15-14.32-4.28-4.11-7.92-8.77-11.23-13.69-11.76-17.48-17.36-36.71-16.63-57.78.02-.45.1-.9-.06-1.34.04-.55.11-1.09.12-1.64.07-5.62.71-11.2,1.57-16.75.51-3.32,1.43-6.55,2.12-9.84,1.48-7.01,3.26-13.95,5.44-20.77,1.28-4,3.08-7.82,4.27-11.87.15-.51.4-1,.36-1.67-1.51-.03-2.91-.42-4.35-.56-.37-.13-.74-.28-1.13-.38-2.74-.76-5.44-1.66-8.03-2.86-5.16-2.4-9.78-5.6-13.93-9.49-.37-.34-.6-.98-1.3-.83-.22.5-.42,1.01-.66,1.51-11.1,23.06-17.15,47.4-18.26,72.95-.43,9.83-.1,19.65,1.05,29.44,1.01,8.62,2.51,17.15,4.72,25.54,9.19,34.91,26.99,64.72,53.21,89.51,2.15,2.03,4.32,4.05,6.65,5.87.46.01.69.38.98.65,0,0-.09.09-.09.09.1.15.19.3.29.45.18,0,.27.09.27.27,0,0,.03.03.03.03.18-.02.27.05.28.24,0,0,.07.05.07.05.18-.01.24.09.23.25,0,0,.06.05.06.05.13-.04.23-.02.24.15.04.1.12.15.22.17,0,0,0,0,0,0,.28.27.51.58.93.64.18-.14.34-.34.6-.35.84-1.26,1.73-2.49,2.53-3.78,3.14-5.05,6.4-10.02,9.79-14.91,0-.17.06-.3.21-.38,0,0,.03-.03.03-.03.06-.08.12-.16.18-.25,0-.07.03-.12.09-.15,1.84-3.04,4.01-5.85,6.12-8.7,5.31-7.15,10.89-14.08,17.1-20.48,1.15-1.18,2.38-2.29,3.57-3.43.24-.23.61-.41.41-.85-.29-.06-.58-.09-.87-.17Z" style="fill:#9797ff; stroke-width:0px;"/><path d="m282.93,29.02c-.42-.23-.94-.31-1.23-.76-.19-.01-.38-.03-.57-.04-.17.02-.28-.06-.35-.2-.71-.16-1.3-.71-2.08-.66-.67-.38-1.32-.8-2.13-.8-.11-.11-.22-.22-.33-.33-1.95-.77-3.9-1.57-5.86-2.31-18.11-6.76-36.84-10.58-56.13-11.51-12-.57-23.96-.04-35.86,1.68-10.78,1.56-21.34,4.03-31.69,7.4-3.9,1.27-7.72,2.77-11.57,4.17,0,.1,0,.19-.03.29-.88.07-1.65.48-2.41.87-1,0-1.76.74-2.71.89-.35.38-.84.47-1.28.65-.4.16-.85.31-.84.87.84.93,1.69,1.85,2.53,2.78,5.39,5.95,10.03,12.38,13.08,19.87.04.09.08.19.11.28.16.42.45.49.84.3.23-.11.46-.19.69-.29,16.66-7,34.14-10.08,52.1-10.83,11.6-.48,23.15.21,34.63,1.96,9.58,1.46,18.98,3.67,28.16,6.75,2.32.78,4.61,1.69,6.91,2.52,1.06.38,1.16.33,1.52-.68.83-2.27,1.94-4.4,3.15-6.48,3.32-5.71,7.41-10.83,11.93-15.62.01-.41-.26-.59-.58-.76Z" style="fill:#9797ff; stroke-width:0px;"/><path d="m68.84,252.32c-11.76-17.48-17.36-36.71-16.63-57.78.02-.45.1-.9-.06-1.34.04-.55.11-1.1.12-1.64.07-5.62.71-11.2,1.57-16.75.51-3.32,1.43-6.55,2.12-9.84,1.48-7.01,3.26-13.95,5.44-20.77,1.28-4,3.08-7.82,4.27-11.87.15-.51.4-1,.36-1.67-1.51-.03-2.91-.42-4.35-.56-.37-.13-.74-.28-1.13-.38-2.74-.76-5.44-1.66-8.03-2.86-.93-.43-1.84-.9-2.73-1.38-2.18,6.99-4,14.08-5.51,21.25-.75,3.55-1.74,7.05-2.29,10.64-.93,6-1.62,12.03-1.69,18.11,0,.59-.08,1.18-.13,1.78.18.48.08.97.06,1.45-.79,22.79,5.28,43.59,17.99,62.5,3.58,5.33,7.53,10.36,12.15,14.81,1.14,1.09,2.31,2.14,3.5,3.17-1.77-2.21-3.44-4.5-5.03-6.86Z" style="fill:#8989e0; stroke-width:0px;"/><path d="m184.77,360.58c-.72,3.78-1.41,7.56-2.12,11.34-.7,3.73-1.41,7.46-2.09,11.19-.12.66-.23.29-.89.63-.62-.52-1.42.53-2.12.44-3.61-.47-7.17-1.17-10.73-1.88-5.68-1.14-11.26-2.64-16.8-4.31-3.59-1.08-7.12-2.35-10.64-3.64-7.62-2.8-14.98-6.2-22.14-10.02-6.84-3.65-13.45-7.68-19.77-12.2-2.84-2.03-5.65-4.1-8.43-6.23-.45-.34-.87-.67-1.06-1.22-.18-.24.14-.39.12-.61.84-1.26,1.73-2.49,2.53-3.78,3.14-5.05,6.4-10.02,9.79-14.91.2-.06.28-.18.21-.39l.03-.03c.22.04.3-.04.18-.25,0-.07.03-.12.09-.15.19.12.37.12.55-.02,1.63-1.32,3.33-2.55,4.86-3.98,2.64-2.45,5.53-4.6,8.47-6.66,5.17-3.62,10.68-6.65,16.41-9.31,5.14-2.39,10.46-4.24,15.89-5.8,5.92-1.7,11.95-2.7,18.14-2.6.18,0,.37-.04.55-.07-1.47-.32-2.94-.47-4.41-.65-2.17-.25-4.35-.52-6.52-.78-1.28-.15-2.57-.31-3.85-.47-2.12-.25-4.25-.5-6.37-.74-1.29-.14-2.58-.2-3.87-.37-3.2-.43-6.35-1.19-9.58-1.49-1.02-.1-2.1-.1-3.07-.53-.29-.06-.58-.09-.87-.17-1.9-.53-3.79-1.06-5.69-1.59-.35-.28-.76-.38-1.2-.42-.17-.22-.44-.22-.67-.3-6.63-2.43-13.19-5.02-19.47-8.3-7.38-3.86-14.15-8.55-20.15-14.32-4.28-4.11-7.92-8.77-11.23-13.69-11.76-17.48-17.36-36.71-16.63-57.78.02-.45.1-.9-.06-1.34.04-.55.11-1.1.12-1.64.07-5.62.71-11.2,1.57-16.75.51-3.32,1.43-6.55,2.12-9.84,1.48-7.01,3.26-13.95,5.44-20.77,1.28-4,3.08-7.82,4.27-11.87.15-.51.4-1,.36-1.67-1.51-.03-2.91-.42-4.35-.56-.37-.13-.74-.28-1.13-.38-2.74-.76-5.44-1.66-8.03-2.86-5.16-2.4-9.78-5.6-13.93-9.49-.37-.34-.6-.98-1.3-.83-.14-.96-.86-1.6-1.47-2.2-2.83-2.82-5-6.09-6.78-9.62-1.85-3.66-3.2-7.53-3.76-11.6-.33-2.4-.64-4.85-.25-7.3.17-.98.34-1.97.51-2.95.66-3.76,1.61-7.44,3.31-10.89,2.81-5.71,7.06-9.62,13.48-10.94,3.26-.67,6.34-1.92,9.06-3.88,2.85-2.05,5.56-4.29,8-6.83,4.8-4.99,9.41-10.15,13.99-15.33,5.18-5.85,10.73-11.25,17.92-14.65,5.06-2.39,10.26-3.59,15.88-2.45,7.17,1.46,13.35,4.77,18.76,9.62.63.56,1.16,1.25,1.91,1.68.84.93,1.69,1.85,2.53,2.78,5.39,5.95,10.03,12.38,13.08,19.87.04.09.08.19.11.28.16.42.45.49.84.3.23-.11.46-.19.69-.29,16.66-7,34.14-10.08,52.1-10.83,11.6-.48,23.15.21,34.63,1.96,9.58,1.46,18.98,3.67,28.16,6.75,2.32.78,4.61,1.69,6.91,2.52,1.06.38,1.16.33,1.52-.68.83-2.27,1.94-4.4,3.15-6.48,3.32-5.71,7.41-10.83,11.93-15.62.58-.32.97-.86,1.43-1.3,5.25-5.02,11.33-8.51,18.41-10.28,5.88-1.47,11.43-.55,16.8,1.96,5,2.34,9.35,5.6,13.27,9.48,4.14,4.09,7.83,8.59,11.77,12.87,4.21,4.57,8.31,9.23,13.21,13.13,3.45,2.74,7.26,4.59,11.54,5.52,4.61,1,8.24,3.47,10.99,7.31,2.56,3.58,3.92,7.63,4.92,11.85.41,1.75.49,3.57,1.1,5.28.15,1.49.18,2.97-.11,4.46-.25,1.26-.09,2.57-.33,3.86-.93,5.02-2.81,9.64-5.44,14-1.82,3.02-4.1,5.64-6.6,8.09-.5.49-1.08.93-.98,1.76-.72-.32-.97.36-1.33.68-5.39,4.73-11.4,8.4-18.28,10.54-1.19.37-2.37.75-3.56,1.12-1.48.22-2.95.43-4.59.68.68,2.07,1.31,4.07,1.99,6.04,1.11,3.22,2.6,6.3,3.51,9.59,1.79,6.47,3.47,12.96,4.95,19.51,1.33,5.92,2.49,11.86,3.03,17.91.16,1.74.1,3.51.45,5.23-.02.55-.05,1.1-.04,1.65.11,5.06.22,10.12-.19,15.19-.41,5.11-1.05,10.17-2.35,15.13-3.33,12.7-8.69,24.42-16.59,34.96-3.26,4.35-6.78,8.45-10.85,12.06-7.91,7.04-16.93,12.3-26.66,16.38-3.83,1.61-7.73,3.04-11.6,4.55-.57.06-1.09.24-1.57.55-2.09.51-4.17,1.06-6.19,1.83-2.23.2-4.45.48-6.66.87-2.84.51-5.69,1.04-8.56,1.25-2.39.17-4.77.41-7.13.73-3.11.42-6.22.73-9.33,1.11-1.92.23-3.83.48-5.74.72.28.14.57.19.85.17,3.16-.16,6.29.24,9.4.67,3.9.54,7.72,1.56,11.48,2.73,6.12,1.91,12.06,4.26,17.74,7.29,4.72,2.52,9.36,5.17,13.61,8.45,4.04,3.11,7.93,6.38,11.62,9.9.35.34.63.81,1.23.74,4.15,5.67,7.89,11.6,11.46,17.64-.89,1.23-2.17,2.03-3.33,2.95-4.83,3.8-9.87,7.31-15.05,10.61-3.29,2.09-6.66,4.05-10.06,5.95-3.41,1.9-6.92,3.62-10.43,5.32-4.68,2.26-9.48,4.24-14.36,6.06-7.68,2.87-15.53,5.17-23.51,7.02-4.02.93-8.07,1.76-12.17,2.32-1.18.16-2.35.39-3.53.59-.2,0-.41.02-.61.02-.41-2.36-.92-4.7-1.33-7.05-1.02-5.79-2.16-11.56-3.25-17.34m-21.53-183.36c-2.39.14-4.78-.05-7.19.24-3.32.4-6.62.84-9.87,1.58-4.45,1.01-8.75,2.44-12.84,4.5-3.09,1.55-6.05,3.29-8.73,5.52-3.2,2.66-5.95,5.66-7.74,9.43-1.75,3.68-2.65,7.53-1.85,11.62.27,1.37.47,2.76,1.01,4.06,1.98,4.78,5.1,8.67,9.19,11.82,3.15,2.43,6.59,4.37,10.22,5.97,2.23.99,4.53,1.83,6.89,2.52,2.74.79,5.5,1.44,8.3,1.92,3.09.53,6.21.97,9.35,1.01,4.55.05,9.09.12,13.63-.53,2.62-.38,5.24-.77,7.79-1.4,5.45-1.35,10.72-3.2,15.6-6.06,5.04-2.96,9.41-6.58,12.42-11.67,1.55-2.62,2.54-5.45,2.79-8.48.3-3.7-.34-7.26-2.04-10.61-1.96-3.86-4.68-7.06-8.05-9.75-4.35-3.47-9.18-6.03-14.45-7.78-3.51-1.16-7.05-2.18-10.71-2.78-3.65-.61-7.29-1.11-10.99-1.12-.9,0-1.81,0-2.71,0Zm84.93-6.02c-.38-6.41-3.75-12.07-10.63-15.21-8.79-4.01-18.43.93-20.08,10.29-1.22,6.91,1.23,12.65,6.66,17.01,3.92,3.15,8.44,4.34,13.4,3.13,6.32-1.53,10.59-7.27,10.64-15.23Zm-135.87-1.94c0-.4.02-.8,0-1.2-.36-7.07-6.29-14.62-16.16-13.32-9.41,1.25-16.26,11.05-14.54,20.38,1.46,7.9,8.59,12.87,16.49,11.49,8.07-1.4,14.26-8.95,14.2-17.36Zm-85.88-38.25c1.18,1.26,2.77,1.78,4.37,1.9,3.96.3,7.88.03,11.69-1.32,6.35-2.25,11.66-6.11,16.56-10.6,2.81-2.57,5.3-5.44,7.61-8.47,2.56-3.35,4.75-6.93,6.67-10.67,1.41-2.75,2.64-5.61,3.65-8.54.86-2.5,1.71-5,2.27-7.61.59-2.78,1.15-5.55,1.52-8.38.36-2.77.68-5.54.77-8.33.08-2.44,0-4.89-.18-7.34-.24-3.39-.64-6.74-1.29-10.07-.21-1.08-.57-2.12-1.04-3.12-.28-.59-1.03-.89-1.36-.62-.43.36-.04.76.06,1.09.81,2.49,1.25,5.03,1.16,7.66-.05,1.4-.06,2.81,0,4.21.14,3.42-.4,6.79-1.01,10.11-.95,5.1-2.33,10.12-4.16,14.99-.97,2.57-1.98,5.14-3.16,7.62-2.41,5.06-5,10.02-8.16,14.68-2.34,3.44-4.83,6.74-7.62,9.81-3.58,3.93-7.52,7.48-12.19,10.12-3.52,1.99-7.21,3.43-11.37,3.34-1.6-.03-3.17-.13-4.79-.48Zm276.34.52c-.34-.51-.69-.32-1.02-.27-2.72.48-5.37.26-7.96-.72-4.08-1.54-7.66-3.93-10.85-6.84-4.78-4.36-9.09-9.17-12.73-14.54-2.1-3.11-4.1-6.28-5.92-9.57-3.03-5.5-5.55-11.2-7.62-17.12-1.62-4.63-2.87-9.36-3.7-14.18-.54-3.09-.93-6.21-.99-9.36-.03-1.4-.11-2.82.03-4.21.19-1.87.09-3.79.77-5.61.28-.74.39-1.55.59-2.32.07-.25.14-.52-.09-.69-.29-.21-.59-.08-.81.15-.21.21-.38.46-.54.71-.4.64-.65,1.36-.82,2.09-.92,4-1.5,8.05-1.52,12.15-.02,3.65-.2,7.3.22,10.96.25,2.17.38,4.39.76,6.53.65,3.67,1.51,7.32,2.72,10.87,1.77,5.18,3.96,10.16,6.7,14.9,2.51,4.34,5.46,8.39,8.85,12.06,4.25,4.61,8.88,8.81,14.31,12.03,4.82,2.86,9.9,4.82,15.63,4.39,1.43-.11,2.78-.53,3.98-1.42Zm-206.15-4.28c-.45,0-.91-.04-1.35.01-.44.05-.87.21-1.32.26-4.11.53-7.44,2.5-10.16,5.53-.89.99-1.65,2.11-1.78,3.54-.04.42.1.66.36.91.32.31.63.17.96.02.37-.18.67-.45.93-.75,1.28-1.48,3-2.37,4.74-3.07,3.72-1.49,7.58-2.45,11.66-2.25,1.52.07,2.96.36,4.33.98.41.19.76.31,1.07-.07.33-.4.3-.85-.01-1.24-.28-.35-.6-.68-.95-.96-2.46-2-5.31-2.89-8.45-2.91Zm133.2,4.51c1.89-.03,3.67.27,5.42.61,4.02.8,7.73,2.31,10.83,5.08.36.33.69.82,1.27.48.54-.31.39-.87.4-1.36,0-.37-.17-.68-.34-.98-2.22-3.84-5.61-6.21-9.79-7.4-2.14-.61-4.35-.81-6.64-.41-2.83.5-5.22,1.6-7.17,3.69-.33.35-.59.72-.22,1.18.31.38.69.29,1.09.11,1.66-.78,3.42-1.07,5.15-1.01Z" style="fill:#ffd6e7; stroke-width:0px;"/><path d="m386.96,85.58c-.61-1.71-.69-3.53-1.1-5.28-1-4.22-2.36-8.27-4.92-11.85-2.75-3.84-6.38-6.31-10.99-7.31-4.28-.93-8.1-2.78-11.54-5.52-4.9-3.89-9-8.56-13.21-13.13-3.94-4.27-7.63-8.77-11.77-12.87-3.92-3.87-8.27-7.14-13.27-9.48-5.38-2.51-10.93-3.43-16.8-1.96-7.08,1.77-13.16,5.26-18.41,10.28-.47.45-.85.98-1.43,1.3.01-.41-.26-.59-.58-.76-.42-.23-.94-.31-1.23-.76,0-.51.4-.78.7-1.1.47-.51.95-1.02,1.42-1.53,2.3-2.08,4.59-4.19,7.21-5.88,5.09-3.29,10.58-5.46,16.64-6.07,1.05-.11,2.09-.1,3.15.01,4.83.52,9.19,2.3,13.34,4.77,2.52,1.5,4.81,3.27,6.98,5.21,2.54,2.28,4.93,4.71,7.19,7.27,4.44,5.04,8.93,10.04,13.56,14.91,2.5,2.63,5.24,4.97,8.13,7.14,2.81,2.11,5.98,3.5,9.4,4.19,6.78,1.37,11.21,5.53,13.98,11.63,2.41,5.32,3.53,10.95,3.57,16.79Z" style="fill:#756aea; stroke-width:0px;"/><path d="m127.85,29.22c-.75-.43-1.28-1.11-1.91-1.68-5.41-4.85-11.59-8.16-18.76-9.62-5.62-1.14-10.83.06-15.88,2.45-7.19,3.4-12.74,8.79-17.92,14.65-4.59,5.18-9.19,10.34-13.99,15.33-2.44,2.54-5.15,4.78-8,6.83-2.72,1.96-5.8,3.21-9.06,3.88-6.42,1.31-10.67,5.23-13.48,10.94-1.7,3.45-2.65,7.13-3.31,10.89-.17.98-.34,1.97-.51,2.95-.01-7.9,1.64-15.33,6.38-21.82,2.48-3.4,5.83-5.6,9.96-6.54,2.9-.66,5.71-1.55,8.29-3.05,2.97-1.72,5.57-3.94,8.03-6.29,3.27-3.11,6.26-6.49,9.31-9.82,4.13-4.51,8.01-9.25,12.45-13.48,3.74-3.56,7.91-6.46,12.57-8.66,6.28-2.96,12.71-3.29,19.29-1.06,6.09,2.07,11.43,5.3,15.96,9.86.97.84,1.96,1.65,2.71,2.71-.35.38-.84.47-1.28.65-.4.16-.85.31-.84.87Z" style="fill:#756aea; stroke-width:0px;"/><path d="m84.97,342.03s-.09.09-.09.09c-.38-.15-.67-.4-.88-.74.46.01.69.38.98.65Z" style="fill:#474546; stroke-width:0px;"/><path d="m87.5,344.43c.18-.14.34-.34.6-.35.02.22-.29.37-.12.61-.22.02-.34-.13-.48-.26Z" style="fill:#474546; stroke-width:0px;"/><path d="m85.16,342.57c.18,0,.27.09.27.27-.19,0-.29-.08-.27-.27Z" style="fill:#474546; stroke-width:0px;"/><path d="m85.47,342.87c.18-.02.27.05.28.24-.18.02-.26-.06-.28-.24Z" style="fill:#474546; stroke-width:0px;"/><path d="m85.81,343.16c.18-.01.24.09.23.25-.15-.01-.23-.09-.23-.25Z" style="fill:#474546; stroke-width:0px;"/><path d="m86.11,343.46c.13-.04.23-.02.24.15-.13.03-.21-.01-.24-.15Z" style="fill:#474546; stroke-width:0px;"/><polygon points="86.57 343.78 86.56 343.79 86.55 343.84 86.57 343.78" style="fill:#474546; stroke-width:0px;"/><path d="m204.42,176.7c.9,0,1.81,0,2.71,0,3.7.02,7.35.52,10.99,1.12,3.66.61,7.2,1.62,10.71,2.78,5.27,1.75,10.1,4.31,14.45,7.78,3.37,2.69,6.09,5.89,8.05,9.75,1.7,3.35,2.34,6.91,2.04,10.61-.24,3.03-1.24,5.86-2.79,8.48-3.01,5.09-7.39,8.71-12.42,11.67-4.88,2.87-10.16,4.71-15.6,6.06-2.55.63-5.17,1.02-7.79,1.4-4.54.65-9.08.59-13.63.53-3.14-.04-6.26-.48-9.35-1.01-2.8-.48-5.56-1.13-8.3-1.92-2.36-.69-4.66-1.53-6.89-2.52-3.62-1.6-7.06-3.54-10.22-5.97-4.09-3.15-7.2-7.05-9.19-11.82-.54-1.3-.74-2.69-1.01-4.06-.8-4.09.1-7.95,1.85-11.62,1.79-3.77,4.54-6.77,7.74-9.43,2.68-2.23,5.63-3.96,8.73-5.52,4.09-2.06,8.39-3.48,12.84-4.5,3.26-.74,6.56-1.18,9.87-1.58,2.41-.29,4.8-.11,7.19-.24Zm20.69,30.64c.09-1.21-.13-2.39-.29-3.57-.26-1.88-.59-3.73-1.52-5.43-.48-.88-1.01-1.69-2.08-1.72-1.08-.02-1.62.78-2.11,1.65-1.35,2.43-1.61,5.11-1.8,7.79-.14,1.94-.09,3.89.28,5.82.35,1.81.69,3.62,1.66,5.24.47.79,1.04,1.4,1.97,1.39.86-.01,1.48-.54,1.85-1.33.3-.63.61-1.26.85-1.91.97-2.56,1-5.26,1.18-7.93Zm-31.32.8c0-1.17.06-2.07-.01-2.97-.18-2.19-.5-4.36-1.56-6.34-1.12-2.11-2.76-2.21-4.11-.23-.22.33-.46.67-.6,1.03-.69,1.78-1.15,3.64-1.21,5.53-.08,2.59-.22,5.19.25,7.78.31,1.68.69,3.31,1.56,4.81.88,1.51,2.94,1.54,3.79.02.27-.48.49-.99.68-1.5,1.01-2.71,1.36-5.51,1.2-8.12Z" style="fill:#ffafca; stroke-width:0px;"/><path d="m153.49,168.75c.05,8.41-6.13,15.95-14.2,17.36-7.91,1.38-15.03-3.59-16.49-11.49-1.73-9.34,5.12-19.14,14.54-20.38,9.87-1.31,15.79,6.24,16.16,13.32.02.4,0,.8,0,1.2Z" style="fill:#1a1a3d; stroke-width:0px;"/><path d="m67.61,130.5c1.61.34,3.18.44,4.79.48,4.16.08,7.84-1.35,11.37-3.34,4.67-2.64,8.61-6.19,12.19-10.12,2.79-3.06,5.28-6.37,7.62-9.81,3.17-4.66,5.76-9.62,8.16-14.68,1.18-2.48,2.19-5.04,3.16-7.62,1.83-4.87,3.21-9.88,4.16-14.99.62-3.32,1.16-6.69,1.01-10.11-.06-1.4-.05-2.81,0-4.21.09-2.63-.36-5.17-1.16-7.66-.11-.33-.5-.73-.06-1.09.34-.28,1.09.03,1.36.62.47.99.83,2.03,1.04,3.12.66,3.33,1.05,6.68,1.29,10.07.18,2.45.26,4.9.18,7.34-.09,2.78-.41,5.56-.77,8.33-.37,2.83-.93,5.6-1.52,8.38-.56,2.6-1.41,5.11-2.27,7.61-1.01,2.93-2.24,5.78-3.65,8.54-1.92,3.74-4.11,7.32-6.67,10.67-2.31,3.03-4.81,5.9-7.61,8.47-4.9,4.49-10.21,8.35-16.56,10.6-3.8,1.34-7.73,1.61-11.69,1.32-1.6-.12-3.19-.64-4.37-1.9Z" style="fill:#ffafca; stroke-width:0px;"/><path d="m343.95,131.02c-1.2.89-2.55,1.31-3.98,1.42-5.73.43-10.81-1.53-15.63-4.39-5.44-3.22-10.06-7.43-14.31-12.03-3.39-3.68-6.34-7.72-8.85-12.06-2.74-4.74-4.94-9.72-6.7-14.9-1.21-3.55-2.07-7.2-2.72-10.87-.38-2.14-.51-4.35-.76-6.53-.42-3.66-.23-7.31-.22-10.96.02-4.1.6-8.15,1.52-12.15.17-.73.42-1.45.82-2.09.16-.25.33-.5.54-.71.22-.23.52-.36.81-.15.23.17.16.44.09.69-.2.77-.32,1.58-.59,2.32-.68,1.82-.58,3.74-.77,5.61-.14,1.39-.05,2.81-.03,4.21.06,3.15.45,6.27.99,9.36.84,4.82,2.08,9.55,3.7,14.18,2.07,5.92,4.59,11.62,7.62,17.12,1.82,3.29,3.82,6.46,5.92,9.57,3.64,5.37,7.95,10.17,12.73,14.54,3.19,2.92,6.77,5.3,10.85,6.84,2.59.98,5.24,1.2,7.96.72.33-.06.68-.25,1.02.27Z" style="fill:#ffafca; stroke-width:0px;"/><path d="m283.64,291.36c2.73,2.06,5.04,4.56,7.33,7.06,7.32,7.98,13.76,16.65,19.89,25.56.45.65,1,1.25,1.28,2.01-.6.07-.88-.4-1.23-.74-3.69-3.52-7.58-6.79-11.62-9.9-4.26-3.28-8.89-5.92-13.61-8.45-5.67-3.03-11.61-5.39-17.74-7.29-3.76-1.17-7.58-2.19-11.48-2.73-3.1-.43-6.24-.82-9.4-.67-.28.01-.57-.04-.85-.17,1.91-.24,3.83-.48,5.74-.72,3.11-.38,6.23-.69,9.33-1.11,2.36-.32,4.75-.55,7.13-.73,2.88-.21,5.72-.74,8.56-1.25,2.21-.39,4.43-.67,6.66-.87Z" style="fill:#fdafca; stroke-width:0px;"/><path d="m100.92,324.57c1.84-3.04,4.01-5.85,6.12-8.7,5.31-7.15,10.89-14.08,17.1-20.48,1.15-1.18,2.38-2.29,3.57-3.43.24-.23.61-.41.41-.85.98.44,2.06.44,3.07.53,3.23.31,6.38,1.06,9.58,1.49,1.28.17,2.58.23,3.87.37,2.13.23,4.25.49,6.37.74,1.28.15,2.57.31,3.85.47,2.17.26,4.34.53,6.52.78,1.47.17,2.94.33,4.41.65-.18.02-.37.07-.55.07-6.19-.1-12.22.91-18.14,2.6-5.43,1.56-10.75,3.41-15.89,5.8-5.73,2.66-11.24,5.69-16.41,9.31-2.94,2.06-5.82,4.2-8.47,6.66-1.53,1.42-3.24,2.66-4.86,3.98-.17.14-.36.14-.55.02Z" style="fill:#fdafca; stroke-width:0px;"/><path d="m137.8,126.74c3.14.02,5.99.91,8.45,2.91.35.28.67.61.95.96.32.39.34.84.01,1.24-.31.38-.66.25-1.07.07-1.37-.62-2.81-.91-4.33-.98-4.08-.2-7.94.75-11.66,2.25-1.74.7-3.46,1.59-4.74,3.07-.26.3-.55.58-.93.75-.33.16-.64.3-.96-.02-.26-.25-.4-.49-.36-.91.13-1.43.9-2.55,1.78-3.54,2.72-3.03,6.06-5,10.16-5.53.44-.06.87-.22,1.32-.26.45-.05.9-.01,1.35-.01Z" style="fill:#ffb8d8; stroke-width:0px;"/><path d="m271,131.25c-1.73-.06-3.49.23-5.15,1.01-.4.19-.78.27-1.09-.11-.37-.46-.11-.83.22-1.18,1.95-2.08,4.35-3.19,7.17-3.69,2.3-.4,4.5-.2,6.64.41,4.18,1.19,7.57,3.55,9.79,7.4.17.3.35.61.34.98-.01.49.14,1.05-.4,1.36-.59.34-.91-.15-1.27-.48-3.1-2.78-6.81-4.28-10.83-5.08-1.75-.35-3.53-.65-5.42-.61Z" style="fill:#ffb8d8; stroke-width:0px;"/><path d="m280.18,204c-.38.9-.73,1.78-1.12,2.65-.78,1.73-1.59,3.46-2.38,5.18-.08.18-.13.39-.25.54-.3.35-.7.39-1.09.2-.43-.2-.54-.57-.36-1.01.24-.55.5-1.09.75-1.64.87-1.91,1.74-3.82,2.62-5.73.12-.27.3-.52.49-.75.2-.23.46-.43.78-.23.3.18.57.41.57.8Z" style="fill:#ffc3d7; stroke:#ffc3d7; stroke-miterlimit:10; stroke-width:3px;"/><path d="m134.49,202.85c-.03.1-.09.35-.19.57-1,2.22-2.01,4.45-3.02,6.67-.1.23-.23.45-.35.66-.28.5-.74.5-1.17.34-.5-.19-.39-.63-.25-1.02.18-.52.39-1.03.61-1.52.87-1.95,1.75-3.91,2.64-5.85.1-.22.27-.42.44-.6.23-.25.47-.59.88-.42.44.19.45.62.42,1.17Z" style="fill:#ffc3d7; stroke:#ffc3d7; stroke-miterlimit:10; stroke-width:3px;"/><path d="m125.4,202.75c.58.03.95.47.72,1.02-.4.96-.67,1.99-1.28,2.86-.22.31-.49.72-.97.44-.4-.23-.71-.55-.47-1.1.39-.91.74-1.85,1.13-2.76.15-.36.48-.48.87-.46Z" style="fill:#ffc3d7; stroke:#ffc3d7; stroke-miterlimit:10; stroke-width:3px;"/><path d="m141.69,206.85c-.41.84-.66,2.02-1.46,2.95-.19.22-.44.47-.76.34-.37-.15-.47-.49-.45-.87.02-.24.01-.52.13-.72.47-.81.61-1.79,1.25-2.52.22-.26.48-.6.87-.44.43.17.48.59.43,1.26Z" style="fill:#ffc3d7; stroke:#ffc3d7; stroke-miterlimit:10; stroke-width:3px;"/><path d="m268.16,207.33c.39-.88.8-1.89,1.26-2.87.18-.39.54-.61.98-.4.42.2.53.6.42,1.01-.27,1.07-.74,2.05-1.3,2.99-.23.39-.63.49-1.04.32-.42-.17-.3-.57-.33-1.04Z" style="fill:#ffc3d7; stroke:#ffc3d7; stroke-miterlimit:10; stroke-width:3px;"/><path d="m286.37,208.21c-.35.87-.55,1.96-1.25,2.84-.26.33-.62.54-1.04.29-.42-.24-.42-.61-.28-1.04.3-.96.74-1.85,1.24-2.71.17-.29.43-.62.83-.51.48.13.51.56.5,1.13Z" style="fill:#ffc3d7; stroke:#ffc3d7; stroke-miterlimit:10; stroke-width:3px;"/><path d="m100.65,324.97c.06-.08.12-.16.18-.25.11.21.04.28-.18.25Z" style="fill:#fdafca; stroke-width:0px;"/><path d="m100.41,325.39c0-.17.06-.3.21-.38.07.21-.01.33-.21.38Z" style="fill:#fdafca; stroke-width:0px;"/><path d="m281.14,28.21c-.17.02-.28-.06-.35-.2.16,0,.27.06.35.2Z" style="fill:#474546; stroke-width:0px;"/><path d="m225.12,207.34c-.18,2.67-.21,5.38-1.18,7.93-.25.65-.56,1.28-.85,1.91-.37.78-.99,1.32-1.85,1.33-.93.01-1.5-.6-1.97-1.39-.97-1.62-1.31-3.43-1.66-5.24-.37-1.93-.42-3.88-.28-5.82.19-2.68.45-5.36,1.8-7.79.49-.88,1.04-1.68,2.11-1.65,1.07.02,1.6.84,2.08,1.72.92,1.7,1.26,3.55,1.52,5.43.16,1.19.39,2.36.29,3.57Z" style="fill:#ff7ab5; stroke-width:0px;"/><path d="m193.8,208.14c.16,2.61-.19,5.42-1.2,8.12-.19.51-.42,1.02-.68,1.5-.85,1.53-2.91,1.49-3.79-.02-.87-1.5-1.26-3.13-1.56-4.81-.47-2.58-.34-5.19-.25-7.78.06-1.89.52-3.75,1.21-5.53.14-.37.38-.7.6-1.03,1.35-1.98,2.99-1.88,4.11.23,1.06,1.99,1.38,4.15,1.56,6.34.07.9.01,1.8.01,2.97Z" style="fill:#ff7ab5; stroke-width:0px;"/><g id="uuid-a61507e6-9ecf-48b5-a48e-649c1a19d367"><path d="m138.19,183.93c-3.73.07-7.01-1.25-9.65-4.02-2.94-3.08-3.71-6.78-2.98-10.87.35-1.95,1.09-3.77,2.03-5.51.27-.5.61-.92,1.15-1.14.56-.23.95-.04,1.05.56.06.34.05.7-.02,1.04-1.2,6.16,3.43,11.35,9.49,11.4.78,0,1.56.11,2.33,0,2.51-.33,4.67,2.51,3.04,5.33-1.3,2.24-3.47,3.33-6.43,3.2Z" style="fill:#131856; stroke-width:0px;"/><path d="m146.83,163.61c.01,1.8-1.25,2.6-2.75,1.76-1.37-.77-2.47-1.85-3.12-3.32-.24-.53-.36-1.08-.15-1.66.25-.7.83-1.1,1.57-.96,1.89.34,3.24,1.47,4.25,3.03.24.37.22.81.2,1.15Z" style="fill:#3ea2e5; stroke-width:0px;"/></g><path d="m201.61,255.63c-3.55-.75-6.59-2.27-8.97-4.79-.34-.36-.63-.75-.88-1.16-.28-.45-.22-.9.23-1.22.43-.3.8-.1,1.22.18,1.42.93,2.99,1.54,4.69,1.96,4.57,1.13,9.11,1.08,13.62.48,2.1-.28,4.22-.76,5.97-1.92.35-.23.74-.44,1.2-.53.41-.08.78-.15,1.08.24.24.31.35.57.22.97-.43,1.37-1.52,2.29-2.72,3.06-3.68,2.34-7.84,3.51-12.58,3.08-.51-.05-1.03.01-1.54-.04-.51-.06-1.02-.2-1.53-.3Z" style="fill:#ff9cc2; stroke:#ff9cc2; stroke-miterlimit:10; stroke-width:3px;"/><path d="m107.92,307.83c-3.18,2.22-6.3,4.54-9.16,7.2-1.66,1.54-3.5,2.87-5.26,4.3-.19.15-.39.15-.59.02-.06.04-.09.09-.09.16.12.23.04.31-.2.27l-.03.04c.08.22-.01.35-.23.42-3.67,5.28-7.19,10.66-10.59,16.12-.43.68-.87,1.35-1.33,2.02,1.15,1.03,2.32,2.04,3.54,3,.46.01.69.38.98.65,0,0-.09.09-.09.09.1.15.19.3.29.45.18,0,.27.09.27.27,0,0,.03.03.03.03.18-.02.27.05.28.24,0,0,.07.05.07.05.18-.01.24.09.23.25,0,0,.06.05.06.05.13-.04.23-.02.24.15.04.1.12.15.22.17,0,0,0,0,0,0,.28.27.51.58.93.64.18-.14.34-.34.6-.35.84-1.26,1.73-2.49,2.53-3.78,3.14-5.05,6.4-10.02,9.79-14.91,0-.17.06-.3.21-.38,0,0,.03-.03.03-.03.06-.08.12-.16.18-.25,0-.07.03-.12.09-.15,1.84-3.04,4.01-5.85,6.12-8.7,3.75-5.05,7.64-9.98,11.79-14.71-3.76,2.01-7.4,4.21-10.9,6.66Z" style="fill:#8989e0; stroke-width:0px;"/><path d="m321.36,320.89c-.65.08-.95-.43-1.33-.8-3.99-3.81-8.2-7.34-12.57-10.71-4.61-3.55-9.62-6.41-14.73-9.14-.08-.04-.16-.08-.24-.13,6.69,7.51,12.67,15.58,18.37,23.86.45.65,1,1.25,1.28,2.01,4.15,5.67,7.89,11.6,11.46,17.64,1.27-.73,2.46-1.55,3.22-2.85.46-.12.73-.51,1.07-.8,1.29-1.12,2.56-2.27,3.82-3.42-3.25-5.36-6.64-10.62-10.34-15.68Z" style="fill:#8989e0; stroke-width:0px;"/><path d="m369.98,207.36c1.41-5.37,2.1-10.85,2.54-16.37.44-5.48.32-10.95.21-16.43-.01-.59.03-1.19.05-1.78-.39-1.87-.32-3.77-.49-5.66-.59-6.55-1.84-12.97-3.28-19.37-1.59-7.09-3.42-14.11-5.35-21.1l-3.78-.03c-1.92.91-3.91,1.71-5.99,2.36-1.19.37-2.37.75-3.56,1.12-1.48.22-2.95.43-4.59.68.68,2.07,1.31,4.07,1.99,6.04,1.11,3.22,2.6,6.3,3.51,9.59,1.79,6.47,3.47,12.96,4.95,19.51,1.33,5.92,2.49,11.86,3.03,17.91.16,1.74.1,3.51.45,5.23-.02.55-.05,1.1-.04,1.65.11,5.06.22,10.12-.19,15.19-.41,5.11-1.05,10.17-2.35,15.13-3.33,12.7-8.69,24.42-16.59,34.96-1.6,2.14-3.27,4.22-5.04,6.21,1.65-1.27,3.27-2.58,4.85-3.98,4.39-3.91,8.21-8.34,11.73-13.04,8.54-11.4,14.34-24.08,17.94-37.81Z" style="fill:#8989e0; stroke-width:0px;"/><path d="m389.26,167.09c-2.35-13.52-6.11-26.62-11.36-39.3-1.4-3.37-2.93-6.69-4.4-10.03-.72-.32-.97.36-1.33.68-5.39,4.73-11.4,8.4-18.28,10.54-1.19.37-2.37.75-3.56,1.12-1.48.22-2.95.43-4.59.68.68,2.07,1.31,4.07,1.99,6.04,1.11,3.22,2.6,6.3,3.51,9.59,1.79,6.47,3.47,12.96,4.95,19.51,1.33,5.92,2.49,11.86,3.03,17.91.16,1.74.1,3.51.45,5.23-.02.55-.05,1.1-.04,1.65.11,5.06.22,10.12-.19,15.19-.41,5.11-1.05,10.17-2.35,15.13-3.33,12.7-8.69,24.42-16.59,34.96-3.26,4.35-6.78,8.45-10.85,12.06-7.91,7.04-16.93,12.3-26.66,16.38-3.83,1.61-7.73,3.04-11.59,4.55.51-.03.88.18,1.19.48-.31-.3-.68-.51-1.19-.48-.57.06-1.09.24-1.57.55-2.09.51-4.17,1.06-6.19,1.83,2.73,2.06,5.04,4.56,7.33,7.06,7.32,7.98,13.76,16.65,19.89,25.56.45.65,1,1.25,1.28,2.01,4.15,5.67,7.89,11.6,11.46,17.64,1.27-.73,2.46-1.55,3.22-2.85.46-.12.73-.51,1.07-.8,7.28-6.33,14.06-13.16,20.23-20.58,27.1-32.56,41.69-70.02,43.71-112.33.64-13.41-.26-26.75-2.56-39.99Z" style="fill:#1c2033; stroke-width:0px;"/><path d="m127.25,290.94c-1.9-.53-3.79-1.06-5.69-1.59-.35-.28-.76-.38-1.19-.42-.17-.22-.44-.22-.67-.3-6.63-2.43-13.19-5.02-19.47-8.3-7.38-3.86-14.15-8.55-20.15-14.32-4.28-4.11-7.92-8.77-11.23-13.69-11.76-17.48-17.36-36.71-16.63-57.78.02-.45.1-.9-.06-1.34.04-.55.11-1.09.12-1.64.07-5.62.71-11.2,1.57-16.75.51-3.32,1.43-6.55,2.12-9.84,1.48-7.01,3.26-13.95,5.44-20.77,1.28-4,3.08-7.82,4.27-11.87.15-.51.4-1,.36-1.67-1.51-.03-2.91-.42-4.35-.56-.37-.13-.74-.28-1.13-.38-2.74-.76-5.44-1.66-8.03-2.86-5.16-2.4-9.78-5.6-13.93-9.49-.37-.34-.6-.98-1.3-.83-.22.5-.42,1.01-.66,1.51-11.1,23.06-17.15,47.4-18.26,72.95-.43,9.83-.1,19.65,1.05,29.44,1.01,8.62,2.51,17.15,4.72,25.54,9.19,34.91,26.99,64.72,53.21,89.51,2.15,2.03,4.32,4.05,6.65,5.87.46.01.69.38.98.65,0,0-.09.09-.09.09.1.15.19.3.29.45.18,0,.27.09.27.27,0,0,.03.03.03.03.18-.02.27.05.28.24,0,0,.07.05.07.05.18-.01.24.09.23.25,0,0,.06.05.06.05.13-.04.23-.02.24.15.04.1.12.15.22.17,0,0,0,0,0,0,.28.27.51.58.93.64.18-.14.34-.34.6-.35.84-1.26,1.73-2.49,2.53-3.78,3.14-5.05,6.4-10.02,9.79-14.91,0-.17.06-.3.21-.38,0,0,.03-.03.03-.03.06-.08.12-.16.18-.25,0-.07.03-.12.09-.15,1.84-3.04,4.01-5.85,6.12-8.7,5.31-7.15,10.89-14.08,17.1-20.48,1.15-1.18,2.38-2.29,3.57-3.43.24-.23.61-.41.41-.85-.29-.06-.58-.09-.87-.17Z" style="fill:#1c2033; stroke-width:0px;"/><path d="m282.93,29.02c-.42-.23-.94-.31-1.23-.76-.19-.01-.38-.03-.57-.04-.17.02-.28-.06-.35-.2-.71-.16-1.3-.71-2.08-.66-.67-.38-1.32-.8-2.13-.8-.11-.11-.22-.22-.33-.33-1.95-.77-3.9-1.57-5.86-2.31-18.11-6.76-36.84-10.58-56.13-11.51-12-.57-23.96-.04-35.86,1.68-10.78,1.56-21.34,4.03-31.69,7.4-3.9,1.27-7.72,2.77-11.57,4.17,0,.1,0,.19-.03.29-.88.07-1.65.48-2.41.87-1,0-1.76.74-2.71.89-.35.38-.84.47-1.28.65-.4.16-.85.31-.84.87.84.93,1.69,1.85,2.53,2.78,5.39,5.95,10.03,12.38,13.08,19.87.04.09.08.19.11.28.16.42.45.49.84.3.23-.11.46-.19.69-.29,16.66-7,34.14-10.08,52.1-10.83,11.6-.48,23.15.21,34.63,1.96,9.58,1.46,18.98,3.67,28.16,6.75,2.32.78,4.61,1.69,6.91,2.52,1.06.38,1.16.33,1.52-.68.83-2.27,1.94-4.4,3.15-6.48,3.32-5.71,7.41-10.83,11.93-15.62.01-.41-.26-.59-.58-.76Z" style="fill:#1c2033; stroke-width:0px;"/><path d="m68.84,252.32c-11.76-17.48-17.36-36.71-16.63-57.78.02-.45.1-.9-.06-1.34.04-.55.11-1.1.12-1.64.07-5.62.71-11.2,1.57-16.75.51-3.32,1.43-6.55,2.12-9.84,1.48-7.01,3.26-13.95,5.44-20.77,1.28-4,3.08-7.82,4.27-11.87.15-.51.4-1,.36-1.67-1.51-.03-2.91-.42-4.35-.56-.37-.13-.74-.28-1.13-.38-2.74-.76-5.44-1.66-8.03-2.86-.93-.43-1.84-.9-2.73-1.38-2.18,6.99-4,14.08-5.51,21.25-.75,3.55-1.74,7.05-2.29,10.64-.93,6-1.62,12.03-1.69,18.11,0,.59-.08,1.18-.13,1.78.18.48.08.97.06,1.45-.79,22.79,5.28,43.59,17.99,62.5,3.58,5.33,7.53,10.36,12.15,14.81,1.14,1.09,2.31,2.14,3.5,3.17-1.77-2.21-3.44-4.5-5.03-6.86Z" style="fill:#272f62; stroke-width:0px;"/><path d="m179.7,384.3c-1.3-.11-2.6-.24-3.89-.39-8.58-1.02-17.02-3.3-25.29-5.77-.17-.05-.34-.1-.51-.15-3.59-1.08-7.12-2.35-10.64-3.64-7.62-2.8-14.98-6.2-22.14-10.02-6.84-3.65-13.45-7.68-19.77-12.2-2.84-2.03-5.65-4.1-8.43-6.23-.45-.34-.87-.67-1.06-1.22-.18-.24.14-.39.12-.61.84-1.26,1.73-2.49,2.53-3.78,3.14-5.05,6.4-10.02,9.79-14.91.2-.06.28-.18.21-.39l.03-.03c.22.04.3-.04.18-.25,0-.07.03-.12.09-.15.19.12.37.12.55-.02,1.63-1.32,3.33-2.55,4.86-3.98,2.64-2.45,5.53-4.6,8.47-6.66,5.17-3.62,10.68-6.65,16.41-9.31,5.14-2.39,10.46-4.24,15.89-5.8,5.92-1.7,11.95-2.7,18.14-2.6.18,0,.37-.04.55-.07-1.47-.32-2.94-.47-4.41-.65-2.17-.25-4.35-.52-6.52-.78-1.28-.15-2.57-.31-3.85-.47-2.12-.25-4.25-.5-6.37-.74-1.29-.14-2.58-.2-3.87-.37-3.2-.43-6.35-1.19-9.58-1.49-1.02-.1-2.1-.1-3.07-.53-.29-.06-.58-.09-.87-.17-1.9-.53-3.79-1.06-5.69-1.59-.35-.28-.76-.38-1.2-.42-.17-.22-.44-.22-.67-.3-6.63-2.43-13.19-5.02-19.47-8.3-7.38-3.86-14.15-8.55-20.15-14.32-4.28-4.11-7.92-8.77-11.23-13.69-11.76-17.48-17.36-36.71-16.63-57.78.02-.45.1-.9-.06-1.34.04-.55.11-1.1.12-1.64.07-5.62.71-11.2,1.57-16.75.51-3.32,1.43-6.55,2.12-9.84,1.48-7.01,3.26-13.95,5.44-20.77,1.28-4,3.08-7.82,4.27-11.87.15-.51.4-1,.36-1.67-1.51-.03-2.91-.42-4.35-.56-.37-.13-.74-.28-1.13-.38-2.74-.76-5.44-1.66-8.03-2.86-5.16-2.4-9.78-5.6-13.93-9.49-.37-.34-.6-.98-1.3-.83-.14-.96-.86-1.6-1.47-2.2-2.83-2.82-5-6.09-6.78-9.62-1.85-3.66-3.2-7.53-3.76-11.6-.33-2.4-.64-4.85-.25-7.3.17-.98.34-1.97.51-2.95.66-3.76,1.61-7.44,3.31-10.89,2.81-5.71,7.06-9.62,13.48-10.94,3.26-.67,6.34-1.92,9.06-3.88,2.85-2.05,5.56-4.29,8-6.83,4.8-4.99,9.41-10.15,13.99-15.33,5.18-5.85,10.73-11.25,17.92-14.65,5.06-2.39,10.26-3.59,15.88-2.45,7.17,1.46,13.35,4.77,18.76,9.62.63.56,1.16,1.25,1.91,1.68.84.93,1.69,1.85,2.53,2.78,5.39,5.95,10.03,12.38,13.08,19.87.04.09.08.19.11.28.16.42.45.49.84.3.23-.11.46-.19.69-.29,16.66-7,34.14-10.08,52.1-10.83,11.6-.48,23.15.21,34.63,1.96,9.58,1.46,18.98,3.67,28.16,6.75,2.32.78,4.61,1.69,6.91,2.52,1.06.38,1.16.33,1.52-.68.83-2.27,1.94-4.4,3.15-6.48,3.32-5.71,7.41-10.83,11.93-15.62.58-.32.97-.86,1.43-1.3,5.25-5.02,11.33-8.51,18.41-10.28,5.88-1.47,11.43-.55,16.8,1.96,5,2.34,9.35,5.6,13.27,9.48,4.14,4.09,7.83,8.59,11.77,12.87,4.21,4.57,8.31,9.23,13.21,13.13,3.45,2.74,7.26,4.59,11.54,5.52,4.61,1,8.24,3.47,10.99,7.31,2.56,3.58,3.92,7.63,4.92,11.85.41,1.75.49,3.57,1.1,5.28.15,1.49.18,2.97-.11,4.46-.25,1.26-.09,2.57-.33,3.86-.93,5.02-2.81,9.64-5.44,14-1.82,3.02-4.1,5.64-6.6,8.09-.5.49-1.08.93-.98,1.76-.72-.32-.97.36-1.33.68-5.39,4.73-11.4,8.4-18.28,10.54-1.19.37-2.37.75-3.56,1.12-1.48.22-2.95.43-4.59.68.68,2.07,1.31,4.07,1.99,6.04,1.11,3.22,2.6,6.3,3.51,9.59,1.79,6.47,3.47,12.96,4.95,19.51,1.33,5.92,2.49,11.86,3.03,17.91.16,1.74.1,3.51.45,5.23-.02.55-.05,1.1-.04,1.65.11,5.06.22,10.12-.19,15.19-.41,5.11-1.05,10.17-2.35,15.13-3.33,12.7-8.69,24.42-16.59,34.96-3.26,4.35-6.78,8.45-10.85,12.06-7.91,7.04-16.93,12.3-26.66,16.38-3.83,1.61-7.73,3.04-11.6,4.55-.57.06-1.09.24-1.57.55-2.09.51-4.17,1.06-6.19,1.83-2.23.2-4.45.48-6.66.87-2.84.51-5.69,1.04-8.56,1.25-2.39.17-4.77.41-7.13.73-3.11.42-6.22.73-9.33,1.11-1.92.23-3.83.48-5.74.72.28.14.57.19.85.17,3.16-.16,6.29.24,9.4.67,3.9.54,7.72,1.56,11.48,2.73,6.12,1.91,12.06,4.26,17.74,7.29,4.72,2.52,9.36,5.17,13.61,8.45,4.04,3.11,7.93,6.38,11.62,9.9.35.34.63.81,1.23.74,4.15,5.67,7.89,11.6,11.46,17.64-.89,1.23-2.17,2.03-3.33,2.95-4.83,3.8-9.87,7.31-15.05,10.61-3.29,2.09-6.66,4.05-10.06,5.95-3.41,1.9-6.92,3.62-10.43,5.32-4.68,2.26-9.48,4.24-14.36,6.06-8.1,3.02-16.32,5.73-24.82,7.34-8.58,1.63-14.47,2.9-23.19,3.28-13.16.57-29.52.28-42.65-.83Zm24.72-207.6c-2.39.14-4.78-.05-7.19.24-3.32.4-6.62.84-9.87,1.58-4.45,1.01-8.75,2.44-12.84,4.5-3.09,1.55-6.05,3.29-8.73,5.52-3.2,2.66-5.95,5.66-7.74,9.43-1.75,3.68-2.65,7.53-1.85,11.62.27,1.37.47,2.76,1.01,4.06,1.98,4.78,5.1,8.67,9.19,11.82,3.15,2.43,6.59,4.37,10.22,5.97,2.23.99,4.53,1.83,6.89,2.52,2.74.79,5.5,1.44,8.3,1.92,3.09.53,6.21.97,9.35,1.01,4.55.05,9.09.12,13.63-.53,2.62-.38,5.24-.77,7.79-1.4,5.45-1.35,10.72-3.2,15.6-6.06,5.04-2.96,9.41-6.58,12.42-11.67,1.55-2.62,2.54-5.45,2.79-8.48.3-3.7-.34-7.26-2.04-10.61-1.96-3.86-4.68-7.06-8.05-9.75-4.35-3.47-9.18-6.03-14.45-7.78-3.51-1.16-7.05-2.18-10.71-2.78-3.65-.61-7.29-1.11-10.99-1.12-.9,0-1.81,0-2.71,0Zm-136.82-46.2c1.18,1.26,2.77,1.78,4.37,1.9,3.96.3,7.88.03,11.69-1.32,6.35-2.25,11.66-6.11,16.56-10.6,2.81-2.57,5.3-5.44,7.61-8.47,2.56-3.35,4.75-6.93,6.67-10.67,1.41-2.75,2.64-5.61,3.65-8.54.86-2.5,1.71-5,2.27-7.61.59-2.78,1.15-5.55,1.52-8.38.36-2.77.68-5.54.77-8.33.08-2.44,0-4.89-.18-7.34-.24-3.39-.64-6.74-1.29-10.07-.21-1.08-.57-2.12-1.04-3.12-.28-.59-1.03-.89-1.36-.62-.43.36-.04.76.06,1.09.81,2.49,1.25,5.03,1.16,7.66-.05,1.4-.06,2.81,0,4.21.14,3.42-.4,6.79-1.01,10.11-.95,5.1-2.33,10.12-4.16,14.99-.97,2.57-1.98,5.14-3.16,7.62-2.41,5.06-5,10.02-8.16,14.68-2.34,3.44-4.83,6.74-7.62,9.81-3.58,3.93-7.52,7.48-12.19,10.12-3.52,1.99-7.21,3.43-11.37,3.34-1.6-.03-3.17-.13-4.79-.48Zm276.34.52c-.34-.51-.69-.32-1.02-.27-2.72.48-5.37.26-7.96-.72-4.08-1.54-7.66-3.93-10.85-6.84-4.78-4.36-9.09-9.17-12.73-14.54-2.1-3.11-4.1-6.28-5.92-9.57-3.03-5.5-5.55-11.2-7.62-17.12-1.62-4.63-2.87-9.36-3.7-14.18-.54-3.09-.93-6.21-.99-9.36-.03-1.4-.11-2.82.03-4.21.19-1.87.09-3.79.77-5.61.28-.74.39-1.55.59-2.32.07-.25.14-.52-.09-.69-.29-.21-.59-.08-.81.15-.21.21-.38.46-.54.71-.4.64-.65,1.36-.82,2.09-.92,4-1.5,8.05-1.52,12.15-.02,3.65-.2,7.3.22,10.96.25,2.17.38,4.39.76,6.53.65,3.67,1.51,7.32,2.72,10.87,1.77,5.18,3.96,10.16,6.7,14.9,2.51,4.34,5.46,8.39,8.85,12.06,4.25,4.61,8.88,8.81,14.31,12.03,4.82,2.86,9.9,4.82,15.63,4.39,1.43-.11,2.78-.53,3.98-1.42Zm-206.15-4.28c-.45,0-.91-.04-1.35.01-.44.05-.87.21-1.32.26-4.11.53-7.44,2.5-10.16,5.53-.89.99-1.65,2.11-1.78,3.54-.04.42.1.66.36.91.32.31.63.17.96.02.37-.18.67-.45.93-.75,1.28-1.48,3-2.37,4.74-3.07,3.72-1.49,7.58-2.45,11.66-2.25,1.52.07,2.96.36,4.33.98.41.19.76.31,1.07-.07.33-.4.3-.85-.01-1.24-.28-.35-.6-.68-.95-.96-2.46-2-5.31-2.89-8.45-2.91Zm133.2,4.51c1.89-.03,3.67.27,5.42.61,4.02.8,7.73,2.31,10.83,5.08.36.33.69.82,1.27.48.54-.31.39-.87.4-1.36,0-.37-.17-.68-.34-.98-2.22-3.84-5.61-6.21-9.79-7.4-2.14-.61-4.35-.81-6.64-.41-2.83.5-5.22,1.6-7.17,3.69-.33.35-.59.72-.22,1.18.31.38.69.29,1.09.11,1.66-.78,3.42-1.07,5.15-1.01Z" style="fill:#ffd6e7; stroke-width:0px;"/><path d="m386.96,85.58c-.61-1.71-.69-3.53-1.1-5.28-1-4.22-2.36-8.27-4.92-11.85-2.75-3.84-6.38-6.31-10.99-7.31-4.28-.93-8.1-2.78-11.54-5.52-4.9-3.89-9-8.56-13.21-13.13-3.94-4.27-7.63-8.77-11.77-12.87-3.92-3.87-8.27-7.14-13.27-9.48-5.38-2.51-10.93-3.43-16.8-1.96-7.08,1.77-13.16,5.26-18.41,10.28-.47.45-.85.98-1.43,1.3.01-.41-.26-.59-.58-.76-.42-.23-.94-.31-1.23-.76,0-.51.4-.78.7-1.1.47-.51.95-1.02,1.42-1.53,2.3-2.08,4.59-4.19,7.21-5.88,5.09-3.29,10.58-5.46,16.64-6.07,1.05-.11,2.09-.1,3.15.01,4.83.52,9.19,2.3,13.34,4.77,2.52,1.5,4.81,3.27,6.98,5.21,2.54,2.28,4.93,4.71,7.19,7.27,4.44,5.04,8.93,10.04,13.56,14.91,2.5,2.63,5.24,4.97,8.13,7.14,2.81,2.11,5.98,3.5,9.4,4.19,6.78,1.37,11.21,5.53,13.98,11.63,2.41,5.32,3.53,10.95,3.57,16.79Z" style="fill:#1c2033; stroke-width:0px;"/><path d="m127.85,29.22c-.75-.43-1.28-1.11-1.91-1.68-5.41-4.85-11.59-8.16-18.76-9.62-5.62-1.14-10.83.06-15.88,2.45-7.19,3.4-12.74,8.79-17.92,14.65-4.59,5.18-9.19,10.34-13.99,15.33-2.44,2.54-5.15,4.78-8,6.83-2.72,1.96-5.8,3.21-9.06,3.88-6.42,1.31-10.67,5.23-13.48,10.94-1.7,3.45-2.65,7.13-3.31,10.89-.17.98-.34,1.97-.51,2.95-.01-7.9,1.64-15.33,6.38-21.82,2.48-3.4,5.83-5.6,9.96-6.54,2.9-.66,5.71-1.55,8.29-3.05,2.97-1.72,5.57-3.94,8.03-6.29,3.27-3.11,6.26-6.49,9.31-9.82,4.13-4.51,8.01-9.25,12.45-13.48,3.74-3.56,7.91-6.46,12.57-8.66,6.28-2.96,12.71-3.29,19.29-1.06,6.09,2.07,11.43,5.3,15.96,9.86.97.84,1.96,1.65,2.71,2.71-.35.38-.84.47-1.28.65-.4.16-.85.31-.84.87Z" style="fill:#1c2033; stroke-width:0px;"/><path d="m84.97,342.03s-.09.09-.09.09c-.38-.15-.67-.4-.88-.74.46.01.69.38.98.65Z" style="fill:#474546; stroke-width:0px;"/><path d="m87.5,344.43c.18-.14.34-.34.6-.35.02.22-.29.37-.12.61-.22.02-.34-.13-.48-.26Z" style="fill:#474546; stroke-width:0px;"/><path d="m85.16,342.57c.18,0,.27.09.27.27-.19,0-.29-.08-.27-.27Z" style="fill:#474546; stroke-width:0px;"/><path d="m85.47,342.87c.18-.02.27.05.28.24-.18.02-.26-.06-.28-.24Z" style="fill:#474546; stroke-width:0px;"/><path d="m85.81,343.16c.18-.01.24.09.23.25-.15-.01-.23-.09-.23-.25Z" style="fill:#474546; stroke-width:0px;"/><path d="m86.11,343.46c.13-.04.23-.02.24.15-.13.03-.21-.01-.24-.15Z" style="fill:#474546; stroke-width:0px;"/><polygon points="86.57 343.78 86.56 343.79 86.55 343.84 86.57 343.78" style="fill:#474546; stroke-width:0px;"/><path d="m204.42,176.7c.9,0,1.81,0,2.71,0,3.7.02,7.35.52,10.99,1.12,3.66.61,7.2,1.62,10.71,2.78,5.27,1.75,10.1,4.31,14.45,7.78,3.37,2.69,6.09,5.89,8.05,9.75,1.7,3.35,2.34,6.91,2.04,10.61-.24,3.03-1.24,5.86-2.79,8.48-3.01,5.09-7.39,8.71-12.42,11.67-4.88,2.87-10.16,4.71-15.6,6.06-2.55.63-5.17,1.02-7.79,1.4-4.54.65-9.08.59-13.63.53-3.14-.04-6.26-.48-9.35-1.01-2.8-.48-5.56-1.13-8.3-1.92-2.36-.69-4.66-1.53-6.89-2.52-3.62-1.6-7.06-3.54-10.22-5.97-4.09-3.15-7.2-7.05-9.19-11.82-.54-1.3-.74-2.69-1.01-4.06-.8-4.09.1-7.95,1.85-11.62,1.79-3.77,4.54-6.77,7.74-9.43,2.68-2.23,5.63-3.96,8.73-5.52,4.09-2.06,8.39-3.48,12.84-4.5,3.26-.74,6.56-1.18,9.87-1.58,2.41-.29,4.8-.11,7.19-.24Zm20.69,30.64c.09-1.21-.13-2.39-.29-3.57-.26-1.88-.59-3.73-1.52-5.43-.48-.88-1.01-1.69-2.08-1.72-1.08-.02-1.62.78-2.11,1.65-1.35,2.43-1.61,5.11-1.8,7.79-.14,1.94-.09,3.89.28,5.82.35,1.81.69,3.62,1.66,5.24.47.79,1.04,1.4,1.97,1.39.86-.01,1.48-.54,1.85-1.33.3-.63.61-1.26.85-1.91.97-2.56,1-5.26,1.18-7.93Zm-31.32.8c0-1.17.06-2.07-.01-2.97-.18-2.19-.5-4.36-1.56-6.34-1.12-2.11-2.76-2.21-4.11-.23-.22.33-.46.67-.6,1.03-.69,1.78-1.15,3.64-1.21,5.53-.08,2.59-.22,5.19.25,7.78.31,1.68.69,3.31,1.56,4.81.88,1.51,2.94,1.54,3.79.02.27-.48.49-.99.68-1.5,1.01-2.71,1.36-5.51,1.2-8.12Z" style="fill:#ffafca; stroke-width:0px;"/><path d="m67.61,130.5c1.61.34,3.18.44,4.79.48,4.16.08,7.84-1.35,11.37-3.34,4.67-2.64,8.61-6.19,12.19-10.12,2.79-3.06,5.28-6.37,7.62-9.81,3.17-4.66,5.76-9.62,8.16-14.68,1.18-2.48,2.19-5.04,3.16-7.62,1.83-4.87,3.21-9.88,4.16-14.99.62-3.32,1.16-6.69,1.01-10.11-.06-1.4-.05-2.81,0-4.21.09-2.63-.36-5.17-1.16-7.66-.11-.33-.5-.73-.06-1.09.34-.28,1.09.03,1.36.62.47.99.83,2.03,1.04,3.12.66,3.33,1.05,6.68,1.29,10.07.18,2.45.26,4.9.18,7.34-.09,2.78-.41,5.56-.77,8.33-.37,2.83-.93,5.6-1.52,8.38-.56,2.6-1.41,5.11-2.27,7.61-1.01,2.93-2.24,5.78-3.65,8.54-1.92,3.74-4.11,7.32-6.67,10.67-2.31,3.03-4.81,5.9-7.61,8.47-4.9,4.49-10.21,8.35-16.56,10.6-3.8,1.34-7.73,1.61-11.69,1.32-1.6-.12-3.19-.64-4.37-1.9Z" style="fill:#ffafca; stroke-width:0px;"/><path d="m343.95,131.02c-1.2.89-2.55,1.31-3.98,1.42-5.73.43-10.81-1.53-15.63-4.39-5.44-3.22-10.06-7.43-14.31-12.03-3.39-3.68-6.34-7.72-8.85-12.06-2.74-4.74-4.94-9.72-6.7-14.9-1.21-3.55-2.07-7.2-2.72-10.87-.38-2.14-.51-4.35-.76-6.53-.42-3.66-.23-7.31-.22-10.96.02-4.1.6-8.15,1.52-12.15.17-.73.42-1.45.82-2.09.16-.25.33-.5.54-.71.22-.23.52-.36.81-.15.23.17.16.44.09.69-.2.77-.32,1.58-.59,2.32-.68,1.82-.58,3.74-.77,5.61-.14,1.39-.05,2.81-.03,4.21.06,3.15.45,6.27.99,9.36.84,4.82,2.08,9.55,3.7,14.18,2.07,5.92,4.59,11.62,7.62,17.12,1.82,3.29,3.82,6.46,5.92,9.57,3.64,5.37,7.95,10.17,12.73,14.54,3.19,2.92,6.77,5.3,10.85,6.84,2.59.98,5.24,1.2,7.96.72.33-.06.68-.25,1.02.27Z" style="fill:#ffafca; stroke-width:0px;"/><path d="m283.64,291.36c2.73,2.06,5.04,4.56,7.33,7.06,7.32,7.98,13.76,16.65,19.89,25.56.45.65,1,1.25,1.28,2.01-.6.07-.88-.4-1.23-.74-3.69-3.52-7.58-6.79-11.62-9.9-4.26-3.28-8.89-5.92-13.61-8.45-5.67-3.03-11.61-5.39-17.74-7.29-3.76-1.17-7.58-2.19-11.48-2.73-3.1-.43-6.24-.82-9.4-.67-.28.01-.57-.04-.85-.17,1.91-.24,3.83-.48,5.74-.72,3.11-.38,6.23-.69,9.33-1.11,2.36-.32,4.75-.55,7.13-.73,2.88-.21,5.72-.74,8.56-1.25,2.21-.39,4.43-.67,6.66-.87Z" style="fill:#fdafca; stroke-width:0px;"/><path d="m100.92,324.57c1.84-3.04,4.01-5.85,6.12-8.7,5.31-7.15,10.89-14.08,17.1-20.48,1.15-1.18,2.38-2.29,3.57-3.43.24-.23.61-.41.41-.85.98.44,2.06.44,3.07.53,3.23.31,6.38,1.06,9.58,1.49,1.28.17,2.58.23,3.87.37,2.13.23,4.25.49,6.37.74,1.28.15,2.57.31,3.85.47,2.17.26,4.34.53,6.52.78,1.47.17,2.94.33,4.41.65-.18.02-.37.07-.55.07-6.19-.1-12.22.91-18.14,2.6-5.43,1.56-10.75,3.41-15.89,5.8-5.73,2.66-11.24,5.69-16.41,9.31-2.94,2.06-5.82,4.2-8.47,6.66-1.53,1.42-3.24,2.66-4.86,3.98-.17.14-.36.14-.55.02Z" style="fill:#fdafca; stroke-width:0px;"/><path d="m137.8,126.74c3.14.02,5.99.91,8.45,2.91.35.28.67.61.95.96.32.39.34.84.01,1.24-.31.38-.66.25-1.07.07-1.37-.62-2.81-.91-4.33-.98-4.08-.2-7.94.75-11.66,2.25-1.74.7-3.46,1.59-4.74,3.07-.26.3-.55.58-.93.75-.33.16-.64.3-.96-.02-.26-.25-.4-.49-.36-.91.13-1.43.9-2.55,1.78-3.54,2.72-3.03,6.06-5,10.16-5.53.44-.06.87-.22,1.32-.26.45-.05.9-.01,1.35-.01Z" style="fill:#ffb8d8; stroke-width:0px;"/><path d="m271,131.25c-1.73-.06-3.49.23-5.15,1.01-.4.19-.78.27-1.09-.11-.37-.46-.11-.83.22-1.18,1.95-2.08,4.35-3.19,7.17-3.69,2.3-.4,4.5-.2,6.64.41,4.18,1.19,7.57,3.55,9.79,7.4.17.3.35.61.34.98-.01.49.14,1.05-.4,1.36-.59.34-.91-.15-1.27-.48-3.1-2.78-6.81-4.28-10.83-5.08-1.75-.35-3.53-.65-5.42-.61Z" style="fill:#ffb8d8; stroke-width:0px;"/><path d="m280.18,204c-.38.9-.73,1.78-1.12,2.65-.78,1.73-1.59,3.46-2.38,5.18-.08.18-.13.39-.25.54-.3.35-.7.39-1.09.2-.43-.2-.54-.57-.36-1.01.24-.55.5-1.09.75-1.64.87-1.91,1.74-3.82,2.62-5.73.12-.27.3-.52.49-.75.2-.23.46-.43.78-.23.3.18.57.41.57.8Z" style="fill:#ffc3d7; stroke:#ffc3d7; stroke-miterlimit:10; stroke-width:3px;"/><path d="m134.49,202.85c-.03.1-.09.35-.19.57-1,2.22-2.01,4.45-3.02,6.67-.1.23-.23.45-.35.66-.28.5-.74.5-1.17.34-.5-.19-.39-.63-.25-1.02.18-.52.39-1.03.61-1.52.87-1.95,1.75-3.91,2.64-5.85.1-.22.27-.42.44-.6.23-.25.47-.59.88-.42.44.19.45.62.42,1.17Z" style="fill:#ffc3d7; stroke:#ffc3d7; stroke-miterlimit:10; stroke-width:3px;"/><path d="m125.4,202.75c.58.03.95.47.72,1.02-.4.96-.67,1.99-1.28,2.86-.22.31-.49.72-.97.44-.4-.23-.71-.55-.47-1.1.39-.91.74-1.85,1.13-2.76.15-.36.48-.48.87-.46Z" style="fill:#ffc3d7; stroke:#ffc3d7; stroke-miterlimit:10; stroke-width:3px;"/><path d="m141.69,206.85c-.41.84-.66,2.02-1.46,2.95-.19.22-.44.47-.76.34-.37-.15-.47-.49-.45-.87.02-.24.01-.52.13-.72.47-.81.61-1.79,1.25-2.52.22-.26.48-.6.87-.44.43.17.48.59.43,1.26Z" style="fill:#ffc3d7; stroke:#ffc3d7; stroke-miterlimit:10; stroke-width:3px;"/><path d="m268.16,207.33c.39-.88.8-1.89,1.26-2.87.18-.39.54-.61.98-.4.42.2.53.6.42,1.01-.27,1.07-.74,2.05-1.3,2.99-.23.39-.63.49-1.04.32-.42-.17-.3-.57-.33-1.04Z" style="fill:#ffc3d7; stroke:#ffc3d7; stroke-miterlimit:10; stroke-width:3px;"/><path d="m286.37,208.21c-.35.87-.55,1.96-1.25,2.84-.26.33-.62.54-1.04.29-.42-.24-.42-.61-.28-1.04.3-.96.74-1.85,1.24-2.71.17-.29.43-.62.83-.51.48.13.51.56.5,1.13Z" style="fill:#ffc3d7; stroke:#ffc3d7; stroke-miterlimit:10; stroke-width:3px;"/><path d="m100.65,324.97c.06-.08.12-.16.18-.25.11.21.04.28-.18.25Z" style="fill:#fdafca; stroke-width:0px;"/><path d="m100.41,325.39c0-.17.06-.3.21-.38.07.21-.01.33-.21.38Z" style="fill:#fdafca; stroke-width:0px;"/><path d="m281.14,28.21c-.17.02-.28-.06-.35-.2.16,0,.27.06.35.2Z" style="fill:#474546; stroke-width:0px;"/><path d="m225.12,207.34c-.18,2.67-.21,5.38-1.18,7.93-.25.65-.56,1.28-.85,1.91-.37.78-.99,1.32-1.85,1.33-.93.01-1.5-.6-1.97-1.39-.97-1.62-1.31-3.43-1.66-5.24-.37-1.93-.42-3.88-.28-5.82.19-2.68.45-5.36,1.8-7.79.49-.88,1.04-1.68,2.11-1.65,1.07.02,1.6.84,2.08,1.72.92,1.7,1.26,3.55,1.52,5.43.16,1.19.39,2.36.29,3.57Z" style="fill:#ff7ab5; stroke-width:0px;"/><path d="m193.8,208.14c.16,2.61-.19,5.42-1.2,8.12-.19.51-.42,1.02-.68,1.5-.85,1.53-2.91,1.49-3.79-.02-.87-1.5-1.26-3.13-1.56-4.81-.47-2.58-.34-5.19-.25-7.78.06-1.89.52-3.75,1.21-5.53.14-.37.38-.7.6-1.03,1.35-1.98,2.99-1.88,4.11.23,1.06,1.99,1.38,4.15,1.56,6.34.07.9.01,1.8.01,2.97Z" style="fill:#ff7ab5; stroke-width:0px;"/><path d="m209.3,246.56c3.55.75,6.59,2.27,8.97,4.79.34.36.63.75.88,1.16.28.45.22.9-.23,1.22-.43.3-.8.1-1.22-.18-1.42-.93-2.99-1.54-4.69-1.96-4.57-1.13-9.11-1.08-13.62-.48-2.1.28-4.22.76-5.97,1.92-.35.23-.74.44-1.2.53-.41.08-.78.15-1.08-.24-.24-.31-.35-.57-.22-.97.43-1.37,1.52-2.29,2.72-3.06,3.68-2.34,7.84-3.51,12.58-3.08.51.05,1.03-.01,1.54.04.51.06,1.02.2,1.53.3Z" style="fill:#ff9cc2; stroke:#ff9cc2; stroke-miterlimit:10; stroke-width:3px;"/><path d="m107.92,307.83c-3.18,2.22-6.3,4.54-9.16,7.2-1.66,1.54-3.5,2.87-5.26,4.3-.19.15-.39.15-.59.02-.06.04-.09.09-.09.16.12.23.04.31-.2.27l-.03.04c.08.22-.01.35-.23.42-3.67,5.28-7.19,10.66-10.59,16.12-.43.68-.87,1.35-1.33,2.02,1.15,1.03,2.32,2.04,3.54,3,.46.01.69.38.98.65,0,0-.09.09-.09.09.1.15.19.3.29.45.18,0,.27.09.27.27,0,0,.03.03.03.03.18-.02.27.05.28.24,0,0,.07.05.07.05.18-.01.24.09.23.25,0,0,.06.05.06.05.13-.04.23-.02.24.15.04.1.12.15.22.17,0,0,0,0,0,0,.28.27.51.58.93.64.18-.14.34-.34.6-.35.84-1.26,1.73-2.49,2.53-3.78,3.14-5.05,6.4-10.02,9.79-14.91,0-.17.06-.3.21-.38,0,0,.03-.03.03-.03.06-.08.12-.16.18-.25,0-.07.03-.12.09-.15,1.84-3.04,4.01-5.85,6.12-8.7,3.75-5.05,7.64-9.98,11.79-14.71-3.76,2.01-7.4,4.21-10.9,6.66Z" style="fill:#272f62; stroke-width:0px;"/><path d="m321.36,320.89c-.65.08-.95-.43-1.33-.8-3.99-3.81-8.2-7.34-12.57-10.71-4.61-3.55-9.62-6.41-14.73-9.14-.08-.04-.16-.08-.24-.13,6.69,7.51,12.67,15.58,18.37,23.86.45.65,1,1.25,1.28,2.01,4.15,5.67,7.89,11.6,11.46,17.64,1.27-.73,2.46-1.55,3.22-2.85.46-.12.73-.51,1.07-.8,1.29-1.12,2.56-2.27,3.82-3.42-3.25-5.36-6.64-10.62-10.34-15.68Z" style="fill:#272f62; stroke-width:0px;"/><path d="m369.98,207.36c1.41-5.37,2.1-10.85,2.54-16.37.44-5.48.32-10.95.21-16.43-.01-.59.03-1.19.05-1.78-.39-1.87-.32-3.77-.49-5.66-.59-6.55-1.84-12.97-3.28-19.37-1.59-7.09-3.42-14.11-5.35-21.1l-3.78-.03c-1.92.91-3.91,1.71-5.99,2.36-1.19.37-2.37.75-3.56,1.12-1.48.22-2.95.43-4.59.68.68,2.07,1.31,4.07,1.99,6.04,1.11,3.22,2.6,6.3,3.51,9.59,1.79,6.47,3.47,12.96,4.95,19.51,1.33,5.92,2.49,11.86,3.03,17.91.16,1.74.1,3.51.45,5.23-.02.55-.05,1.1-.04,1.65.11,5.06.22,10.12-.19,15.19-.41,5.11-1.05,10.17-2.35,15.13-3.33,12.7-8.69,24.42-16.59,34.96-1.6,2.14-3.27,4.22-5.04,6.21,1.65-1.27,3.27-2.58,4.85-3.98,4.39-3.91,8.21-8.34,11.73-13.04,8.54-11.4,14.34-24.08,17.94-37.81Z" style="fill:#272f62; stroke-width:0px;"/><path d="m123.18,168.62c5.65,5.07,19.02,2.12,25.83.38,8.86-2.27,17.34-5.8,26.04-8.59-7.39,5.7-16,10.05-25.03,12.46-6.26,1.59-13.16,2.47-19.54.71-2.8-.81-6.01-2.18-7.3-4.95h0Z" style="fill:#c94383; stroke-width:0px;"/><path d="m294.1,168.62c-1.45,3.08-5.1,4.36-8.18,5.21-6.16,1.37-12.67.59-18.66-.96-9.03-2.42-17.64-6.77-25.03-12.46,8.7,2.79,17.19,6.32,26.04,8.59,6.8,1.73,20.19,4.69,25.83-.38h0Z" style="fill:#c94383; stroke-width:0px;"/></svg>