<svg height="512" viewBox="0 0 60 60" width="512" xmlns="http://www.w3.org/2000/svg"><g id="Page-1" fill="none" fill-rule="evenodd"><g id="026---Open-Book" fill-rule="nonzero"><rect id="Rectangle-path" fill="#e8edfc" height="42" rx="1" width="8" x="26" y="17"/><path id="Shape" d="m33 17h-3c.5522847 0 1 .4477153 1 1v40c0 .5522847-.4477153 1-1 1h3c.5522847 0 1-.4477153 1-1v-40c0-.5522847-.4477153-1-1-1z" fill="#cad9fc"/><path id="Shape" d="m26 18.08v39.77c-.0010489.3465932-.1814922.6679286-.4768822.8492369-.2953899.1813084-.6635996.1967323-.9731178.0407631l-20-10c-.34011434-.1652369-.55434232-.5118967-.55-.89v-7.85h2.5c1.38071187 0 2.5-1.1192881 2.5-2.5s-1.11928813-2.5-2.5-2.5h1c1.38071187 0 2.5-1.1192881 2.5-2.5s-1.11928813-2.5-2.5-2.5h2c1.3807119 0 2.5-1.1192881 2.5-2.5s-1.1192881-2.5-2.5-2.5h-2c1.38071187 0 2.5-1.1192881 2.5-2.5s-1.11928813-2.5-2.5-2.5h-3.5v-11.92c.00104888-.34659321.18149218-.66792859.47688216-.84923693.29538998-.18130833.66359959-.19673232.97311784-.04076307l2.55 1.28 17.45 8.72c.3382546.167288.551676.5126426.55.89z" fill="#e8edfc"/><path id="Shape" d="m25.45 17.19-17.45-8.72-2.55-1.28c-.29213771-.14406207-.63613342-.13681366-.9219434.01942648-.28580997.15624013-.47761488.44189108-.5140566.76557352l.986.495 17.45 8.72c.3382546.167288.551676.5126426.55.89v39.77c-.0025689.036241-.0072434.0723019-.014.108l1.564.782c.3095182.1559692.6777279.1405453.9731178-.0407631.29539-.1813083.4758333-.5026437.4768822-.8492369v-39.77c.001676-.3773574-.2117454-.722712-.55-.89z" fill="#cad9fc"/><path id="Shape" d="m50 22.5c-.0021341.6636932.2605727 1.3008186.729877 1.770123.4693044.4693043 1.1064298.7320111 1.770123.729877h-2c-1.3807119 0-2.5 1.1192881-2.5 2.5s1.1192881 2.5 2.5 2.5h2c-1.3807119 0-2.5 1.1192881-2.5 2.5s1.1192881 2.5 2.5 2.5h1c-1.3807119 0-2.5 1.1192881-2.5 2.5s1.1192881 2.5 2.5 2.5h2.5v7.85c.0043423.3781033-.2098857.7247631-.55.89l-20 10c-.3095182.1559692-.6777279.1405453-.9731178-.0407631-.29539-.1813083-.4758333-.5026437-.4768822-.8492369v-39.77c-.001676-.3773574.2117454-.722712.55-.89l17.45-8.72 2.55-1.28c.3095182-.15596925.6777279-.14054526.9731178.04076307.29539.18130834.4758333.50264372.4768822.84923693v11.92h-3.5c-1.3807119 0-2.5 1.1192881-2.5 2.5z" fill="#cad9fc"/><path id="Shape" d="m51.73 39.27c-.7168842-.715071-.9316507-1.7919472-.5439215-2.7273164.3877291-.9353692 1.3013771-1.5444952 2.3139215-1.5426836h-1c-1.3807119 0-2.5-1.1192881-2.5-2.5s1.1192881-2.5 2.5-2.5h-2c-1.3807119 0-2.5-1.1192881-2.5-2.5s1.1192881-2.5 2.5-2.5h2c-1.3807119 0-2.5-1.1192881-2.5-2.5s1.1192881-2.5 2.5-2.5h-3c-1.3807119 0-2.5 1.1192881-2.5 2.5s1.1192881 2.5 2.5 2.5h-2c-1.3807119 0-2.5 1.1192881-2.5 2.5s1.1192881 2.5 2.5 2.5h2c-1.3807119 0-2.5 1.1192881-2.5 2.5s1.1192881 2.5 2.5 2.5h1c-1.3807119 0-2.5 1.1192881-2.5 2.5s1.1192881 2.5 2.5 2.5h2.5v7.85c.0043423.3781033-.2098857.7247631-.55.89l-18.436 9.218c.0337326.3249855.2253299.6125202.5122729.7687803.2869429.15626.63243.1612044.9237271.0132197l20-10c.3401143-.1652369.5543423-.5118967.55-.89v-7.85h-2.5c-.6634943.001185-1.3002463-.2614303-1.77-.73z" fill="#a4c2f7"/><path id="Shape" d="m54.55 7.19-1.564.785c.006759.03468907.011434.06975186.014.105v11.92h3v-11.92c-.0010489-.34659321-.1814922-.66792859-.4768822-.84923693-.2953899-.18130833-.6635996-.19673232-.9731178-.04076307z" fill="#a4c2f7"/><path id="Shape" d="m30 14.5v2.5h-3c-.5522847 0-1 .4477153-1 1v.08c.001676-.3773574-.2117454-.722712-.55-.89l-17.45-8.72v-6.47c.00027313-.33524358.16851452-.64804642.44807141-.83307689.2795569-.18503046.63323127-.21766826.94192859-.08692311 20.61 8.64 20.61 13.42 20.61 13.42z" fill="#e8edfc"/><path id="Shape" d="m25.45 17.19c.3382546.167288.551676.5126426.55.89v-.08c0-.5522847.4477153-1 1-1h-1.93z" fill="#cad9fc"/><path id="Shape" d="m9.39 1.08c-.27237907-.11430938-.58136069-.10234618-.84408589.03268145-.2627252.13502764-.4523101.37930274-.51791411.66731855 18.966 8.196 18.972 12.72 18.972 12.72v2.5h3v-2.5s0-4.78-20.61-13.42z" fill="#cad9fc"/><path id="Shape" d="m52 2v6.47l-17.45 8.72c-.3382546.167288-.551676.5126426-.55.89v-.08c0-.5522847-.4477153-1-1-1h-3v-2.5s0-4.78 20.61-13.42c.3086973-.13074515.6623717-.09810735.9419286.08692311.2795569.18503047.4477983.49783331.4480714.83307689z" fill="#e8edfc"/><path id="Shape" d="m50.61 1.08c-.563.236-1.1.468-1.638.7.0174614.07206836.0268524.14585534.028.22v6.47l-17.07 8.53h1.07c.5522847 0 1 .4477153 1 1v.08c-.001676-.3773574.2117454-.722712.55-.89l17.45-8.72v-6.47c-.0002731-.33524358-.1685145-.64804642-.4480714-.83307689-.2795569-.18503046-.6332313-.21766826-.9419286-.08692311z" fill="#cad9fc"/><path id="Shape" d="m9.5 30h-2c1.38071187 0 2.5 1.1192881 2.5 2.5s-1.11928813 2.5-2.5 2.5h-1c1.38071187 0 2.5 1.1192881 2.5 2.5s-1.11928813 2.5-2.5 2.5h-3.5c-1.10320187-.0032948-1.9967052-.8967981-2-2v-1c.0032948-1.1032019.89679813-1.9967052 2-2-1.10320187-.0032948-1.9967052-.8967981-2-2v-1c.0032948-1.1032019.89679813-1.9967052 2-2-1.10320187-.0032948-1.9967052-.8967981-2-2v-1c.0032948-1.1032019.89679813-1.9967052 2-2-1.10320187-.0032948-1.9967052-.8967981-2-2v-1c.0032948-1.1032019.89679813-1.9967052 2-2h4.5c1.38071187 0 2.5 1.1192881 2.5 2.5s-1.11928813 2.5-2.5 2.5h2c1.3807119 0 2.5 1.1192881 2.5 2.5s-1.1192881 2.5-2.5 2.5z" fill="#e8edfc"/><path id="Shape" d="m11.27 29.27c.7168842-.715071.9316507-1.7919472.5439215-2.7273164-.3877291-.9353692-1.3013771-1.5444952-2.3139215-1.5426836h-2c1.38071187 0 2.5-1.1192881 2.5-2.5s-1.11928813-2.5-2.5-2.5h-3c1.38071187 0 2.5 1.1192881 2.5 2.5s-1.11928813 2.5-2.5 2.5h2c1.38071187 0 2.5 1.1192881 2.5 2.5s-1.11928813 2.5-2.5 2.5h-2c1.38071187 0 2.5 1.1192881 2.5 2.5s-1.11928813 2.5-2.5 2.5h-1c1.38071187 0 2.5 1.1192881 2.5 2.5s-1.11928813 2.5-2.5 2.5h3c1.38071187 0 2.5-1.1192881 2.5-2.5s-1.11928813-2.5-2.5-2.5h1c1.38071187 0 2.5-1.1192881 2.5-2.5s-1.11928813-2.5-2.5-2.5h2c.6634943.001185 1.3002463-.2614303 1.77-.73z" fill="#cad9fc"/><path id="Shape" d="m57 25c1.1032019.0032948 1.9967052.8967981 2 2v1c-.0032948 1.1032019-.8967981 1.9967052-2 2 1.1032019.0032948 1.9967052.8967981 2 2v1c-.0032948 1.1032019-.8967981 1.9967052-2 2 1.1032019.0032948 1.9967052.8967981 2 2v1c-.0032948 1.1032019-.8967981 1.9967052-2 2h-3.5c-1.3807119 0-2.5-1.1192881-2.5-2.5s1.1192881-2.5 2.5-2.5h-1c-1.3807119 0-2.5-1.1192881-2.5-2.5s1.1192881-2.5 2.5-2.5h-2c-1.3807119 0-2.5-1.1192881-2.5-2.5s1.1192881-2.5 2.5-2.5h2c-1.3807119 0-2.5-1.1192881-2.5-2.5s1.1192881-2.5 2.5-2.5h4.5c1.1032019.0032948 1.9967052.8967981 2 2v1c-.0032948 1.1032019-.8967981 1.9967052-2 2z" fill="#e8edfc"/><path id="Shape" d="m59 23v-1c-.0032948-1.1032019-.8967981-1.9967052-2-2h-3c1.1032019.0032948 1.9967052.8967981 2 2v1c-.0032948 1.1032019-.8967981 1.9967052-2 2 1.1032019.0032948 1.9967052.8967981 2 2v1c-.0032948 1.1032019-.8967981 1.9967052-2 2 1.1032019.0032948 1.9967052.8967981 2 2v1c-.0032948 1.1032019-.8967981 1.9967052-2 2 1.1032019.0032948 1.9967052.8967981 2 2v1c-.0032948 1.1032019-.8967981 1.9967052-2 2h3c1.1032019-.0032948 1.9967052-.8967981 2-2v-1c-.0032948-1.1032019-.8967981-1.9967052-2-2 1.1032019-.0032948 1.9967052-.8967981 2-2v-1c-.0032948-1.1032019-.8967981-1.9967052-2-2 1.1032019-.0032948 1.9967052-.8967981 2-2v-1c-.0032948-1.1032019-.8967981-1.9967052-2-2 1.1032019-.0032948 1.9967052-.8967981 2-2z" fill="#cad9fc"/><g fill="#fff"><path id="Shape" d="m8 7.09c.035 0 .07 0 .105.007s.064 0 .1.008c.08591831.01776928.16924558.04632903.248.085l2.547 1.28v-6.47c.0066584-.07269221.0224495-.14425582.047-.213-.539-.233-1.087-.468-1.657-.707-.07606425-.03165069-.15562305-.054142-.237-.067h-.081c-.05024526-.00832942-.10107004-.01267628-.152-.013-.033 0-.066.01-.1.016-.04054058.00684262-.08061756.01619392-.12.028-.0362805.01148017-.07170244.02551528-.106.042-.03197663.01365438-.06304089.02935352-.093.047-.03723527.02121317-.07298445.04493459-.107.071-.022.018-.044.036-.065.055-.035691.03088921-.06911079.064309-.1.1-.014.017-.026.035-.039.054-.03250332.04294374-.06095824.08880639-.085.137-.007.014-.012.03-.018.044-.05708638.12775582-.0867252.26607027-.087.406z"/><path id="Shape" d="m7.55 48.74c-.34011434-.1652369-.55434232-.5118967-.55-.89v-7.85h-1c-1.10320187-.0032948-1.9967052-.8967981-2-2v-1c.0032948-1.1032019.89679813-1.9967052 2-2-1.10320187-.0032948-1.9967052-.8967981-2-2v-1c.0032948-1.1032019.89679813-1.9967052 2-2-1.10320187-.0032948-1.9967052-.8967981-2-2v-1c.0032948-1.1032019.89679813-1.9967052 2-2-1.10320187-.0032948-1.9967052-.8967981-2-2v-1c.0032948-1.1032019.89679813-1.9967052 2-2h1v-11.92c.00525068-.03375764.01259822-.0671556.022-.1l-1.572-.79c-.07938749-.03883028-.16339648-.06739334-.25-.085-.033-.006-.065-.005-.1-.008-.04932333-.0072753-.09914684-.01061916-.149-.01-.04616049.00383212-.09196055.01118687-.137.022-.032.006-.064.008-.095.017-.05770375.01814021-.11360802.04157314-.167.07l-.043.019c-.0628961.03614015-.12187777.07870079-.176.127l-.008.006c-.20838834.18603376-.32676723.45265946-.325.732v11.92h-1c-1.10320187.0032948-1.9967052.8967981-2 2v1c.0032948 1.1032019.89679813 1.9967052 2 2-1.10320187.0032948-1.9967052.8967981-2 2v1c.0032948 1.1032019.89679813 1.9967052 2 2-1.10320187.0032948-1.9967052.8967981-2 2v1c.0032948 1.1032019.89679813 1.9967052 2 2-1.10320187.0032948-1.9967052.8967981-2 2v1c.0032948 1.1032019.89679813 1.9967052 2 2h1v7.85c-.00434232.3781033.20988566.7247631.55.89l18.436 9.218"/><path id="Rectangle-path" d="m7.128 46.528h2v8h-2z" transform="matrix(.447 -.894 .894 .447 -40.7 35.201)"/></g><path id="Shape" d="m8.147 51.529c-.55228473.0024853-1.00201466-.4432153-1.00449994-.9955-.00248529-.5522847.44321521-1.0020147.99549994-1.0045h.009c.55228475 0 1 .4477153 1 1s-.44771525 1-1 1z" fill="#428dff"/><path id="Shape" d="m57 19v-10.92c.0020877-.68905442-.3538509-1.32974383-.94-1.692-.5930777-.36978726-1.33617-.40315058-1.96-.088l-1.1.547v-4.847c-.0004416-.66977291-.336116-1.29486329-.8942037-1.66517942-.5580877-.37031614-1.2644937-.43669267-1.8817963-.17682058-13.513 5.665-18.44 9.759-20.224 12.123-1.784-2.364-6.709-6.458-20.219-12.121-.61749885-.2619299-1.32518268-.19687617-1.88458081.17323982-.55939813.37011598-.89601483.99600542-.89641919 1.66676018v4.847l-1.107-.554c-.61956141-.30916391-1.35495803-.27587176-1.94405002.08800912s-.94806146 1.00657635-.94894998 1.69899088v10.92c-1.65685425 0-3 1.3431458-3 3v1c.00260366.740399.28064791 1.4533329.78 2-.49935209.5466671-.77739634 1.259601-.78 2v1c.00260366.740399.28064791 1.4533329.78 2-.49935209.5466671-.77739634 1.259601-.78 2v1c.00260366.740399.28064791 1.4533329.78 2-.49935209.5466671-.77739634 1.259601-.78 2v1c0 1.6568542 1.34314575 3 3 3v6.85c-.00435718.7664295.43269687 1.4669614 1.123 1.8.13564254.0645856.28377165.0987168.434.1.38781223.0031455.74247236-.2182248.91-.568.11780128-.2380812.13466513-.5135952.04677973-.7642662s-.27310036-.4553361-.51377973-.5677338v-6.85h1.5c1.31286889.0045623 2.5170913-.7284658 3.11602026-1.8967678.59892894-1.168302.49109834-2.5739529-.27902026-3.6372322 1.5962989-.9636465 2.1350088-3.0231589 1.215-4.645 1.4552529-.4512555 2.4472-1.7973884 2.4472-3.321s-.9919471-2.8697445-2.4472-3.321c.2896095-.5124932.4437972-1.090353.448-1.679 0-.9282577-.3687489-1.8184964-1.02512627-2.4748737-.65637732-.6563774-1.54661602-1.0251263-2.47487373-1.0251263h-2.5v-10.916l2.589 1.293.034.017 17.377 8.686v39.768l-12.847-6.425c-.4940187-.2485281-1.0959719-.0495187-1.3445.4445s-.0495187 1.0959719.4445 1.3445l12.847 6.422c.2788081.1419747.5871257.2163135.9.217.2968355-.0060772.5884491-.079237.853-.214.3357245.2364413.736372.3632373 1.147.363h6c.4092627-.0005866.8083918-.1273442 1.143-.363.5496874.2860155 1.2043126.2860155 1.754 0l19.98-9.99c.6893214-.332572 1.1261976-1.0316518 1.123-1.797v-6.85c1.6568542 0 3-1.3431458 3-3v-1c-.0026037-.740399-.2806479-1.4533329-.78-2 .4993521-.5466671.7773963-1.259601.78-2v-1c-.0026037-.740399-.2806479-1.4533329-.78-2 .4993521-.5466671.7773963-1.259601.78-2v-1c-.0026037-.740399-.2806479-1.4533329-.78-2 .4993521-.5466671.7773963-1.259601.78-2v-1c0-1.6568542-1.3431458-3-3-3zm-48 13.5c0 .8284271-.67157288 1.5-1.5 1.5h-4.5c-.55228475 0-1-.4477153-1-1v-1c0-.5522847.44771525-1 1-1h4.5c.82842712 0 1.5.6715729 1.5 1.5zm-2.5 6.5h-3.5c-.55228475 0-1-.4477153-1-1v-1c0-.5522847.44771525-1 1-1h3.5c.82842712 0 1.5.6715729 1.5 1.5s-.67157288 1.5-1.5 1.5zm4.5-11.5c0 .8284271-.6715729 1.5-1.5 1.5h-6.5c-.55228475 0-1-.4477153-1-1v-1c0-.5522847.44771525-1 1-1h6.5c.8284271 0 1.5.6715729 1.5 1.5zm-2-5c0 .8284271-.67157288 1.5-1.5 1.5h-4.5c-.55228475 0-1-.4477153-1-1v-1c0-.5522847.44771525-1 1-1h4.5c.82842712 0 1.5.6715729 1.5 1.5zm49-.5v1c0 .5522847-.4477153 1-1 1h-4.5c-.8284271 0-1.5-.6715729-1.5-1.5s.6715729-1.5 1.5-1.5h4.5c.5522847 0 1 .4477153 1 1zm0 5v1c0 .5522847-.4477153 1-1 1h-6.5c-.8284271 0-1.5-.6715729-1.5-1.5s.6715729-1.5 1.5-1.5h6.5c.5522847 0 1 .4477153 1 1zm0 5v1c0 .5522847-.4477153 1-1 1h-4.5c-.8284271 0-1.5-.6715729-1.5-1.5s.6715729-1.5 1.5-1.5h4.5c.5522847 0 1 .4477153 1 1zm-7-30v5.847l-16.9 8.453c-.012.006-.02.016-.032.022-.3178556-.2073142-.688523-.3190698-1.068-.322h-2v-1.437c.079-.315 1.533-4.821 20-12.563zm-42 5.847v-5.847c18.989 7.961 19.989 12.5 20 12.5v1.5h-2c-.379999.0008668-.7517473.1108987-1.071.317-.012-.006-.02-.016-.032-.022zm18 50.153v-40h6v.08 39.92zm28-10.154-20 10v-39.763l17.37-8.683c.019-.008.035-.018.053-.027l2.577-1.293v10.92h-2.5c-1.9329966 0-3.5 1.5670034-3.5 3.5.0042028.588647.1583905 1.1665068.448 1.679-1.4552529.4512555-2.4472 1.7973884-2.4472 3.321s.9919471 2.8697445 2.4472 3.321c-.9200088 1.6218411-.3812989 3.6813535 1.215 4.645-.7701186 1.0632793-.8779492 2.4689302-.2790203 3.6372322.598929 1.168302 1.8031514 1.9013301 3.1160203 1.8967678h1.5zm3-9.846c0 .5522847-.4477153 1-1 1h-3.5c-.8284271 0-1.5-.6715729-1.5-1.5s.6715729-1.5 1.5-1.5h3.5c.5522847 0 1 .4477153 1 1z" fill="#428dff"/></g></g></svg>
