<?xml version="1.0" encoding="UTF-8"?><svg xmlns="http://www.w3.org/2000/svg" viewBox="0 0 508.31 503.89"><g id="uuid-9c934c83-8943-491d-b318-c52ce0df7036"><g id="uuid-cb2016d3-efb5-4e45-8c7a-e6b6acb61d09"><path d="m497.97,30.07c4.56,2.72,8.14,7.12,9.59,12.24,2.25,7.92-.72,17.06-7.19,22.14-9.87,7.74-28.53,7.28-37.11-2.38-4.67-5.26-6.29-13.33-3.16-19.63,4.7-9.44,19.54-16.3,29.69-15.17,2.89.32,5.68,1.31,8.18,2.8Z" style="fill:#ffb6d4; stroke-width:0px;"/><path d="m26.91,293.3c-4.41,1.87-9.7,1.67-14.77.02-5-1.63-9.48-5.33-11.25-10.28-1.79-5-.69-10.62,1.49-15.46,3.17-7.03,8.97-13.24,16.44-15.19,7.46-1.95,16.44,1.37,19.49,8.45,3.62,8.42-.74,23.4-6.84,29.41-1.35,1.33-2.89,2.34-4.56,3.04Z" style="fill:#a6ffa1; stroke-width:0px;"/></g><path d="m487.87,64.5h-.99c-1.12-.21-1.88-.95-2.61-1.76-2.66-2.93-5.34-5.84-8.01-8.76-.57-.62-1.22-1.06-2.08-1.14-1.1-.1-1.94.36-2.66,1.15-2.68,2.93-5.37,5.85-8.04,8.79-.72.8-1.47,1.52-2.58,1.73h-.99c-1.14-.27-1.92-1.07-2.73-1.83-.66-.62-1.35-1.22-2.01-1.85-.24-.23-.47-.47-.65-.75-.88-1.37-.7-2.9.45-4.16,3.03-3.31,6.08-6.62,9.09-9.95.4-.45.76-1,.95-1.57.47-1.41.05-2.64-.94-3.72-3.04-3.31-6.07-6.63-9.11-9.94-1.33-1.46-1.36-3.32.01-4.7,1.08-1.08,2.23-2.09,3.39-3.1.31-.27.71-.48,1.11-.61,1.4-.43,2.57,0,3.54,1.05,2.83,3.09,5.66,6.18,8.49,9.27.57.62,1.22,1.07,2.08,1.16,1.11.11,1.97-.36,2.7-1.16,2.81-3.07,5.62-6.14,8.44-9.21.25-.27.52-.54.83-.74,1.35-.86,2.85-.72,4.1.4,1.02.91,2.02,1.83,3.02,2.77.23.21.45.46.61.72.86,1.38.68,2.89-.48,4.16-3.03,3.31-6.08,6.62-9.09,9.95-.4.44-.74.98-.93,1.54-.46,1.41-.06,2.65.93,3.73,3.04,3.31,6.07,6.63,9.11,9.94,1.42,1.55,1.33,3.52-.22,4.94-.67.61-1.35,1.22-2.01,1.84-.8.75-1.59,1.52-2.71,1.8Z" style="fill:#fff; stroke:#cc115d; stroke-miterlimit:10; stroke-width:2.44px;"/><path d="m6.99,276.17c.38-.51.71-1.07,1.15-1.53,1.18-1.24,2.41-2.43,3.62-3.64,1.11-1.1,2.25-1.1,3.36.02,3.95,3.97,7.89,7.94,11.84,11.92.13.13.26.28.42.45.17-.16.32-.29.46-.43,7.87-7.87,15.74-15.74,23.61-23.61.67-.67,1.41-1.06,2.34-.72.37.13.72.39,1.01.67,1.34,1.3,2.65,2.63,3.97,3.95,1.13,1.13,1.14,2.26.01,3.39-4.22,4.23-8.45,8.45-12.68,12.68-5.67,5.67-11.34,11.33-17,17-.67.67-1.41,1.05-2.35.71-.34-.12-.67-.35-.93-.61-6.04-6.06-12.08-12.14-18.1-18.22-.3-.3-.48-.73-.72-1.09,0-.31,0-.62,0-.92Z" style="fill:#fff; stroke:#2a6823; stroke-miterlimit:10; stroke-width:2.25px;"/><path d="m57.69,315.02c-.34,13.25,6.74,27.4,14.37,37.46,12.02,15.86,29.5,27.13,47.35,35.42,59.43,27.63,127.73,26.22,193.22,23.6,37.05-1.48,75.19-3.43,108.81-19.08,31.95-14.87,58.38-42.71,68.29-76.53,6.33-21.62,5.9-44.67,3.3-67.05-2.11-18.13-6.23-37.33-19.3-50.07-13.58-13.24-36.75-20.23-39.1-39.05-1.08-8.64,3-16.95,5.65-25.24,11.34-35.49-4.61-75.98-32.93-100.2C379.02,10.08,340.6.35,303.34,0c-81.47-.75-160.73,41.46-211.15,105.47-13.33,16.92-24.93,35.52-31.31,56.09-6.38,20.57-7.24,43.3.46,63.41,6.59,17.19,19.42,34.4,14.25,52.07-2.57,8.77-9.23,15.64-13.89,23.5-2.67,4.51-3.88,9.43-4.01,14.47Z" style="fill:#d5d2ff; stroke-width:0px;"/></g><g id="uuid-18e82fc0-d170-4036-b42c-4b1fc8019faa"><g id="uuid-86fe08e2-e182-4fc1-87d1-8d73f55bc83e"><path id="uuid-b906a55c-5b8f-4791-b3c3-805019a626b5" d="m408.82,414.69c-4.1-6.93-8.39-13.74-13.14-20.24-.32-.88-.95-1.55-1.47-2.3-7.03-10.23-14.42-20.17-22.82-29.33-2.63-2.87-5.28-5.74-8.41-8.1,2.31-.88,4.7-1.51,7.1-2.1.55-.36,1.15-.56,1.8-.64,4.44-1.73,8.91-3.38,13.3-5.22,11.16-4.68,21.51-10.72,30.59-18.79,4.66-4.15,8.71-8.85,12.45-13.84,9.06-12.09,15.22-25.55,19.03-40.11,1.49-5.69,2.22-11.5,2.7-17.36.47-5.81.34-11.61.22-17.42-.01-.63.03-1.26.05-1.89-.41-1.98-.34-4-.52-6.01-.63-6.94-1.95-13.75-3.48-20.55-1.69-7.52-3.62-14.96-5.68-22.38-1.04-3.78-2.75-7.31-4.02-11-.79-2.27-1.5-4.55-2.29-6.93,1.88-.28,3.58-.53,5.27-.77,1.36-.43,2.72-.86,4.08-1.29,7.9-2.46,14.79-6.66,20.98-12.09.42-.37.71-1.15,1.53-.78-.11-.94.55-1.46,1.12-2.01,2.87-2.81,5.49-5.82,7.57-9.29,3.01-5,5.18-10.3,6.24-16.06.27-1.49.09-2.98.38-4.43.34-1.72.3-3.41.13-5.12-.7-1.96-.79-4.05-1.26-6.06-1.19-5.04-2.84-9.88-6.02-14.11-3.09-4.1-7.65-6.81-12.65-7.96-4.75-1.09-8.98-3.18-12.82-6.24-5.62-4.47-10.32-9.82-15.16-15.06-4.52-4.9-8.75-10.07-13.51-14.76-4.5-4.44-9.48-8.19-15.22-10.87-6.17-2.88-12.54-3.94-19.28-2.25-8.13,2.03-15.1,6.04-21.13,11.8-.54.51-.98,1.13-1.65,1.5-5.19,5.49-9.88,11.37-13.69,17.92-1.39,2.39-2.67,4.83-3.61,7.44-.42,1.16-.53,1.22-1.75.78-2.65-.95-5.27-2-7.93-2.89-10.54-3.54-21.32-6.07-32.31-7.75-13.18-2.01-26.43-2.8-39.74-2.25-20.6.86-40.66,4.39-59.78,12.43-.26.11-.54.2-.8.33-.45.21-.77.14-.96-.35-.04-.11-.08-.21-.13-.32-3.5-8.59-8.82-15.98-15-22.8-.96-1.06-1.93-2.12-2.9-3.19-.86-.49-1.47-1.28-2.19-1.92-6.21-5.57-13.3-9.36-21.53-11.03-6.45-1.31-12.42.07-18.23,2.81-8.25,3.9-14.62,10.09-20.56,16.8-5.26,5.94-10.55,11.87-16.06,17.59-2.8,2.91-5.91,5.48-9.18,7.83-3.12,2.24-6.65,3.68-10.4,4.45-7.37,1.51-12.24,6-15.46,12.55-1.95,3.95-3.04,8.18-3.8,12.5-.2,1.13-.39,2.26-.58,3.38-.28,1.77-.24,3.54-.08,5.29.43,4.7,2.5,12.04,4.61,16.26,2.05,4.11,4.57,7.91,7.85,11.18.69.69,1.52,1.42,1.68,2.52.8-.17,1.08.56,1.5.95,6.44,6.03,13.86,10.61,22.47,13.45.64.21,2.05.53,2.7.71.45.12.88.3,1.31.45,1.65.16,3.26.61,4.99.64.05.76-.24,1.33-.41,1.91-1.36,4.64-3.43,9.02-4.9,13.61-2.5,7.83-4.55,15.78-6.24,23.83-.79,3.77-1.84,7.48-2.43,11.29-.99,6.37-1.72,12.76-1.8,19.21,0,.63-.09,1.26-.13,1.89.19.51.08,1.03.07,1.54-.84,24.17,5.6,46.24,19.09,66.3,3.8,5.65,7.98,10.99,12.89,15.71,6.88,6.62,14.65,12.01,23.12,16.43,7.2,3.76,14.73,6.73,22.34,9.52.26.1.57.1.77.34.5.05.97.17,1.37.49,2.18.61,4.35,1.22,6.53,1.82.32.09.66.13.99.2.21.09.43.15.64.22-.22-.06-.43-.12-.64-.22.22.51-.2.71-.47.98-1.37,1.31-2.78,2.57-4.1,3.93-7.12,7.34-13.53,15.29-19.62,23.5-2.42,3.27-4.91,6.49-7.02,9.98-.06.04-.1.1-.1.17.13.24.04.32-.21.28l-.03.04c.08.24-.01.38-.24.44-3.89,5.6-9.92,14.76-13.53,20.55,0,0,141.25,99.19,269.6.38Z" style="fill:#ffd6e7; stroke-width:0px;"/><path d="m361.25,442.67c-.15-38.89-40.28-70.39-89.76-70.39s-85.61,28.48-89.43,64.71c42.02,17.79,109.73,35.07,179.19,5.68Z" style="fill:#ffe6f3; stroke-width:0px;"/><g id="uuid-46d26859-fe02-4e97-a2c6-2361210b0b64"><path d="m118.55,168.99c1.85.39,3.65.51,5.49.55,4.77.1,9-1.55,13.04-3.84,5.36-3.03,9.88-7.1,13.99-11.61,3.2-3.51,6.06-7.31,8.74-11.25,3.64-5.34,6.6-11.04,9.37-16.84,1.35-2.84,2.52-5.79,3.63-8.74,2.1-5.59,3.68-11.34,4.77-17.19.71-3.81,1.33-7.68,1.16-11.6-.07-1.61-.06-3.22,0-4.83.1-3.02-.41-5.93-1.33-8.79-.12-.38-.57-.84-.07-1.25.39-.32,1.25.03,1.57.71.54,1.14.95,2.33,1.19,3.58.75,3.82,1.2,7.66,1.48,11.56.2,2.82.3,5.62.21,8.42-.11,3.19-.47,6.37-.89,9.55-.42,3.24-1.06,6.42-1.74,9.61-.64,2.99-1.62,5.86-2.6,8.73-1.16,3.36-2.57,6.63-4.19,9.79-2.2,4.29-4.71,8.4-7.65,12.25-2.65,3.48-5.52,6.77-8.74,9.72-5.62,5.15-11.71,9.58-19,12.16-4.36,1.54-8.87,1.85-13.41,1.51-1.84-.14-3.66-.73-5.02-2.18Z" style="fill:#eda2c8; stroke-width:0px;"/><path d="m428.73,169.58c-1.37,1.02-2.93,1.5-4.57,1.63-6.58.49-12.4-1.75-17.94-5.04-6.24-3.7-11.54-8.52-16.42-13.81-3.89-4.22-7.27-8.86-10.15-13.84-3.15-5.44-5.66-11.15-7.69-17.1-1.39-4.08-2.38-8.26-3.12-12.48-.43-2.46-.59-5-.87-7.49-.48-4.2-.27-8.38-.25-12.57.02-4.7.69-9.35,1.74-13.94.19-.84.48-1.66.94-2.4.18-.29.38-.57.62-.82.25-.26.59-.41.92-.17.27.2.18.5.1.79-.23.89-.36,1.81-.68,2.66-.78,2.09-.66,4.29-.88,6.44-.16,1.6-.06,3.22-.03,4.83.07,3.61.52,7.2,1.14,10.74.96,5.53,2.39,10.96,4.25,16.27,2.38,6.79,5.27,13.34,8.75,19.64,2.09,3.78,4.38,7.41,6.79,10.98,4.17,6.16,9.12,11.67,14.6,16.68,3.66,3.34,7.77,6.08,12.45,7.85,2.97,1.12,6.01,1.37,9.13.82.37-.07.78-.28,1.17.31Z" style="fill:#eda2c8; stroke-width:0px;"/></g><g id="uuid-77bca69d-9db5-42d1-a3ed-fdf3f1bd363b"><path d="m352.68,176.79c4.45.03,8.49,1.05,11.98,3.34.49.32.94.7,1.35,1.1.45.45.48.97.02,1.42-.44.44-.94.29-1.52.08-1.94-.72-3.98-1.04-6.13-1.13-5.78-.23-11.24.86-16.51,2.58-2.47.8-4.9,1.82-6.72,3.52-.37.34-.78.66-1.31.86-.47.18-.9.34-1.36-.02-.36-.29-.56-.56-.51-1.04.19-1.64,1.27-2.92,2.53-4.06,3.86-3.48,8.58-5.74,14.4-6.34.63-.07,1.24-.25,1.86-.3.63-.05,1.28-.01,1.91-.01Z" style="fill:#ffb8d8; stroke-width:0px;"/><path d="m206.15,184.3c1.99.07,4-.27,5.91-1.15.45-.21.89-.31,1.25.12.43.53.13.95-.25,1.35-2.24,2.39-4.99,3.66-8.23,4.23-2.63.46-5.17.23-7.62-.47-4.79-1.36-8.68-4.08-11.23-8.49-.2-.34-.4-.71-.39-1.13.01-.56-.16-1.2.46-1.56.67-.39,1.04.17,1.46.55,3.56,3.19,7.81,4.91,12.43,5.83,2.01.4,4.05.74,6.22.71Z" style="fill:#ffb8d8; stroke-width:0px;"/></g><g id="uuid-2dfcbeaf-5450-47fe-be97-afecde04e0b2"><g id="uuid-c7530f0f-a13c-4ee1-875c-c52fc60b7aec"><path d="m182.95,259.04c-.05.12-.13.4-.28.65-1.43,2.55-2.86,5.1-4.3,7.65-.15.26-.32.51-.49.76-.39.57-1.05.58-1.66.39-.71-.22-.55-.73-.36-1.17.26-.59.55-1.18.87-1.75,1.24-2.24,2.49-4.48,3.76-6.72.14-.25.38-.48.62-.69.33-.28.67-.68,1.24-.48.62.22.64.71.6,1.34Z" style="fill:#ffcce3; stroke:#ffcce3; stroke-miterlimit:10; stroke-width:2px;"/><path d="m170.02,258.92c.83.04,1.35.54,1.02,1.17-.57,1.11-.96,2.29-1.81,3.28-.31.36-.7.82-1.38.51-.57-.26-1.01-.63-.67-1.26.56-1.05,1.05-2.12,1.61-3.17.22-.41.69-.55,1.23-.53Z" style="fill:#ffcce3; stroke:#ffcce3; stroke-miterlimit:10; stroke-width:2px;"/><path d="m193.17,263.62c-.59.96-.94,2.32-2.07,3.38-.27.26-.62.54-1.09.39-.52-.17-.67-.57-.64-.99.02-.28.02-.6.18-.83.67-.93.87-2.06,1.77-2.89.32-.29.68-.68,1.23-.51.62.19.69.68.6,1.45Z" style="fill:#ffcce3; stroke:#ffcce3; stroke-miterlimit:10; stroke-width:2px;"/></g><g id="uuid-809c6692-fa41-4f99-badf-bb308d476d10"><g id="uuid-71cbfd64-8c9e-404d-9118-949d2cb5fdf1"><path d="m366.54,257.37c-.05.12-.13.4-.28.65-1.43,2.55-2.86,5.1-4.3,7.65-.15.26-.32.51-.49.76-.39.57-1.05.58-1.66.39-.71-.22-.55-.73-.36-1.17.26-.59.55-1.18.87-1.75,1.24-2.24,2.49-4.48,3.76-6.72.14-.25.38-.48.62-.69.33-.28.67-.68,1.24-.48.62.22.64.71.6,1.34Z" style="fill:#ffcce3; stroke:#ffcce3; stroke-miterlimit:10; stroke-width:2px;"/><path d="m353.61,257.25c.83.04,1.35.54,1.02,1.17-.57,1.11-.96,2.29-1.81,3.28-.31.36-.7.82-1.38.51-.57-.26-1.01-.63-.67-1.26.56-1.05,1.05-2.12,1.61-3.17.22-.41.69-.55,1.23-.53Z" style="fill:#ffcce3; stroke:#ffcce3; stroke-miterlimit:10; stroke-width:2px;"/><path d="m376.77,261.95c-.59.96-.94,2.32-2.07,3.38-.27.26-.62.54-1.09.39-.52-.17-.67-.57-.64-.99.02-.28.02-.6.18-.83.67-.93.87-2.06,1.77-2.89.32-.29.68-.68,1.23-.51.62.19.69.68.6,1.45Z" style="fill:#ffcce3; stroke:#ffcce3; stroke-miterlimit:10; stroke-width:2px;"/></g></g></g><g id="uuid-ef5ae866-ecc7-4180-b5b7-de4e6d7e1991"><path id="uuid-8df359f3-1850-4f26-9e4f-af413c1fe578" d="m268.58,324.17c-4.11-.64-7.71-2.01-10.66-4.31-.42-.32-.79-.69-1.11-1.06-.36-.42-.33-.83.15-1.13.46-.29.9-.1,1.41.15,1.71.84,3.55,1.38,5.52,1.74,5.3.98,10.48.87,15.55.25,2.37-.29,4.74-.77,6.62-1.86.38-.22.8-.42,1.31-.5.46-.08.88-.15,1.25.2.3.28.45.52.34.9-.37,1.27-1.52,2.14-2.82,2.86-3.98,2.22-8.61,3.36-14.05,3.03-.59-.04-1.17.03-1.76-.02-.59-.05-1.18-.17-1.77-.26Z" style="fill:#ffb8d5; stroke-width:0px;"/><g id="uuid-37bab03d-d620-4f36-9472-f585d8b143ef"><path d="m238.91,306.02c10.85,2.7,22.2,1.15,32.51-2.76,1.55-.57,2.71.29,4.19.77,10.28,3.52,21.24,3.65,31.93,1.98.1-.03.23.03.24.14,0,.08-.04.15-.11.18-11.23,4.23-24.05,4.57-35.28.15,0,0,.27,0,.27,0-1.99.68-4.18,1.42-6.24,1.9-6.32,1.58-13.01,1.91-19.42.66-2.84-.57-5.65-1.39-8.25-2.74-.08-.04-.12-.15-.07-.23.06-.09.15-.11.24-.07h0Z" style="fill:#d873a1; stroke-width:0px;"/></g></g><g id="uuid-fa80d21e-990d-421b-894f-ecd463477c47"><path d="m270.72,223.38c-12.06.4-23.98,3.72-33.53,9.89-10.55,6.81-19.53,18.12-19.47,29.74.05,8.32,4.74,16.54,12.18,21.86,5.41,3.87,12.22,6.48,19.2,7.15,7.47.72,12.04-.71,20.07-1.72,2.5-.31,7.04-.42,9.52-.02,4.59.74,6.08,1.23,9.18,1.59,3.09.36,6.23.36,9.33.04,7.44-.78,14.85-3.46,20.2-8,19.18-16.25,7.41-42.81-13.21-53.44-9.99-5.15-21.83-7.48-33.47-7.09Z" style="fill:#ffafca; stroke-width:0px;"/><path d="m270.73,223.5c-17.8.7-36.41,7.96-46.56,23.14-3.28,4.9-5.51,10.63-5.34,16.4.36,11.88,9.98,21.26,20.76,24.95,5.42,1.98,11.26,2.72,16.99,2.15,4.4-.44,8.9-1.47,13.43-1.95,3.19-.27,6.37-.36,9.53.2,4.36.78,8.69,1.9,13.1,1.86,14,.29,29.97-7.42,32.86-22.19,1.65-8.71-1.58-17.59-6.82-24.62-10.85-14.77-30.24-20.26-47.94-19.91h0Zm0-.23c17.84-.53,37.36,4.97,48.65,19.6,5.55,7.1,9.09,16.33,7.55,25.41-2.7,15.74-19.42,24.33-34.28,24.08-6.08.22-11.91-2.12-17.93-2.11-6.06-.12-11.93,1.47-17.94,2.01-6.04.55-12.2-.28-17.87-2.42-11.3-4.03-21.24-14.28-21.33-26.8-.03-6.12,2.43-11.99,5.88-16.92,10.6-15.06,29.34-22.32,47.28-22.86h0Z" style="fill:#fcc8df; stroke-width:0px;"/><g id="uuid-a0cbf802-af8c-42a2-8b52-3e3d6982e788"><path d="m246.43,237.58c13.77-9.45,35.51-10.27,49.72-1.39.98.64,1.94,1.29,2.85,2l-.15.34-3.14-1.14c-1.75-.71-4.55-1.37-6.39-1.91-9.74-2.22-19.96-2.29-29.81-.72-1.89.34-4.69.85-6.54,1.33-2.17.51-4.32,1.1-6.41,1.83l-.13-.34h0Z" style="fill:#ffcce6; stroke-width:0px;"/></g><path d="m295.83,255.93c-.21,1.86-.24,3.75-1.36,5.53-.28.45-.64.89-.98,1.33-.42.55-1.14.92-2.12.92-1.06,0-1.72-.42-2.26-.97-1.11-1.13-1.51-2.39-1.91-3.65-.43-1.34-.48-2.71-.32-4.06.22-1.87.51-3.74,2.07-5.43.56-.61,1.19-1.17,2.43-1.15,1.23.02,1.84.58,2.38,1.2,1.06,1.19,1.44,2.47,1.74,3.79.19.83.44,1.65.33,2.49Z" style="fill:#d873a1; stroke-width:0px;"/><path d="m259.9,256.49c.18,1.82-.22,3.78-1.38,5.66-.22.36-.48.71-.78,1.05-.97,1.07-3.34,1.04-4.35-.01-1-1.04-1.44-2.18-1.79-3.35-.54-1.8-.38-3.62-.29-5.42.07-1.32.6-2.61,1.39-3.85.16-.26.43-.49.69-.72,1.55-1.38,3.43-1.31,4.72.16,1.21,1.39,1.58,2.89,1.79,4.42.08.62.01,1.26.01,2.07Z" style="fill:#d873a1; stroke-width:0px;"/></g><g id="uuid-26d3e924-00f4-4d59-a33e-f826b722e8f4"><path d="m208.71,214.02c.04,9.65-5.08,18.31-11.77,19.92-6.55,1.58-12.46-4.12-13.67-13.19-1.43-10.71,4.25-21.96,12.05-23.39,8.18-1.5,13.09,7.16,13.39,15.28.02.46,0,.92,0,1.38Z" style="fill:#873c64; stroke-width:0px;"/><g id="uuid-174f5312-30fd-4f1d-896b-00f097808d7f"><path d="m203.19,208.13c.01,2.06-1.04,2.99-2.28,2.02-1.14-.89-2.05-2.13-2.59-3.81-.2-.61-.3-1.24-.12-1.91.21-.81.69-1.26,1.3-1.1,1.57.39,2.68,1.68,3.52,3.48.2.42.18.93.17,1.32Z" style="fill:#fff; stroke-width:0px;"/></g><path d="m340.12,214.04c-.04,9.65,5.08,18.31,11.77,19.92,6.55,1.58,12.46-4.12,13.67-13.19,1.43-10.71-4.25-21.96-12.05-23.39-8.18-1.5-13.09,7.16-13.39,15.28-.02.46,0,.92,0,1.38Z" style="fill:#873c64; stroke-width:0px;"/><g id="uuid-9e753c46-4d74-41fa-a050-e105887dee2a"><path d="m360.26,208.14c.01,2.06-1.04,2.99-2.28,2.02-1.14-.89-2.05-2.13-2.59-3.81-.2-.61-.3-1.24-.12-1.91.21-.81.69-1.26,1.3-1.1,1.57.39,2.68,1.68,3.52,3.48.2.42.18.93.17,1.32Z" style="fill:#fff; stroke-width:0px;"/></g></g><g id="uuid-4364573f-9d07-4cfa-a16c-b03dc75d6164"><path d="m326.61,359.26c3.57-.44,7.14-.79,10.71-1.28,2.71-.37,5.45-.63,8.19-.83,3.3-.24,6.57-.85,9.83-1.43,2.53-.45,5.08-.77,7.64-1,3.13,2.36,5.78,5.23,8.41,8.1,8.4,9.16,15.79,19.1,22.82,29.33.52.75,1.15,1.43,1.47,2.3-.69.09-1.01-.46-1.42-.85-4.23-4.04-8.7-7.79-13.33-11.36-4.89-3.76-10.2-6.8-15.62-9.69-6.51-3.48-13.33-6.18-20.35-8.37-4.31-1.34-8.7-2.51-13.17-3.13" style="fill:#ffc5df; stroke-width:0px;"/><path d="m153.33,392.82c2.11-3.49,4.6-6.71,7.02-9.98,6.09-8.21,12.49-16.15,19.62-23.5,1.32-1.36,2.73-2.62,4.1-3.93.28-.27.7-.47.47-.98,1.12.5,2.36.5,3.53.61,3.7.35,7.32,1.22,10.99,1.71,1.47.2,2.96.27,4.44.43,2.44.27,4.88.56,7.31.84,1.47.17,2.95.36,4.42.53,2.49.3,4.98.6,7.48.9,1.69.2,3.37.38,5.06.74-.21.03-.42.08-.63.08-7.1-.11-14.02,1.04-20.81,2.99-6.23,1.78-12.34,3.91-18.24,6.65-6.57,3.05-12.9,6.53-18.83,10.69-3.37,2.36-6.68,4.82-9.71,7.64-1.76,1.63-3.71,3.05-5.58,4.56-.2.16-.41.16-.63.02Z" style="fill:#ffc5df; stroke-width:0px;"/></g><g id="uuid-8100df38-0b18-4b0a-a2f6-7d4a666c968b"><path d="m408.79,415.31c-9.66-16.43-21.13-31.74-33.64-46.11-4.18-4.77-8.46-9.48-12.88-13.98-.59-.58-.32-1.6.44-1.86,9.04-3.17,18.21-5.8,26.8-9.68,8.6-3.77,16.59-8.88,23.43-15.31,8.56-7.89,15.53-17.75,21.41-27.82,3.41-6.15,6.79-12.38,9-19.03,1.48-4.43,2.59-8.96,3.41-13.56,3.89-23.29.4-47.17-5.66-69.8-1.24-4.56-2.62-9.08-4.12-13.55-1.51-4.46-3.14-8.94-4.95-13.19-.77-1.64.71-3.57,2.46-3.36,11.7.31,28.55-12.15,35.37-21.11,4.38-5.65,7.58-12.18,8.68-19.11,1.54-10-.9-21.72-7.74-29.39-3.53-3.81-9.01-5.37-13.93-6.98-5.64-2.21-10.39-5.73-14.64-10-10.1-10.95-20.38-21.77-31.21-31.92-5.83-4.23-14.38-8.05-22.64-6.91-2.29.3-4.59.94-6.65,1.96-8.28,2.5-15.05,8.25-20.67,14.71-5.68,6.6-10.52,14.22-14.22,22.08-.39.84-1.35,1.23-2.21.94-11.51-4-23.43-6.93-35.49-8.99-33.04-5.44-67.96-5.1-99.79,6.13,0,0-4.32,1.56-4.32,1.56,0,0-.54.19-.54.19-.04.01-.33.13-.51.13-.84.11-1.64-.63-1.93-1.21-1.27-2.26-3.23-5.77-4.52-8.01-1.23-1.95-2.54-4.05-3.67-5.83-5.05-7.51-10.83-14.96-18.45-20.01-3.8-2.44-8.1-4.06-12.6-4.62-4.43-.52-9.27-.25-13.72-.5-7.55.8-13.53,6.59-18.94,11.52-6.46,6.08-12.7,13.74-18.62,20.42-4.07,4.68-8.26,9.34-13.26,13.11-2.65,1.9-5.49,3.94-8.8,4.45-9.5.3-17.65,7.62-20.1,16.71-2.55,8.97-2.72,19.24.66,28.03,7.3,17.88,25.93,28.75,43.44,34.94,1.13.35,1.71,1.64,1.23,2.72-9.36,21.37-14.57,44.62-15.34,67.95-1.45,51.06,24.23,89.92,72.05,108.19,4.37,1.63,8.88,3.08,13.36,4.07.92.11,1.25,1.37.61,1.97-4.41,4.5-8.7,9.21-12.88,13.97-8.34,9.57-16.22,19.56-23.41,30.03-3.64,5.2-7,10.6-10.27,16.05-.06.11-.21.15-.32.08-.11-.06-.14-.2-.08-.31,3.1-5.56,6.28-11.1,9.8-16.41,10.52-16,22.34-31.13,35.49-45.07,0,0,.61,1.97.61,1.97-27.93-6.34-54.14-22.46-70.49-46.22-27.2-40.22-21.38-95.31-2.78-137.92,0,0,1.23,2.72,1.23,2.72-18.57-6.66-37.84-18.47-45.26-37.61-3.48-9.64-3.17-20.26-.26-30.01,3.25-10.58,12.17-17.88,23.05-18.18,2.65-.7,4.99-2.23,7.22-3.82,4.91-3.59,9.1-8.07,13.15-12.62,6.1-6.64,12.3-14.23,18.92-20.33,4.56-4.23,9.33-8.44,15.22-10.79,2.92-1.31,6.33-1.05,9.37-.89,6.15-.03,12.65.22,18.36,2.93.58.19,1.53.79,2.1,1.08.68.39,1.4.73,2.05,1.17,0,0,1.92,1.35,1.92,1.35,1.84,1.28,3.75,2.98,5.37,4.53,5.47,5.4,10.15,11.87,14.18,18.39,1.41,2.11,3.41,5.74,4.7,8,0,0,1.15,2.02,1.15,2.02.1.2.29.34.34.35,2.19-.81,6.89-2.54,9.3-3.41,2.25-.62,6.67-2.01,8.91-2.64,40.56-10.23,84.06-7.5,123.76,5.32,0,0-2.22.97-2.22.97,6.87-14.39,16.24-28.49,30.42-36.51,2.09-1.1,4.27-2.03,6.55-2.75l-.44.19c.46-.25.77-.4,1.14-.56,5.2-2.23,11.12-2.45,16.6-1.38,5.83,1.21,11.24,3.96,16.04,7.44,5.58,5.13,10.87,10.39,16.14,15.74,5.24,5.34,10.44,10.79,15.5,16.24,1.14,1.2,2.56,2.4,3.94,3.49,2.75,2.14,5.77,4.07,9.01,5.27,0,0,1.21.41,1.21.41,0,0,1.35.42,1.35.42.91.28,1.82.58,2.75.91,7.99,2.52,13.91,8.67,16.8,16.53,8.06,19.46.64,39.86-14.91,53.02-7.86,6.7-21.02,15.21-31.78,14.46,0,0,2.53-3.35,2.53-3.35,3.73,9,6.64,18.09,9.17,27.45,6.15,23.25,9.36,47.86,5.12,71.74-1.37,7.18-3.39,14.26-6.44,20.91-2.04,4.3-4.41,8.7-6.78,12.82-6.18,10.28-13.37,20.33-22.42,28.35-14.5,13.59-33.27,19-51.66,24.73,0,0,.44-1.86.44-1.86,13.14,13.95,24.98,29.05,35.5,45.05,3.52,5.31,6.71,10.84,9.82,16.4.06.11.02.25-.09.31-.11.06-.25.02-.31-.09h0Z" style="fill:#d37aa3; stroke-width:0px;"/></g></g><g id="uuid-4d8ad3b3-60df-4500-ad91-4626cfc2de1e"><path d="m244.7,459.97c.79-4.28,1.6-8.56,2.4-12.84.81-4.34,1.6-8.68,2.43-13.01,1.1-5.8,2.25-11.59,3.34-17.39,1.34-7.09,2.58-14.2,3.97-21.29.54-2.75.86-5.55,1.72-8.24,1.34.54,2.4,1.52,3.62,2.26,5.05,3.07,10.4,4.08,16.13,2.56,3.17-.84,6.26-1.94,8.5-4.58.26-.31.58-.56,1.01-.59.79,2.76,1.2,5.59,1.76,8.4,1.06,5.33,2.04,10.68,3.04,16.02,1.39,7.42,2.78,14.84,4.18,22.26,1.25,6.63,2.56,13.25,3.73,19.9.48,2.71,1.06,5.39,1.53,8.09.19,1.11.35,2.24.58,3.35.13.65.14,1.32.03,1.98-.12.72-.37,1.41-.69,2.06-1.03,2.14-2.43,4.03-3.87,5.9-4.49,5.79-8.97,11.59-13.45,17.38-2.26,2.93-4.63,5.79-7.15,8.5-.39.42-.79.84-1.19,1.24-2.94,2.94-3.88,2.44-6.87-.85-2.48-2.72-4.83-5.57-7.04-8.51-4.09-5.44-8.26-10.83-12.33-16.28-1.92-2.57-4.1-4.97-5.43-7.96-.64-1.45-1.19-2.88-.68-4.48" style="fill:#d3a9ff; stroke-width:0px;"/><path d="m273.86,396.87c1.38,14.85,1.63,30.37,1.72,45.3-.08,14.94-.33,30.44-1.72,45.3-1.39-14.85-1.64-30.37-1.72-45.3.09-14.94.34-30.44,1.72-45.3h0Z" style="fill:#9c78d6; stroke-width:0px;"/><path d="m258.47,385.86c.75-.03,1.47,0,2.19.29,3.09,1.26,6.29,1.9,9.63,2.2,4.29.39,8.41-.04,12.48-1.32,1.05-.33,2.05-.78,2.95-1.38.57-.38,1.13-.52,1.77-.5.07.58.47,1.09.32,1.71-.44.03-.75.28-1.01.59-2.23,2.64-5.32,3.74-8.5,4.58-5.73,1.52-11.08.51-16.13-2.56-1.21-.74-2.28-1.72-3.62-2.26-.03-.45-.06-.9-.09-1.35Z" style="fill:#9c78d6; stroke-width:0px;"/><path d="m258.47,385.86c-1.35.02-2.19-.97-3.11-1.69-1.37-1.08-2.38-2.51-3-4.15-1.66-4.39-2.45-8.94-2.46-13.65,0-3.25,1.26-4.45,4.35-4.33,8.97.35,17.94.19,26.91.42,3.73.1,7.47.13,11.2.23.58.02,1.13.06,1.68.29.96.4,1.42,1.07,1.45,2.12.16,5.37-.84,10.52-3.09,15.4-1,2.17-2.77,3.62-4.9,4.66-.64-.03-1.2.12-1.77.5-.9.6-1.9,1.05-2.95,1.38-4.07,1.28-8.19,1.71-12.48,1.32-3.35-.3-6.54-.94-9.63-2.2-.72-.29-1.44-.33-2.19-.29Z" style="fill:#d3a9ff; stroke-width:0px;"/></g><path d="m219.89,110.62c6.34-10.01,15.24-17.59,28.99-20.48.66-.14,1.53.42,2.3.65-.41.52-.68,1.22-1.25,1.52-1.65.86-3.38,1.63-5.15,2.32-8.82,3.4-16.01,8.5-22.16,14.69-.65.65-1.4,1.24-2.11,1.85-.21-.18-.42-.37-.63-.55Z" style="fill:#fcc8dd; stroke-width:0px;"/><path d="m219.79,110.63c2.85-5.92,7.35-11.21,12.95-14.73,2.78-1.67,5.96-2.96,9-4.04,1.15-.4,3.5-1.16,4.67-1.51,1.21-.25,2.65-1.05,3.83-.49.58.31,1.63.21,1.53,1.02-.2.43-.42.73-.72,1.24-.17.28-.52.64-.84.81-2.07,1.26-4.42,2.26-6.61,3.18-6.98,3.16-13.41,7.38-19.28,12.3-1.14,1.04-2.44,1.98-3.71,2.91-.35.15-.58-.56-.82-.69h0Zm.2-.03l.65.42h-.25c1.08-1.12,2.13-2.22,3.17-3.4,3.18-3.49,6.82-6.54,10.83-9.06,4.69-3.06,10.11-4.64,15.18-6.85.55-.26.7-.78,1.16-1.29,0,0,.28.9.28.9-.69-.23-1.42-.77-2.06-.75-2.39.39-4.74,1.01-6.99,1.88-8.89,3.78-15.94,10.77-21.98,18.14h0Z" style="fill:#fcc8dd; stroke-width:0px;"/><path d="m248.75,86.25c-1.64.58-2.57,1.19-3.5,1.19-12.13-.05-23.41,2.5-33.98,7.39-.13.06-.4-.08-.61-.13,7.29-8.05,28.41-12.63,38.09-8.45Z" style="fill:#fcc8dd; stroke-width:0px;"/><path d="m248.85,86.25c-.11.12-.44.28-.62.37-.55.29-1.09.59-1.65.86-.61.38-1.79.45-2.54.5-4.87.35-9.71.97-14.52,1.79-5.62.81-11.31,2.12-16.42,4.69-.31.16-1.36.68-1.68.84-.55.11-.54-.05-.88-.09-.41-.04-.58-.58-.27-.85,7.77-8.98,27.95-13.65,38.58-8.1h0Zm-.2,0c-10.66-2.6-29.4,1.41-37.61,8.81,0,0-.27-.85-.27-.85.15.04.25.09.33.12.06.04.19.02-.02.06.3-.12,1.36-.53,1.69-.66,8.43-3.19,17.13-6.78,26.29-6.84,1.66-.05,3.32-.06,4.97.04.66.03,1.64.18,2.31-.07.74-.17,1.54-.62,2.3-.61h0Z" style="fill:#fcc8dd; stroke-width:0px;"/><path d="m255.56,94.1c-.85,4.1-4.86,5.96-6.62,8.91-1.76,2.96-3.39,5.97-5.16,9.11-.59-6.79,5.01-15.77,11.78-18.03Z" style="fill:#fcc8dd; stroke-width:0px;"/><path d="m255.63,94.03c.09,3.99-3.71,6.43-5.76,9.13-2.08,2.87-4.27,5.88-5.65,9.21-.21.47-.91.31-.92-.2-1.19-7.71,4.48-16.78,12.33-18.14h0Zm-.13.15c-1.58,1.01-3,2.12-4.29,3.44-3.66,3.97-6.61,8.98-6.93,14.47,0,0-.92-.2-.92-.2,2.24-2.98,3.5-6.31,5.1-9.67,1.99-3.06,5.48-4.7,7.04-8.04h0Z" style="fill:#fcc8dd; stroke-width:0px;"/><path d="m344,387.26c-11.82.76-22.75,4.93-31.88,15.62-.44.51-.37,1.54-.54,2.33.65-.11,1.4-.01,1.94-.37,1.55-1.03,3.05-2.18,4.5-3.4,7.22-6.11,15.14-9.97,23.52-12.4.89-.26,1.76-.64,2.64-.96-.06-.27-.12-.54-.18-.81Z" style="fill:#ffe6f3; stroke-width:0px;"/><path d="m343.91,387.38c-4.64,1.25-9.26,2.27-13.69,4.09-4.37,1.86-8.89,3.5-12.64,6.57-1.86,1.53-3.5,3.33-4.95,5.25-.22.51-.11,1.39-.21,2.09,0,0-.98-1.02-.98-1.02.62-.15,1.06-.1,1.46-.33,4.29-3.54,8.32-7.61,13.29-10.28,5.52-3.18,11.69-4.74,17.88-5.93,0,0-.18.32-.18.32v-.75h0Zm.18-.24c.14.3.31.7.43,1.06,0,0-.24.13-.24.13-5.49,2.79-11.27,4.92-16.48,8.19-4.78,2.54-8.75,6.2-13.41,8.99,0,0-.26.15-.26.15-.65.46-1.77.39-2.4.39,0,0-1.35.08-1.35.08.24-.72.5-1.44.62-2.24.1-.42.19-.95.64-1.47,1.75-1.74,3.52-3.44,5.34-5.11,2.43-2.19,4.89-4.48,7.77-6.21,5.76-3.34,12.78-4.7,19.36-3.97h0Z" style="fill:#ffe6f3; stroke-width:0px;"/><path d="m316.54,412.18c1.07-1.37,1.95-2.05,2.25-2.94,3.84-11.5,9.86-21.38,17.88-29.83.1-.11.05-.41.07-.62-9.96,4.33-21.06,22.88-20.2,33.39Z" style="fill:#ffe6f3; stroke-width:0px;"/><path d="m316.59,412.04c.03-.12-.02-.19,0-.23.26-.49.85-1.35,1.16-1.83.48-.71.47-1.37.7-2.14.78-3.25,1.94-6.39,3.35-9.41,2.69-6.05,7.64-10.97,11.63-16.14,0,0,1.56-1.93,1.56-1.93.17-.2.95-1.17,1.12-1.39,0,0,.02-.03.02-.03,0,0,.03-.04-.02.02-.12.16-.1.2-.11.21-.02-.11-.03-.22-.02-.44,0,0,1.08.78,1.08.78-.68.45-1.39.82-2.02,1.33-4.52,3.53-8.01,8.2-11,13.07-3.45,5.58-6.41,11.6-7.44,18.13h0Zm-.09.29c-2.1-9.56,4.54-21.73,11.2-28.33,2.9-3.08,6.69-5.41,10.79-6.66,0,0-.99,1.54-.99,1.54-.01.02-.02.12-.03.24,0,.22-.07.59-.31.81-.1.09-.31.29-.42.39-4.62,4.08-7.77,9.48-10.36,14.98-2.15,4.16-4.5,8.78-6.46,13.07-.31.69-.81,1.84-1.39,2.28-.46.44-.95.82-1.42,1.23-.16.13-.45.42-.62.46h0Z" style="fill:#ffe6f3; stroke-width:0px;"/><path d="m329.03,397.33c3.59,2.15,7.67.45,11.04,1.15,3.37.7,6.69,1.54,10.2,2.36-4.61-5.03-15-6.97-21.24-3.51Z" style="fill:#ffe6f3; stroke-width:0px;"/><path d="m329.18,397.33c.54.08.74-.02,1.26.09,3.19.41,6.22-.97,9.45-.27.89.21,1.82.67,2.64.98,2.52,1.13,5.16,1.78,7.92,1.99,0,0-.71,1.22-.71,1.22-4.73-3.37-10.75-4.46-16.47-4.44-.69.03-2.06.17-2.74.28-.46.07-.83,0-1.33.15h0Zm-.3,0c5.4-5,14.51-3.76,19.88.72,1.33,1.15,2.66,3.13,3.8,4.47-2.44-.96-5.1-2.05-7.69-2.4-1.71-.24-3.68-.28-5.38-.44-3.21-.18-8.16.66-10.61-2.35h0Z" style="fill:#ffe6f3; stroke-width:0px;"/></g></svg>
