<?xml version="1.0" encoding="UTF-8"?><svg id="uuid-cba0d0f7-f25d-44bb-b468-598bae4b1cf6" xmlns="http://www.w3.org/2000/svg" viewBox="0 0 490.71 410.28"><path d="m490.62,93.37c-.22-23.33-.44-46.65-.66-69.98-.04-3.93-.25-8.3-3.06-11.05-4.55-4.45-12.06-1.62-17.89.94-29.67,13.04-63.93,12.48-93.61,25.5-21.74,9.53-40.21,26.32-51.78,47.05-1.23,2.2-2.63,4.65-5.06,5.32-2.06.57-4.21-.35-6.17-1.22-15.62-6.87-32.4-11.07-49.41-12.48,0,0,0-.02,0-.03-.4-.03-.81-.05-1.21-.08-.17-.01-.34-.02-.51-.03-1.37-.1-2.73-.18-4.1-.24-.4-.02-.8-.03-1.19-.04-1.11-.04-2.22-.08-3.33-.09-.75-.01-1.5,0-2.25,0-.75,0-1.5,0-2.25,0-1.11.02-2.22.05-3.34.09-.4.01-.8.02-1.19.04-1.37.06-2.74.14-4.1.24-.17.01-.34.02-.51.03-.4.03-.81.05-1.21.08,0,0,0,.02,0,.03-17.01,1.41-33.79,5.61-49.41,12.48-1.96.86-4.11,1.78-6.17,1.22-2.43-.67-3.84-3.12-5.06-5.32-11.57-20.73-30.04-37.52-51.78-47.05-29.68-13.02-63.94-12.46-93.61-25.5-5.83-2.56-13.33-5.4-17.89-.94-2.81,2.75-3.03,7.12-3.06,11.05-.22,23.33-.44,46.65-.66,69.98-.21,22.18-.3,45.02,7.9,65.63,10.78,27.09,36.28,47.78,65.01,52.75-22.29,57.97-12.48,127.16,25.03,176.66,3,3.96,6.31,7.92,10.78,10.12s10.37,2.18,13.93-1.29c3.37-3.29,3.73-8.75,2.22-13.21-1.51-4.46-4.56-8.21-7.38-11.98-37.19-49.75-40.63-122.31-8.33-175.37l-26.26-8.17c-14.99-3.28-28.82-9.39-39.51-20.74-2.82-3-5.61-5.93-7.63-9.52-2.11-3.74-3.86-7.68-5.29-11.73-2.9-8.18-4.5-16.78-5.31-25.41-.54-5.74-.72-11.5-.68-17.26.16-20.5,2.94-41.01,1.3-61.44,24.17,11.53,53.09,8.98,77.6,19.79,21.99,9.71,38.21,29.31,49.76,50.39,1.92,3.5,3.98,7.3,7.6,8.98,5.3,2.45,11.36-.64,16.54-3.33,19.37-10.06,41.15-15.37,62.97-15.51,21.82.13,43.61,5.45,62.97,15.51,5.18,2.69,11.24,5.78,16.54,3.33,3.63-1.67,5.69-5.47,7.6-8.98,11.55-21.08,27.77-40.68,49.76-50.39,24.5-10.81,53.42-8.26,77.6-19.79-1.64,20.43,1.14,40.94,1.3,61.44.05,5.76-.14,11.53-.68,17.26-.81,8.63-2.41,17.23-5.31,25.41-1.43,4.05-3.18,7.98-5.29,11.73-2.02,3.59-4.81,6.52-7.63,9.52-10.69,11.35-24.52,17.46-39.51,20.74l-26.26,8.17c32.3,53.05,28.85,125.61-8.33,175.37-2.82,3.77-5.87,7.52-7.38,11.98-1.51,4.46-1.16,9.92,2.22,13.21,3.56,3.47,9.47,3.49,13.93,1.29s7.77-6.16,10.78-10.12c37.52-49.5,47.32-118.69,25.03-176.66,28.73-4.98,54.22-25.67,65.01-52.75,8.21-20.61,8.11-43.45,7.91-65.63Z" style="fill:#ff4e8c; stroke-width:0px;"/><path d="m490.62,93.37c-.23-20.9-.54-41.79-1.11-62.68,0,0-.13-5.22-.13-5.22-.13-4.1.09-8.7-2.62-11.99-5.52-5.78-14.6.15-20.65,2.55-19.27,8.37-40.54,11.76-60.53,17.13-29.85,7.26-55.85,23.54-71.56,50.01-3.78,5.93-5.75,13.86-13.72,15.88-3.72.94-7.22.1-10.14-1.06-3.11-1.19-6.31-2.45-9.48-3.45-6.25-2.05-12.62-3.7-19.07-4.88-6.44-1.22-12.95-2-19.47-2.36-5.14-.27-9.05-4.59-9.03-9.61-.04-.12,9.03,9.62,9.03,9.59-5.9-.26-11.79-.27-17.68.04,0,0-5.87.39-5.87.39,0,0,9.42-10.03,9.42-10.03-.08,5.33-4.23,9.65-9.42,10.06-15.37,1.31-30.66,4.66-44.85,10.81-7.76,3.83-15.57,4.4-21.86-2.59-3.39-4.1-4.23-6.95-6.95-10.86-13.24-20.54-34.24-35.61-57.72-42.18-22.89-6.82-47.93-8.74-70.92-17.05-3.44-1.2-5.46-2.1-8.64-3.39-2.25-.98-4.82-2.07-7.06-2.37-.5-.06-.8-.04-.69-.03.09,0,.51-.15.77-.38.22-.18.51-.57.5-.6.02-.02-.12.26-.2.89-.19.87-.23,4.99-.23,6.18-.26,18.73-.41,49.86-.64,68.65-.35,28.22.01,58.04,19.06,80.32,11.52,13.85,28.02,23.76,45.57,26.82,6.11,1,9.86,7.59,7.66,13.36-9.03,23.7-12.45,49.59-10.62,74.9.55,6.15,1.33,12.84,2.5,18.92,0,0,.54,3.14.54,3.14.18,1.05.47,2.07.7,3.1,5.08,22.72,14.34,44.58,27.98,63.45,3.12,4.37,7.83,11.75,12.35,11.25-.1.08-.17.17-.18.19-.01.02.04-.06.08-.27.1-.41.12-1.3-.08-2.14-.11-.51-.3-.96-.51-1.46-1.44-3.15-4.05-6.18-6.27-9.28-38.98-53.05-42.35-129.29-8.17-185.58,0,0,5.57,14.75,5.57,14.75l-26.26-8.17.83.22c-7.73-1.7-15.51-4.16-22.96-7.81-7.91-3.85-15.38-9.2-21.58-15.72-2.49-2.67-4.95-5.22-7.16-8.4-11.12-17.13-14.27-38.29-14.57-58.15-.28-21.63,3-44.23,1.32-64.99-.44-5.5,3.66-10.33,9.17-10.77,1.83-.14,3.56.2,5.11.94,8.47,3.96,17.65,6.13,27.06,7.81,20.56,3.48,44.36,6.19,62.55,18.5,19.04,12.32,32.57,30.3,43.18,49.83.62,1.13,1.45,2.41,2.1,2.98.06.03-.09-.05-.13-.06,2.93-.09,8.15-3.41,11.3-4.82,40.17-19.69,88.04-19.69,128.21,0,3.13,1.42,8.38,4.71,11.3,4.82-.03,0-.18.09-.13.06.06-.04.33-.29.71-.79.39-.52.86-1.25,1.39-2.19,2.47-4.5,5.39-9.52,8.21-13.82,12.27-18.7,29.04-35.63,50.41-43.94,14.99-6.05,32.08-7.87,47.11-10.57,4.88-.9,9.65-1.87,14.19-3.12,4.56-1.29,8.89-2.85,12.98-4.74,5.01-2.32,10.95-.13,13.27,4.88.74,1.61,1.02,3.35.89,5-1.09,13.56-.09,27.74.69,42.44.81,15.11,1.25,30.6-1.29,45.85-2.4,13.93-7.05,29.3-16.84,40.05-.73.84-2.27,2.44-2.97,3.2-11.74,12.88-30.48,20.74-43.71,23.32,0,0-26.26,8.17-26.26,8.17,0,0,5.57-14.75,5.57-14.75,33.55,55.27,30.94,129.74-6.08,182.66-1.12,1.44-3.01,4.32-4.15,5.71-2.06,2.92-3.79,4.86-4.62,7.98-.18.95-.18,1.85.08,2.28-.02-.04-.1-.16-.22-.26-.24-.22-.23-.08.3-.05,1.75-.04,3.09-.73,4.78-2.21,2.53-2.29,5.2-5.65,7.35-8.66,0,0,3.81-5.07,3.81-5.07,1.18-1.76,2.31-3.55,3.47-5.32,13.95-21.38,23.14-46.29,27.02-71.66,4.41-28.12,2.17-57.14-6.91-84.27-.59-1.69.57-3.56,2.34-3.79,6.12-.85,12.16-2.45,17.98-4.69,17.65-6.82,32.79-19.71,42.41-36.12,13.08-22.39,13.24-49.4,13.02-74.64h0Zm0,0c.31,25.41.51,52.32-11.72,75.37-12.27,23.06-35,40.49-60.68,45.96,0,0,2.27-4.01,2.27-4.01,21.74,51.19,19.31,111.8-6.31,161.36-.98,2.13-2.32,4.21-3.41,6.19-2.04,3.83-5.05,8.46-7.49,12.03-4.66,7.03-9.46,13.98-17.75,17.81-12.16,5.66-27.3.19-30.21-13.64-2.32-9.87,2.63-19.39,8.47-26.61,36.01-46.53,39.62-115.9,9.14-165.95-2.87-4.72-1.36-10.87,3.36-13.74.07-.55,27.3-8.75,28.48-9.17,6.74-1.54,13.37-3.51,19.26-6.45,8.48-4.07,15.61-10.32,21.17-17.64,8.55-13.91,10.65-30.66,10.95-46.93.2-22.15-3.06-43.31-1.26-66.34,0,0,14.27,9.83,14.27,9.83-10.24,4.82-21.26,7.52-32.13,9.45-15.3,2.79-29.43,4.04-43.26,9.47-18.48,7.21-32.6,22.68-43.03,39.38-1.24,1.95-2.59,4.32-3.69,6.27-1.47,2.68-2.79,5.14-4.71,7.75-7.5,10.25-19.36,10.49-29.53,5.38-36.25-20.09-80.49-21.92-117.8-3.53-5.97,2.87-10.08,5.74-17.58,6.71-7.2,1-14.92-2.69-19.01-8.57-1.98-2.58-3.2-5.15-4.71-7.75-1.13-2.01-2.49-4.33-3.69-6.27-8-12.87-18.4-25.13-31.02-33.21-21.16-13.77-47.16-12.33-71.26-19.17-5.4-1.52-10.83-3.44-16.14-5.91,0,0,14.27-9.83,14.27-9.83,2.44,29.77-4.19,57.72.4,86.66,1.07,6.58,2.77,12.92,5.24,18.77,1.82,4.15,3.52,7.77,6.74,11.15,5.19,5.93,11.22,10.85,18.48,14.33,5.89,2.94,12.51,4.92,19.26,6.45,0,0,26.26,8.17,26.26,8.17,6.13,1.81,8.94,9.27,5.61,14.7-29.94,49.1-27.06,116.92,7.16,163.39,6.5,8.31,12.9,17.74,10.24,29.18-2.91,13.58-17.87,19.07-29.97,13.51-8.29-3.75-13.2-10.59-18.05-17.48-16.55-22.98-27.55-49.96-32.64-77.73-6.46-34.82-3.48-71.33,9.09-104.53,0,0,7.63,13.44,7.63,13.44l-4.2-.87c-4.11-.84-8.36-2.22-12.29-3.64-23.28-8.68-42.94-26.53-53.7-48.92C-3.99,136.15.84,98.14.4,64.06c0,0,.29-30.51.29-30.51.18-4.86-.2-11.69.53-16.67C3.15,3.16,15.57-2.87,28.26,1.3c3.95,1.13,7.71,2.99,11.49,4.46,25.95,10.02,54.4,10.89,80.95,20.48,26.2,9.1,48.95,27.66,63.22,51.43,0,0,2.07,3.55,2.07,3.55.53.98.93,1.52.88,1.44-.04-.04-.23-.26-.67-.54-.43-.28-1.12-.59-1.81-.7-.67-.13-1.2-.09-1.42-.05-.24.04-.19.05.01-.03,17.07-7.48,35.31-12.61,53.93-14.11,0,0-9.42,10.03-9.42,10.03v-.03s0-.13,0-.13c.11-5.27,4.27-9.52,9.42-9.9,2.23-.16,4.48-.26,6.72-.35,6.84-.23,13.7.12,20.51.81,4.97.47,8.69,4.71,8.66,9.61,0,0-9.03-9.61-9.03-9.61,14.73,1.59,29.19,5.19,42.85,10.68,3.59,1.39,7.42,3.26,10.87,4.85.03.03-.37-.02-.99.16-.59.16-1.08.55-1.13.65-.08.13.13-.03.4-.39.29-.38.64-.93,1.1-1.69,0,0,1.5-2.37,1.5-2.37,1.98-3.16,4.2-6.16,6.47-9.11,20.27-25.63,47.4-39.09,79.13-44.34,20.69-3.82,41.37-5.47,61.05-12.74,6.7-2.3,15.6-7.37,22.04-2.02,3.94,3.54,3.52,9.34,3.5,14.13,0,0-.03,5.22-.03,5.22-.17,20.9-.09,41.8.07,62.69h0Z" style="fill:#ff4e8c; stroke-width:0px;"/></svg>