<?xml version="1.0" encoding="utf-8"?>
<!-- Generator: Adobe Illustrator 27.9.0, SVG Export Plug-In . SVG Version: 6.00 Build 0)  -->
<svg version="1.1" id="Layer_1" xmlns="http://www.w3.org/2000/svg" xmlns:xlink="http://www.w3.org/1999/xlink" x="0px" y="0px"
	 viewBox="0 0 24 24" style="enable-background:new 0 0 24 24;" xml:space="preserve">
<style type="text/css">
	.st0{fill:#CCC5FF;}
</style>
<path class="st0" d="M12,0c6.6,0,12,5.4,12,12s-5.4,12-12,12S0,18.6,0,12S5.4,0,12,0z M11.5,6.8C8,6.8,5.3,9,5.3,11.7
	c0,2.6,2.5,4.2,6.4,4.1l0.1,0l0.4,0l-0.1,0.3l0,0c0,0.1,0.1,0.1,0.1,0.2l0,0l0,0l0,0.1l0,0l0,0l0,0l0,0.1l0,0.1l0,0.1l0,0.1l0,0.1
	l0,0.1l0,0.1l0,0.1l0,0.1l0,0.1l0,0.1l0,0.1l0,0.1l0,0.1l0,0.1l0,0.2l0,0.1l0,0.2l0,0.1l0,0.2l0,0.2l0,0.2l0,0.2l0,0.2l0,0.2l0,0.2
	l0,0.3l0,0.3l0,0.2l0.1,0.3l0,0.1l0.1,0.4l0,0.3l0,0.2l0,0.3l0,0.2c2.5-0.3,4.8-1.5,6.5-3.4l0-0.1l-0.2-0.9L19.1,16l-0.4-1.5
	l-0.3-1.3l-0.2-0.8L18,11.9L18,11.6l-0.1-0.3l0-0.1l0-0.1l0,0l0,0c-0.4-1.2-1.1-2.2-2-3C14.6,7.3,13.2,6.8,11.5,6.8z M8.5,19.3
	c-0.3-0.1-0.6,0.1-0.7,0.4l0,0l-0.5,2c0.3,0.2,0.7,0.3,1,0.4l0.1,0L8.9,20l0,0C9,19.7,8.8,19.4,8.5,19.3z M11.7,17.9
	c-0.3-0.1-0.6,0.1-0.7,0.4l0,0l-0.8,3l0,0c-0.1,0.3,0.1,0.6,0.4,0.7c0.3,0.1,0.6-0.1,0.7-0.4l0,0l0.8-3l0,0c0,0,0,0,0-0.1l0,0l0-0.1
	l0-0.1l0-0.1C12,18,11.9,17.9,11.7,17.9L11.7,17.9z M6.2,14.8C6.2,14.9,6.2,14.9,6.2,14.8l0,0.1l-0.8,3l0,0
	c-0.1,0.3,0.1,0.6,0.4,0.7c0.3,0.1,0.6-0.1,0.7-0.4l0,0l0.7-2.7C6.8,15.3,6.5,15.1,6.2,14.8L6.2,14.8z M4.3,11.4
	c-0.3-0.1-0.6,0.1-0.7,0.4l0,0l-0.8,3l0,0c-0.1,0.3,0.1,0.6,0.4,0.7c0.3,0.1,0.6-0.1,0.7-0.4l0,0l0.8-3l0,0
	C4.8,11.8,4.6,11.5,4.3,11.4z M22.1,10.8c-0.3-0.1-0.6,0.1-0.7,0.4l0,0l-0.8,3l0,0c-0.1,0.3,0.1,0.6,0.4,0.7
	c0.3,0.1,0.6-0.1,0.7-0.4l0,0l0.8-3l0,0C22.6,11.2,22.5,10.8,22.1,10.8z M2.5,6.8C1.9,8,1.4,9.4,1.3,10.7C1.5,11,1.9,11,2.1,10.8
	c0.1-0.1,0.1-0.2,0.2-0.3l0,0l0.8-3l0,0C3.2,7.2,3,6.9,2.7,6.8C2.6,6.8,2.6,6.8,2.5,6.8z M20.1,6.8c-0.3-0.1-0.6,0.1-0.7,0.4l0,0
	l-0.8,3l0,0c-0.1,0.3,0.1,0.6,0.4,0.7c0.3,0.1,0.6-0.1,0.7-0.4l0,0l0.8-3l0,0C20.6,7.2,20.4,6.9,20.1,6.8L20.1,6.8z M12.3,8.8
	c0.4,0,0.8,0.3,0.8,0.8s-0.3,0.8-0.8,0.8s-0.8-0.3-0.8-0.8S11.9,8.8,12.3,8.8z M6,4C5.7,3.9,5.4,4.1,5.3,4.4l0,0l-0.8,3l0,0
	C4.4,7.7,4.6,8,4.9,8.1C5.2,8.2,5.5,8,5.6,7.7l0,0l0,0l0.8-3l0,0C6.5,4.4,6.3,4.1,6,4L6,4z M16.2,4.6c-0.3-0.1-0.6,0.1-0.7,0.4l0,0
	L15,7c0.3,0.2,0.7,0.4,1,0.6l0.1,0l0.6-2.3l0,0C16.7,5,16.6,4.7,16.2,4.6z M11,1.3c-0.4,0-0.7,0.1-1.1,0.2l-0.1,0L9.1,4.2l0,0
	C9,4.5,9.2,4.8,9.5,4.9c0.3,0.1,0.6-0.1,0.7-0.4l0,0l0.8-3l0,0C11.1,1.4,11.1,1.3,11,1.3z M18.4,3.3l-0.2,0.6l0,0
	c-0.1,0.3,0.1,0.6,0.4,0.7c0.3,0.1,0.6-0.1,0.7-0.4l0,0l0-0.1C19.1,3.8,18.8,3.6,18.4,3.3L18.4,3.3z M13.7,1.4l-0.3,1l0,0
	c-0.1,0.3,0.1,0.6,0.4,0.7c0.3,0.1,0.6-0.1,0.7-0.4l0,0l0.3-1.1C14.5,1.5,14.2,1.4,13.7,1.4C13.8,1.4,13.7,1.4,13.7,1.4z"/>
</svg>
