<?xml version="1.0" encoding="utf-8"?>
<!-- Generator: Adobe Illustrator 27.9.0, SVG Export Plug-In . SVG Version: 6.00 Build 0)  -->
<svg version="1.1" id="Layer_1" xmlns="http://www.w3.org/2000/svg" xmlns:xlink="http://www.w3.org/1999/xlink" x="0px" y="0px"
	 viewBox="0 0 24 24" style="enable-background:new 0 0 24 24;" xml:space="preserve">
<style type="text/css">
	.st0{fill:#CCC5FF;}
</style>
<path class="st0" d="M12,24c-0.3,0-0.6-0.1-0.9-0.2L8.1,22c-0.4-0.2-0.2-0.3-0.1-0.4c0.6-0.2,0.7-0.2,1.3-0.6c0.1,0,0.2,0,0.2,0
	l2.3,1.3c0.1,0,0.2,0,0.3,0l8.8-5.1c0.1,0,0.1-0.1,0.1-0.2V6.9c0-0.1-0.1-0.2-0.1-0.2l-8.8-5.1c-0.1,0-0.2,0-0.3,0L3.1,6.7
	C3,6.7,2.9,6.8,2.9,6.9v10.1c0,0.1,0.1,0.2,0.1,0.2l2.4,1.4c1.3,0.7,2.1-0.1,2.1-0.9v-10c0-0.1,0.1-0.3,0.3-0.3H9
	c0.1,0,0.3,0.1,0.3,0.3v10c0,1.7-0.9,2.7-2.6,2.7c-0.5,0-0.9,0-2-0.6l-2.3-1.3c-0.6-0.3-0.9-0.9-0.9-1.6V6.9c0-0.7,0.4-1.3,0.9-1.6
	l8.8-5.1c0.6-0.3,1.3-0.3,1.8,0l8.8,5.1c0.6,0.3,0.9,0.9,0.9,1.6v10.1c0,0.7-0.4,1.3-0.9,1.6l-8.8,5.1C12.6,23.9,12.3,24,12,24z
	 M19.1,14c0-1.9-1.3-2.4-4-2.8c-2.7-0.4-3-0.5-3-1.2c0-0.5,0.2-1.2,2.3-1.2c1.8,0,2.5,0.4,2.7,1.6c0,0.1,0.1,0.2,0.2,0.2h1.1
	c0.1,0,0.1,0,0.2-0.1c0-0.1,0.1-0.1,0.1-0.2c-0.2-2.1-1.6-3.1-4.4-3.1c-2.5,0-4,1.1-4,2.8c0,1.9,1.5,2.5,3.9,2.7
	c2.9,0.3,3.1,0.7,3.1,1.3c0,1-0.8,1.4-2.6,1.4c-2.3,0-2.8-0.6-3-1.7c0-0.1-0.1-0.2-0.3-0.2h-1.1c-0.1,0-0.3,0.1-0.3,0.3
	c0,1.5,0.8,3.2,4.7,3.2C17.5,17,19.1,15.9,19.1,14z"/>
</svg>
