<?xml version="1.0" encoding="utf-8"?>
<!-- Generator: Adobe Illustrator 27.9.0, SVG Export Plug-In . SVG Version: 6.00 Build 0)  -->
<svg version="1.1" id="Layer_1" xmlns="http://www.w3.org/2000/svg" xmlns:xlink="http://www.w3.org/1999/xlink" x="0px" y="0px"
	 viewBox="0 0 24 24" style="enable-background:new 0 0 24 24;" xml:space="preserve">
<style type="text/css">
	.st0{fill:#CCC5FF;}
</style>
<path class="st0" d="M1.1,0C0.5,0,0,0.5,0,1.1v21.8C0,23.5,0.5,24,1.1,24h21.8c0.6,0,1.1-0.5,1.1-1.1V1.1C24,0.5,23.5,0,22.9,0H1.1z
	 M18.5,9.8c0.6,0,1.2,0,1.6,0.1c0.4,0.1,0.9,0.2,1.3,0.3v2.5c-0.2-0.1-0.4-0.3-0.6-0.4c-0.2-0.1-0.5-0.2-0.7-0.3
	c-0.5-0.1-0.9-0.2-1.4-0.2c-0.3,0-0.6,0-0.8,0.1c-0.2,0-0.4,0.1-0.6,0.2c-0.2,0.1-0.3,0.2-0.4,0.4c-0.1,0.1-0.1,0.3-0.1,0.5
	c0,0.2,0.1,0.4,0.2,0.5c0.1,0.2,0.3,0.3,0.4,0.4s0.4,0.3,0.7,0.4c0.3,0.1,0.6,0.3,0.9,0.4c0.5,0.2,0.9,0.4,1.3,0.6
	c0.4,0.2,0.7,0.5,1,0.8c0.3,0.3,0.5,0.6,0.6,1c0.1,0.4,0.2,0.8,0.2,1.3c0,0.7-0.1,1.2-0.4,1.7c-0.2,0.4-0.6,0.8-1,1.1
	c-0.5,0.3-1,0.5-1.5,0.6c-0.6,0.1-1.2,0.2-1.8,0.2c-0.6,0-1.2-0.1-1.8-0.2c-0.5-0.1-1-0.3-1.5-0.5v-2.6c0.9,0.8,2.1,1.2,3.2,1.2
	c0.3,0,0.6,0,0.9-0.1c0.2-0.1,0.5-0.1,0.6-0.2c0.2-0.1,0.3-0.2,0.4-0.4c0.2-0.3,0.2-0.8-0.1-1.1c-0.1-0.2-0.3-0.4-0.5-0.5
	c-0.3-0.2-0.5-0.3-0.8-0.4c-0.3-0.2-0.7-0.3-1-0.4c-0.9-0.4-1.6-0.9-2.1-1.4c-0.4-0.6-0.7-1.2-0.7-2c0-0.6,0.1-1.1,0.4-1.6
	s0.6-0.8,1-1.1c0.4-0.3,0.9-0.5,1.5-0.6C17.3,9.8,17.9,9.7,18.5,9.8z M3.4,9.9h9.6v2.2H9.5v9.6H6.8v-9.6H3.4L3.4,9.9z"/>
</svg>
